<svg xmlns="http://www.w3.org/2000/svg" viewBox="0 0 144 144"><path d="M142.7 65.003c-.558 8.016.471 14.014.236 21.533-.236 7.518.393 19.094-2.415 28.222-1.531 4.976-5.07 9.577-8.386 13.902-6.174 8.052-15.253 10.958-25.654 11.499-12.313.64-24.586 2.184-36.901 2.47-12.611.293-25.31.098-37.845-1.047-4.626-.423-9.176-3.795-13.272-6.461-10.786-7.021-13.8-17.562-14.659-29-.439-5.852-1.666-11.675-1.777-17.524-.277-14.491-.343-28.993-.015-43.481.123-5.427 1.044-10.955 2.52-16.218C8.401 15.105 18.952 7.383 33.421 4.107c5.682-1.287 11.683-1.624 17.565-1.862 12.44-.505 24.907-1.067 37.344-.82 8.709.174 17.761.506 26 2.792 15.317 4.249 26.293 14.496 27.403 30.071.777 10.915.217 21.264.967 30.715zM42.618 6.282c-9.534 2.082-18.033 3.553-24.684 9.285-7.526 6.486-10.541 15.047-11.039 24.014-.706 12.699-.186 25.456-.176 38.187.005 5.546-.189 11.104.135 16.635.328 5.603.786 11.248 1.901 16.751 1.795 8.865 5.391 16.807 14.135 22.177 6.88 4.225 14.103 5.442 22.214 5.155 12.352-.437 24.74.086 37.101-.22 9.151-.227 18.344-.708 27.404-1.848 8.13-1.023 15.261-4.699 20.357-10.736 6.424-7.611 7.779-16.737 7.915-26.1.094-6.488.609-12.978.467-19.459-.342-15.58-.03-31.244-1.77-46.703-1.315-11.69-7.826-21.705-21.347-24.908-8.734-2.069-17.909-3.371-26.909-3.486-15.574-.196-31.166.796-45.704 1.256z"/><path d="M71.492 55.929c9.414-1.185 19.399 7.287 20.642 16.282.543 3.93-5.828 12.31-10.473 14.109-7.641 2.96-15.486 3.25-23.073.564-8.544-3.025-15.189-15.155-5.726-24.736 3.863-3.913 8.379-6.246 18.63-6.219zm15.87 17.04c.003-8.697-8.947-15.954-17.641-14.319-1.697.319-3.401.676-5.121.809-6.227.481-12.006 5.687-13.171 11.97-.922 4.973 2.376 10.638 8.39 12.265 4.815 1.303 10.207 2.058 15.127 1.481 8.387-.983 12.413-5.606 12.416-12.206zM103.932 114.121c-4.455.01-7.739-2.929-7.827-7.005-.124-5.726 4.397-9.961 10.53-9.865 2.809.044 8.02 6.023 7.871 9.031-.185 3.727-5.715 7.828-10.574 7.839zm5.836-7.773c.391-3.543-2.221-5.299-5.042-5.367-2.84-.069-5.017 1.78-4.84 5.135.145 2.747.376 5.177 4.097 5.318 3.775.141 5.252-2.089 5.785-5.086zM38.504 29.952c4.478.06 8.92 3.8 8.968 7.55.051 3.984-5.21 9.165-9.306 9.165-4.492 0-9.137-4.151-8.961-8.008.211-4.613 4.65-8.769 9.299-8.707zm4.058 8.019c.86-3.326-1.086-4.534-4.403-4.447-3.199.084-5.399 1.681-5.44 4.598-.034 2.425.452 5.516 4.267 5.153 3.039-.29 6.811-.703 5.576-5.304zM46.535 109.008c-.039 3.547-4.469 8.38-7.725 8.183-7.025-.425-10.292-3.981-9.797-8.882.452-4.472 3.989-8.361 8.237-8.248 4.652.124 9.332 4.634 9.285 8.947zm-3.735-1.469c-1.232-.905-3.8-3.896-5.076-3.485-2.319.748-4.817 3.275-5.498 5.511-.82 2.692 1.708 4.778 4.879 4.477 2.916-.275 5.546-1.55 5.695-6.503zM105.462 28.16c3.54.035 8.818 4.708 8.952 7.927.152 3.631-6.026 8.295-10.81 8.161-3.921-.109-7.509-3.968-7.5-8.067.011-4.542 4.128-8.072 9.358-8.021zm4.339 8.017c-.355-2.863-1.805-5.625-5.088-5.088-1.85.303-4.39 3.235-4.423 5.018-.033 1.797 2.492 4.979 4.182 5.15 2.663.269 5.516-1.515 5.329-5.08z"/><path d="M87.362 72.969c-.002 6.6-4.029 11.222-12.416 12.205-4.919.577-10.312-.178-15.127-1.481-6.014-1.627-9.312-7.291-8.39-12.265 1.165-6.283 6.944-11.489 13.171-11.97 1.72-.133 3.424-.49 5.121-.809 8.694-1.633 17.644 5.623 17.641 14.32zm-17.537 9.34l.1-.445c1.292 0 2.596.106 3.874-.019 4.937-.482 9.419-3.65 10.405-7.74.927-3.844-.922-6.983-4.223-9.206-7.197-4.846-16.559-3.129-21.596 1.913-4.084 4.088-5.023 10.066 1.822 13.521 2.769 1.397 6.387 1.36 9.618 1.976z" fill="#f15a29"/><path d="M109.768 106.348c-.533 2.997-2.01 5.227-5.785 5.085-3.722-.14-3.953-2.57-4.097-5.318-.177-3.354 2-5.203 4.84-5.135 2.821.069 5.433 1.825 5.042 5.368zM42.562 37.971c1.235 4.601-2.537 5.014-5.576 5.303-3.815.363-4.301-2.727-4.267-5.153.041-2.917 2.241-4.515 5.44-4.598 3.317-.086 5.263 1.122 4.403 4.448z" fill="#39b54a"/><path d="M42.8 107.539c-.148 4.952-2.778 6.227-5.695 6.503-3.171.3-5.699-1.785-4.879-4.477.681-2.236 3.179-4.763 5.498-5.511 1.276-.411 3.843 2.581 5.076 3.485zM109.801 36.177c.186 3.565-2.667 5.348-5.329 5.079-1.69-.171-4.215-3.352-4.182-5.15.033-1.782 2.573-4.715 4.423-5.018 3.283-.536 4.733 2.227 5.088 5.089z" fill="#754b9e"/><path d="M69.825 82.309c-3.231-.616-6.849-.579-9.617-1.976-6.845-3.455-5.907-9.433-1.822-13.521 5.037-5.042 14.399-6.759 21.596-1.913 3.301 2.223 5.149 5.362 4.223 9.206-.986 4.091-5.469 7.258-10.405 7.74-1.278.125-2.582.019-3.874.019l-.101.445zm-1.129-3.123l.072.351c1.994-.388 4.256-.36 5.917-1.267 2.203-1.204 4.846-2.821 5.671-4.829 1.401-3.413-1.349-5.468-4.504-7.248-4.592-2.59-8.755-.95-12.541.946-2.174 1.089-4.753 3.773-4.76 5.746-.011 3.295 3.082 5.504 6.768 6.267 1.074.222 2.249.034 3.377.034z"/></svg>