<svg xmlns="http://www.w3.org/2000/svg" viewBox="0 0 144 144"><path d="M135.712 51.855c6.48 16.815 8.211 33.726 3.827 51.364-2.658 10.701-7.71 19.874-15.688 27.284-9.088 8.441-20.251 13.303-33.419 13.291-12.318-.012-24.626.363-36.934.432-14.237.081-26.037-4.757-35.836-15.001-7.574-7.92-12.476-16.852-14.389-27.102-1.982-10.636-.739-21.255 2.345-31.661 2.518-8.447 5.214-16.874 7.248-25.443 1.557-6.59 1.858-13.292-1.571-19.379l2.444-.716c5.673 10.38 3.371 21.06-.079 31.405-5.015 15.038-9.526 29.759-6.657 46.036 3.441 19.561 21.021 37.705 43.192 38.405 13.97.44 28-1.028 41.96-.527 14.088.491 32.964-12.914 38.739-23.699 6.151-11.479 7.286-23.505 7.482-35.929.155-10.424-2.54-20.163-6.66-29.82-3.132-7.372-4.591-15.236-2.35-23.305 1.339-4.825 2.529-9.814-1.624-14.391-1.129 1.704-2.02 3.51-2.961 5.122l-2.671-.416c1.109-.929.616-3.407 1.546-4.744 1.198-1.735 2.871-3.48 4.781-4.256.643-.266 3.026 2.181 3.916 3.751 2.55 4.496 2.408 9.209.496 13.922-3.607 8.889-.308 17.158 2.863 25.377z"/><path d="M131.715 50.797c4.12 9.657 6.815 19.396 6.66 29.82-.196 12.424-1.331 24.45-7.482 35.929-5.775 10.785-24.65 24.189-38.739 23.699-13.96-.501-27.99.967-41.96.527-22.171-.7-39.751-18.844-43.192-38.405C4.134 86.089 8.645 71.368 13.66 56.33c3.449-10.345 5.751-21.026.079-31.405a30.34 30.34 0 0 0-1.156-1.947c-.83-1.295-.671-3.162-.977-4.752 1.632.04 3.8-.543 4.788.242 3.56 2.833 8.159 5.574 9.759 9.347 3.813 8.994 3.897 18.408 1.496 28.13-1.627 6.59-2.027 13.455-2.723 20.269a118.177 118.177 0 0 1-.855 6.783c-1.103 6.998-.889 13.883 1.155 20.613 4.483 14.817 15.58 20.828 29.676 24.012 6.786 1.536 10.132-1.638 10.463-9.472.201-4.896-1.686-9.872-1.524-14.768.222-6.589.552-13.434 2.525-19.677 4.193-13.211 7.298-26.249 3.191-40.067-.395-1.316 1.07-3.122 1.972-5.499 5.409 5.178 7.988 10.725 7.786 16.539-.342 9.517-2.327 18.963-2.916 28.48-.31 4.927.32 10.077 1.534 14.911 1.688 6.67 4.761 12.839 3.025 20.204-1.349 5.692 4.358 8.738 12.471 7.407 14.229-2.325 25.801-13.684 28.204-27.864.228-1.347.437-2.683.606-4.029 1.67-12.312 1.311-24.552-.996-36.77-.828-4.355-2.745-8.627-4.721-12.696-3.686-7.607-2.938-16.583 4.921-22.086 1.376-.96 2.386-2.388 3.337-4.011.941-1.612 1.832-3.418 2.961-5.122 4.153 4.577 2.962 9.566 1.624 14.391-2.241 8.069-.781 15.932 2.35 23.304zm-.818 44.023c2.402-12.884-.212-25.153-2.906-37.523-1.677-7.7-4.116-15.256-5.625-22.977-.503-2.621.805-5.549 1.47-9.466-1.168 1.408-1.643 1.827-1.931 2.347-4.021 7.326-1.295 14.434 1.105 21.48 6.163 18.152 8.773 36.418 3.29 55.158-3.639 12.436-10.906 21.692-24.186 25.607-5.492 1.615-11.3 2.261-18.306 3.612 1.751.621 2.572 1.182 3.363 1.15 2.77-.124 5.541-.35 8.291-.699 10.488-1.333 19.168-5.551 25.544-13.868 5.725-7.458 8.203-15.783 9.891-24.821zm-71.863 40.713c.91-.052 1.781-.776 2.662-1.195-.979-.53-1.928-1.386-2.967-1.508-2.829-.335-5.728-.109-8.538-.535-10.922-1.645-19.288-7.046-25.724-15.65-8.205-10.949-9.79-23.463-8.981-36.071.569-8.721 3.691-17.271 5.477-25.942 2.342-11.283 5.643-22.698-3.215-33.045-.475.102-.94.205-1.415.307.217.938.276 1.948.691 2.794.751 1.529 2.036 2.885 2.54 4.466 2.38 7.567.901 14.963-.776 22.45-2.133 9.569-4.108 19.199-5.42 28.9-1.541 11.394.56 22.245 6.104 32.768 7.985 15.162 24.226 23.24 39.562 22.261z" fill="#7d54a2"/><path d="M127.991 57.297c2.693 12.371 5.308 24.639 2.906 37.523-1.687 9.038-4.166 17.363-9.889 24.823-6.377 8.317-15.056 12.535-25.544 13.868a102.24 102.24 0 0 1-8.291.699c-.792.031-1.612-.529-3.363-1.15 7.006-1.351 12.814-1.997 18.306-3.612 13.28-3.915 20.547-13.171 24.186-25.607 5.483-18.741 2.872-37.007-3.29-55.158-2.4-7.047-5.126-14.154-1.105-21.48.287-.52.762-.939 1.931-2.347-.665 3.917-1.973 6.845-1.47 9.466 1.507 7.719 3.946 15.275 5.623 22.975z"/><path d="M122.109 17.807l2.671.416c-.951 1.622-1.961 3.051-3.337 4.011-7.859 5.503-8.607 14.479-4.921 22.086 1.976 4.068 3.893 8.341 4.721 12.696 2.308 12.218 2.666 24.457.996 36.77l-2.493-.355c.308-2.203.448-4.468.42-6.783-.055-6.762.463-13.576-.314-20.267-1.073-9.261-3.095-18.378-11.996-24.451-4.905-3.363-9.474-7.164-14.201-10.762C85.884 25.235 80.051 18.11 77.83 8.625l2.533-1.011c3.013 8.26 7.619 15.366 15.204 20.696 4.955 3.485 9.85 7.072 15.882 11.414-1.338-10.128 3.929-16.313 10.66-21.917z"/><path d="M119.748 93.43l2.493.355a94.851 94.851 0 0 1-.606 4.029c-2.403 14.179-13.976 25.539-28.204 27.864-8.114 1.331-13.821-1.715-12.471-7.407 1.736-7.365-1.337-13.534-3.025-20.204-1.214-4.834-1.844-9.984-1.534-14.911.59-9.517 2.574-18.963 2.916-28.48.201-5.814-2.377-11.361-7.786-16.539l-2.186-.172c.426-.49.881-.919 1.366-1.235 2.742-1.797 5.234.405 7.003 2.709 4.824 6.28 5.7 13.593 5.359 20.906-.271 6.049-2.095 12.007-2.574 18.066-.429 5.437-.907 11.149.336 16.381 1.964 8.22 4.907 16.174 3.764 24.804-.109.877 1.581 2.845 2.412 2.844 9.231-.057 17.711-2.276 23.83-9.348 5.049-5.839 7.903-12.45 8.907-19.662z"/><path d="M119.853 66.38c.777 6.691.259 13.504.314 20.267a45.038 45.038 0 0 1-.42 6.783c-1.004 7.212-3.857 13.823-8.907 19.661-6.119 7.072-14.599 9.291-23.83 9.348-.831.001-2.522-1.967-2.412-2.844 1.143-8.63-1.8-16.584-3.764-24.804-1.243-5.232-.765-10.944-.336-16.381.479-6.059 2.303-12.017 2.574-18.066.341-7.313-.535-14.626-5.359-20.906-1.77-2.304-4.261-4.506-7.003-2.709-.485.317-.94.745-1.366 1.235-1.277 1.48-2.209 3.592-2.249 5.285-.132 5.416 1.527 10.943.999 16.288-.757 7.701-1.988 15.546-4.506 22.85-3.34 9.661-5.325 18.995-2.125 29.081.918 2.876.164 6.283-.115 9.425-.249 2.826-2.347 3.898-5.088 3.573-17.54-2.059-29.108-14.465-29.82-31.59-.234-5.569.036-11.016.594-16.442.488-4.774 1.203-9.517 1.988-14.291 1.718-10.415 7.837-18.14 15.578-25.01 6.811-6.043 14.037-11.708 20.501-18.077 2.92-2.868 4.338-7.092 6.645-10.581.881-1.327 2.346-2.307 3.544-3.44.88 1.193 2.235 2.283 2.54 3.589 2.22 9.484 8.053 16.61 15.826 22.542 4.727 3.597 9.296 7.399 14.201 10.762 8.901 6.074 10.923 15.191 11.996 24.452z" fill="#662d91"/><path d="M80.364 7.614L77.83 8.625c-.306-1.305-1.661-2.396-2.54-3.589-1.198 1.133-2.663 2.113-3.544 3.44-2.307 3.49-3.725 7.713-6.645 10.581C58.636 25.426 51.41 31.092 44.6 37.135c-7.741 6.869-13.86 14.595-15.578 25.01-.785 4.774-1.5 9.517-1.988 14.291l-2.107-.223c.697-6.814 1.097-13.679 2.723-20.269 2.4-9.722 2.317-19.136-1.496-28.13-1.6-3.773-6.199-6.514-9.759-9.347-.989-.785-3.156-.202-4.788-.242.306 1.591.146 3.458.977 4.752.415.642.801 1.295 1.156 1.947l-2.444.716a20.913 20.913 0 0 0-1.542-2.355c-2.125-2.814-2.688-5.476-.025-7.966 3.069-2.858 6.066-1.36 9.221.433 9.94 5.634 11.982 14.925 13.144 24.675.118.938.058 1.897.107 2.835 0 .112.168.224.623.744 2.465-2.582 4.693-5.327 7.366-7.614 6.078-5.196 12.878-9.708 18.402-15.363 4.188-4.307 6.724-10.051 10.279-14.97 1.565-2.163 3.821-3.878 5.772-5.807 1.74 1.825 4.361 3.373 5.072 5.494.204.634.422 1.256.649 1.868z"/><path d="M69.343 37.965l2.186.172c-.902 2.377-2.367 4.183-1.972 5.499 4.107 13.818 1.003 26.855-3.191 40.067-1.973 6.244-2.303 13.088-2.525 19.677-.161 4.896 1.725 9.872 1.524 14.768-.331 7.834-3.677 11.008-10.463 9.472-14.097-3.183-25.194-9.194-29.676-24.012-2.044-6.731-2.257-13.615-1.155-20.613.358-2.244.626-4.509.855-6.783l2.107.223c-.557 5.427-.828 10.874-.594 16.442.712 17.125 12.28 29.531 29.82 31.59 2.74.325 4.838-.748 5.088-3.573.279-3.142 1.033-6.549.115-9.425-3.199-10.086-1.215-19.42 2.125-29.081 2.517-7.305 3.749-15.149 4.506-22.85.528-5.345-1.131-10.872-.999-16.288.041-1.693.972-3.805 2.249-5.285z"/><path d="M61.696 134.338c-.881.419-1.752 1.144-2.662 1.195-15.336.979-31.576-7.099-39.561-22.261-5.544-10.523-7.645-21.374-6.104-32.768 1.312-9.701 3.287-19.331 5.42-28.9 1.677-7.488 3.155-14.884.776-22.45-.504-1.581-1.789-2.936-2.54-4.466-.415-.846-.474-1.856-.691-2.794.475-.102.94-.205 1.415-.307 8.858 10.347 5.557 21.763 3.215 33.045-1.786 8.671-4.908 17.22-5.477 25.942-.809 12.607.776 25.122 8.981 36.071 6.436 8.605 14.802 14.005 25.724 15.65 2.81.427 5.709.2 8.538.535 1.037.122 1.987.978 2.966 1.508z"/></svg>