<?xml version="1.0" encoding="iso-8859-1"?>
<!-- Generator: Adobe Illustrator 18.1.1, SVG Export Plug-In . SVG Version: 6.00 Build 0)  -->
<svg version="1.1" xmlns="http://www.w3.org/2000/svg" xmlns:xlink="http://www.w3.org/1999/xlink" x="0px" y="0px"
	 viewBox="0 0 140.604 142.389" style="enable-background:new 0 0 140.604 142.389;" xml:space="preserve">
<g id="destroyed">
	<g id="qQjBR4.tif">
		<g>
			<path d="M140.334,64.09c-0.556,8.072,0.469,14.114,0.235,21.686c-0.235,7.572,0.391,19.23-2.405,28.422
				c-1.525,5.011-5.049,9.645-8.352,14c-6.149,8.109-15.19,11.036-25.549,11.58c-12.263,0.645-24.486,2.199-36.75,2.488
				c-12.559,0.295-25.207,0.098-37.691-1.055c-4.607-0.426-9.139-3.822-13.218-6.507c-10.742-7.071-13.744-17.687-14.599-29.206
				c-0.438-5.894-1.659-11.758-1.77-17.648C-0.041,73.257-0.107,58.652,0.22,44.061c0.122-5.466,1.039-11.033,2.51-16.333
				C6.583,13.837,17.09,6.061,31.501,2.761c5.659-1.296,11.636-1.635,17.493-1.875c12.389-0.508,24.805-1.075,37.191-0.825
				c8.674,0.175,17.688,0.51,25.894,2.811c15.255,4.279,26.186,14.598,27.291,30.284C140.144,44.149,139.587,54.572,140.334,64.09z
				 M40.66,4.951c-9.495,2.097-17.96,3.578-24.583,9.351C8.581,20.835,5.578,29.457,5.082,38.488
				C4.38,51.276,4.897,64.124,4.907,76.946c0.005,5.586-0.188,11.183,0.135,16.754c0.327,5.642,0.783,11.327,1.893,16.87
				c1.788,8.928,5.369,16.927,14.078,22.335c6.852,4.255,14.045,5.481,22.124,5.191c12.301-0.441,24.64,0.087,36.95-0.222
				c9.114-0.228,18.269-0.713,27.293-1.861c8.097-1.03,15.199-4.732,20.274-10.812c6.397-7.665,7.747-16.856,7.882-26.285
				c0.094-6.534,0.607-13.07,0.465-19.597c-0.34-15.691-0.03-31.465-1.762-47.034c-1.31-11.773-7.794-21.86-21.26-25.085
				c-8.698-2.084-17.836-3.395-26.8-3.51C70.667,3.49,55.138,4.489,40.66,4.951z"/>
			<path d="M69.416,54.951c9.375-1.193,19.32,7.339,20.557,16.398c0.541,3.958-5.804,12.397-10.431,14.209
				c-7.61,2.981-15.423,3.273-22.978,0.568c-8.509-3.047-15.127-15.263-5.703-24.912C54.71,57.274,59.207,54.924,69.416,54.951z
				 M85.221,72.113c0.003-8.759-8.911-16.067-17.569-14.421c-1.69,0.321-3.387,0.681-5.1,0.815
				c-6.202,0.485-11.957,5.727-13.118,12.055c-0.918,5.009,2.366,10.713,8.356,12.352c4.795,1.312,10.166,2.072,15.065,1.491
				C81.208,83.415,85.219,78.76,85.221,72.113z"/>
			<path d="M101.724,113.556c-4.436,0.01-7.708-2.95-7.795-7.055c-0.123-5.766,4.379-10.032,10.488-9.935
				c2.798,0.044,7.988,6.065,7.839,9.095C112.071,109.415,106.562,113.545,101.724,113.556z M107.536,105.728
				c0.39-3.568-2.212-5.337-5.021-5.405c-2.828-0.069-4.996,1.793-4.821,5.171c0.144,2.767,0.374,5.214,4.08,5.355
				C105.534,110.992,107.005,108.746,107.536,105.728z"/>
			<path d="M36.563,28.79c4.459,0.06,8.884,3.827,8.932,7.604c0.051,4.012-5.188,9.23-9.268,9.23c-4.473,0-9.1-4.18-8.924-8.064
				C27.511,32.913,31.932,28.727,36.563,28.79z M40.604,36.866c0.856-3.349-1.081-4.566-4.385-4.479
				c-3.186,0.084-5.377,1.693-5.418,4.631c-0.034,2.442,0.45,5.555,4.249,5.189C38.078,41.915,41.834,41.499,40.604,36.866z"/>
			<path d="M44.561,108.407c-0.038,3.572-4.45,8.439-7.693,8.241c-6.997-0.428-10.25-4.009-9.757-8.945
				c0.45-4.504,3.972-8.42,8.204-8.306C39.947,99.521,44.608,104.063,44.561,108.407z M40.841,106.928
				c-1.227-0.911-3.784-3.924-5.055-3.509c-2.309,0.753-4.798,3.298-5.476,5.55c-0.817,2.711,1.701,4.812,4.859,4.509
				C38.074,113.2,40.693,111.915,40.841,106.928z"/>
			<path d="M103.248,26.985c3.526,0.035,8.782,4.741,8.916,7.983c0.151,3.656-6.002,8.354-10.766,8.219
				c-3.905-0.11-7.478-3.997-7.469-8.124C93.938,30.489,98.039,26.934,103.248,26.985z M107.569,35.059
				c-0.354-2.883-1.798-5.665-5.068-5.124c-1.842,0.305-4.372,3.258-4.405,5.053c-0.033,1.81,2.482,5.014,4.165,5.186
				C104.913,40.446,107.755,38.649,107.569,35.059z"/>
			<path style="fill:#F15A29;" d="M85.221,72.113c-0.002,6.647-4.013,11.302-12.365,12.292c-4.899,0.581-10.27-0.18-15.065-1.491
				c-5.99-1.639-9.274-7.343-8.356-12.352c1.16-6.327,6.916-11.57,13.118-12.055c1.713-0.134,3.41-0.494,5.1-0.815
				C76.31,56.046,85.224,63.354,85.221,72.113z M67.756,81.518c0.033-0.149,0.067-0.299,0.1-0.448c1.287,0,2.586,0.107,3.858-0.019
				c4.916-0.486,9.381-3.676,10.363-7.795c0.923-3.871-0.918-7.033-4.205-9.271c-7.168-4.88-16.492-3.151-21.508,1.927
				c-4.067,4.117-5.002,10.137,1.815,13.617C60.934,80.935,64.538,80.898,67.756,81.518z"/>
			<path style="fill:#39B54A;" d="M107.536,105.728c-0.531,3.018-2.002,5.264-5.761,5.121c-3.706-0.141-3.936-2.589-4.08-5.355
				c-0.176-3.378,1.992-5.24,4.821-5.171C105.324,100.391,107.926,102.16,107.536,105.728z"/>
			<path style="fill:#39B54A;" d="M40.604,36.866c1.23,4.634-2.526,5.05-5.553,5.341c-3.799,0.366-4.283-2.747-4.249-5.189
				c0.041-2.938,2.232-4.547,5.418-4.631C39.523,32.299,41.46,33.516,40.604,36.866z"/>
			<path style="fill:#754B9E;" d="M40.841,106.928c-0.148,4.987-2.767,6.271-5.672,6.55c-3.158,0.302-5.676-1.798-4.859-4.509
				c0.678-2.252,3.166-4.796,5.476-5.55C37.057,103.004,39.613,106.017,40.841,106.928z"/>
			<path style="fill:#754B9E;" d="M107.569,35.059c0.186,3.59-2.656,5.386-5.307,5.116c-1.683-0.172-4.198-3.376-4.165-5.186
				c0.032-1.795,2.563-4.748,4.405-5.053C105.772,29.394,107.215,32.176,107.569,35.059z"/>
			<path d="M67.756,81.518c-3.218-0.62-6.821-0.583-9.578-1.99c-6.818-3.48-5.883-9.5-1.815-13.617
				c5.016-5.078,14.34-6.807,21.508-1.927c3.288,2.238,5.128,5.4,4.205,9.271c-0.982,4.12-5.446,7.31-10.363,7.795
				c-1.272,0.126-2.571,0.019-3.858,0.019C67.823,81.22,67.789,81.369,67.756,81.518z M66.632,78.373
				c0.024,0.118,0.048,0.236,0.072,0.353c1.986-0.391,4.239-0.362,5.893-1.276c2.194-1.212,4.827-2.841,5.648-4.863
				c1.395-3.437-1.343-5.507-4.486-7.299c-4.573-2.608-8.719-0.957-12.49,0.952c-2.165,1.097-4.734,3.8-4.741,5.787
				c-0.011,3.318,3.07,5.543,6.74,6.312C64.338,78.563,65.508,78.373,66.632,78.373z"/>
		</g>
	</g>
</g>
<g id="Layer_1">
</g>
</svg>
