<?xml version="1.0" encoding="UTF-8" standalone="yes"?>
<svg version="1.1" xmlns="http://www.w3.org/2000/svg" xmlns:xlink="http://www.w3.org/1999/xlink" x="0px" y="0px" viewBox="0 0 144 144" style="enable-background:new 0 0 144 144;" xml:space="preserve">
  <g id="pill_x5F_half_x5F_green"/>
  <g id="pill_x5F_segment_x5F_green"/>
  <g id="virus_x5F_green"/>
  <g id="pill_x5F_half_x5F_orange"/>
  <g id="pill_x5F_segment_x5F_orange"/>
  <g id="virus_x5F_orange"/>
  <g id="pill_x5F_segment_x5F_purple"/>
  <g id="pill_x5F_half_x5F_purple"/>
  <g id="virus_x5F_purple"/>
  <g id="destroyed">
    <g id="qQjBR4.tif">
      <g>
        <path d="M142.7,65.003c-0.558,8.016,0.471,14.014,0.236,21.533c-0.236,7.518,0.393,19.094-2.415,28.222&#xA;&#x9;&#x9;&#x9;&#x9;c-1.531,4.976-5.07,9.577-8.386,13.902c-6.174,8.052-15.253,10.958-25.654,11.499c-12.313,0.64-24.586,2.184-36.901,2.47&#xA;&#x9;&#x9;&#x9;&#x9;c-12.611,0.293-25.31,0.098-37.845-1.047c-4.626-0.423-9.176-3.795-13.272-6.461c-10.786-7.021-13.8-17.562-14.659-29&#xA;&#x9;&#x9;&#x9;&#x9;c-0.439-5.852-1.666-11.675-1.777-17.524C1.75,74.106,1.684,59.604,2.012,45.116c0.123-5.427,1.044-10.955,2.52-16.218&#xA;&#x9;&#x9;&#x9;&#x9;C8.401,15.105,18.952,7.383,33.421,4.107c5.682-1.287,11.683-1.624,17.565-1.862C63.426,1.74,75.893,1.178,88.33,1.425&#xA;&#x9;&#x9;&#x9;&#x9;c8.709,0.174,17.761,0.506,26,2.792c15.317,4.249,26.293,14.496,27.403,30.071C142.51,45.203,141.95,55.552,142.7,65.003z&#xA;&#x9;&#x9;&#x9;&#x9; M42.618,6.282c-9.534,2.082-18.033,3.553-24.684,9.285C10.408,22.053,7.393,30.614,6.895,39.581&#xA;&#x9;&#x9;&#x9;&#x9;C6.189,52.28,6.709,65.037,6.719,77.768c0.005,5.546-0.189,11.104,0.135,16.635c0.328,5.603,0.786,11.248,1.901,16.751&#xA;&#x9;&#x9;&#x9;&#x9;c1.795,8.865,5.391,16.807,14.135,22.177c6.88,4.225,14.103,5.442,22.214,5.155c12.352-0.437,24.74,0.086,37.101-0.22&#xA;&#x9;&#x9;&#x9;&#x9;c9.151-0.227,18.344-0.708,27.404-1.848c8.13-1.023,15.261-4.699,20.357-10.736c6.424-7.611,7.779-16.737,7.915-26.1&#xA;&#x9;&#x9;&#x9;&#x9;c0.094-6.488,0.609-12.978,0.467-19.459c-0.342-15.58-0.03-31.244-1.77-46.703c-1.315-11.69-7.826-21.705-21.347-24.908&#xA;&#x9;&#x9;&#x9;&#x9;c-8.734-2.069-17.909-3.371-26.909-3.486C72.748,4.83,57.156,5.822,42.618,6.282z"/>
        <path d="M71.492,55.929c9.414-1.185,19.399,7.287,20.642,16.282c0.543,3.93-5.828,12.31-10.473,14.109&#xA;&#x9;&#x9;&#x9;&#x9;c-7.641,2.96-15.486,3.25-23.073,0.564c-8.544-3.025-15.189-15.155-5.726-24.736C56.725,58.235,61.241,55.902,71.492,55.929z&#xA;&#x9;&#x9;&#x9;&#x9; M87.362,72.969c0.003-8.697-8.947-15.954-17.641-14.319c-1.697,0.319-3.401,0.676-5.121,0.809&#xA;&#x9;&#x9;&#x9;&#x9;c-6.227,0.481-12.006,5.687-13.171,11.97c-0.922,4.973,2.376,10.638,8.39,12.265c4.815,1.303,10.207,2.058,15.127,1.481&#xA;&#x9;&#x9;&#x9;&#x9;C83.333,84.192,87.359,79.569,87.362,72.969z"/>
        <path d="M103.932,114.121c-4.455,0.01-7.739-2.929-7.827-7.005c-0.124-5.726,4.397-9.961,10.53-9.865&#xA;&#x9;&#x9;&#x9;&#x9;c2.809,0.044,8.02,6.023,7.871,9.031C114.321,110.009,108.791,114.11,103.932,114.121z M109.768,106.348&#xA;&#x9;&#x9;&#x9;&#x9;c0.391-3.543-2.221-5.299-5.042-5.367c-2.84-0.069-5.017,1.78-4.84,5.135c0.145,2.747,0.376,5.177,4.097,5.318&#xA;&#x9;&#x9;&#x9;&#x9;C107.758,111.575,109.235,109.345,109.768,106.348z"/>
        <path d="M38.504,29.952c4.478,0.06,8.92,3.8,8.968,7.55c0.051,3.984-5.21,9.165-9.306,9.165c-4.492,0-9.137-4.151-8.961-8.008&#xA;&#x9;&#x9;&#x9;&#x9;C29.416,34.046,33.855,29.89,38.504,29.952z M42.562,37.971c0.86-3.326-1.086-4.534-4.403-4.447&#xA;&#x9;&#x9;&#x9;&#x9;c-3.199,0.084-5.399,1.681-5.44,4.598c-0.034,2.425,0.452,5.516,4.267,5.153C40.025,42.985,43.797,42.572,42.562,37.971z"/>
        <path d="M46.535,109.008c-0.039,3.547-4.469,8.38-7.725,8.183c-7.025-0.425-10.292-3.981-9.797-8.882&#xA;&#x9;&#x9;&#x9;&#x9;c0.452-4.472,3.989-8.361,8.237-8.248C41.902,100.185,46.582,104.695,46.535,109.008z M42.8,107.539&#xA;&#x9;&#x9;&#x9;&#x9;c-1.232-0.905-3.8-3.896-5.076-3.485c-2.319,0.748-4.817,3.275-5.498,5.511c-0.82,2.692,1.708,4.778,4.879,4.477&#xA;&#x9;&#x9;&#x9;&#x9;C40.021,113.767,42.651,112.492,42.8,107.539z"/>
        <path d="M105.462,28.16c3.54,0.035,8.818,4.708,8.952,7.927c0.152,3.631-6.026,8.295-10.81,8.161&#xA;&#x9;&#x9;&#x9;&#x9;c-3.921-0.109-7.509-3.968-7.5-8.067C96.115,31.639,100.232,28.109,105.462,28.16z M109.801,36.177&#xA;&#x9;&#x9;&#x9;&#x9;c-0.355-2.863-1.805-5.625-5.088-5.088c-1.85,0.303-4.39,3.235-4.423,5.018c-0.033,1.797,2.492,4.979,4.182,5.15&#xA;&#x9;&#x9;&#x9;&#x9;C107.135,41.526,109.988,39.742,109.801,36.177z"/>
        <path style="fill:#F15A29;" d="M87.362,72.969c-0.002,6.6-4.029,11.222-12.416,12.205c-4.919,0.577-10.312-0.178-15.127-1.481&#xA;&#x9;&#x9;&#x9;&#x9;c-6.014-1.627-9.312-7.291-8.39-12.265c1.165-6.283,6.944-11.489,13.171-11.97c1.72-0.133,3.424-0.49,5.121-0.809&#xA;&#x9;&#x9;&#x9;&#x9;C78.415,57.016,87.365,64.272,87.362,72.969z M69.825,82.309c0.033-0.148,0.067-0.297,0.1-0.445c1.292,0,2.596,0.106,3.874-0.019&#xA;&#x9;&#x9;&#x9;&#x9;c4.937-0.482,9.419-3.65,10.405-7.74c0.927-3.844-0.922-6.983-4.223-9.206c-7.197-4.846-16.559-3.129-21.596,1.913&#xA;&#x9;&#x9;&#x9;&#x9;c-4.084,4.088-5.023,10.066,1.822,13.521C62.976,81.73,66.594,81.693,69.825,82.309z"/>
        <path style="fill:#39B54A;" d="M109.768,106.348c-0.533,2.997-2.01,5.227-5.785,5.085c-3.722-0.14-3.953-2.57-4.097-5.318&#xA;&#x9;&#x9;&#x9;&#x9;c-0.177-3.354,2-5.203,4.84-5.135C107.547,101.049,110.159,102.805,109.768,106.348z"/>
        <path style="fill:#39B54A;" d="M42.562,37.971c1.235,4.601-2.537,5.014-5.576,5.303c-3.815,0.363-4.301-2.727-4.267-5.153&#xA;&#x9;&#x9;&#x9;&#x9;c0.041-2.917,2.241-4.515,5.44-4.598C41.476,33.437,43.422,34.645,42.562,37.971z"/>
        <path style="fill:#754B9E;" d="M42.8,107.539c-0.148,4.952-2.778,6.227-5.695,6.503c-3.171,0.3-5.699-1.785-4.879-4.477&#xA;&#x9;&#x9;&#x9;&#x9;c0.681-2.236,3.179-4.763,5.498-5.511C39,103.643,41.567,106.635,42.8,107.539z"/>
        <path style="fill:#754B9E;" d="M109.801,36.177c0.186,3.565-2.667,5.348-5.329,5.079c-1.69-0.171-4.215-3.352-4.182-5.15&#xA;&#x9;&#x9;&#x9;&#x9;c0.033-1.782,2.573-4.715,4.423-5.018C107.996,30.552,109.446,33.315,109.801,36.177z"/>
        <path d="M69.825,82.309c-3.231-0.616-6.849-0.579-9.617-1.976c-6.845-3.455-5.907-9.433-1.822-13.521&#xA;&#x9;&#x9;&#x9;&#x9;c5.037-5.042,14.399-6.759,21.596-1.913c3.301,2.223,5.149,5.362,4.223,9.206c-0.986,4.091-5.469,7.258-10.405,7.74&#xA;&#x9;&#x9;&#x9;&#x9;c-1.278,0.125-2.582,0.019-3.874,0.019C69.892,82.012,69.859,82.161,69.825,82.309z M68.696,79.186&#xA;&#x9;&#x9;&#x9;&#x9;c0.024,0.117,0.048,0.234,0.072,0.351c1.994-0.388,4.256-0.36,5.917-1.267c2.203-1.204,4.846-2.821,5.671-4.829&#xA;&#x9;&#x9;&#x9;&#x9;c1.401-3.413-1.349-5.468-4.504-7.248c-4.592-2.59-8.755-0.95-12.541,0.946c-2.174,1.089-4.753,3.773-4.76,5.746&#xA;&#x9;&#x9;&#x9;&#x9;c-0.011,3.295,3.082,5.504,6.768,6.267C66.393,79.374,67.568,79.186,68.696,79.186z"/>
      </g>
    </g>
  </g>
  <g id="nyt_x5F_exporter_x5F_info" style="display:none;"/>
</svg>