<?xml version="1.0" encoding="UTF-8" standalone="yes"?>
<svg version="1.1" xmlns="http://www.w3.org/2000/svg" xmlns:xlink="http://www.w3.org/1999/xlink" x="0px" y="0px" viewBox="0 0 144 144" style="enable-background:new 0 0 144 144;" xml:space="preserve">
  <g id="pill_x5F_half_x5F_green">
    <g>
      <path d="M105.602,59.838c6.425-10.459,7.454-20.129,1.717-30.241c-4.155-7.324-11.056-11.333-19.191-13.826&#xA;&#x9;&#x9;&#x9;c-2.051-0.629-4.593-0.869-5.98-2.153c-1.924-1.78-3.918-4.361-4.059-6.631c-0.094-1.516,2.78-4.19,4.679-4.425&#xA;&#x9;&#x9;&#x9;c5.137-0.636,10.496-0.68,15.705-0.152c6.084,0.617,12.333,1.422,18.104,3.324c13.074,4.308,20.086,13.822,22.44,25.977&#xA;&#x9;&#x9;&#x9;c1.613,8.33,2.555,16.837,2.745,25.247c0.349,15.416,0.244,46.22,0.244,46.22V144H2.028V92.734c0,0-0.665-18.665,0.053-27.859&#xA;&#x9;&#x9;&#x9;C3.126,51.503,2.19,37.786,6.863,24.92C11.023,13.466,18.155,4.848,32.264,3.51c8.501-0.806,17.029-1.46,25.571-1.946&#xA;&#x9;&#x9;&#x9;c2.058-0.117,4.455,0.28,6.262,1.208c1.855,0.953,4.561,3.026,4.422,4.287c-0.229,2.074-2.074,4.332-3.945,5.68&#xA;&#x9;&#x9;&#x9;c-1.646,1.186-4.221,1.444-6.457,1.746C40.4,16.882,31,31.202,34.288,47.705c0.978,4.911,3.829,8.112,6.626,11.069&#xA;&#x9;&#x9;&#x9;c1.765-4.598,2.911-9.47,5.394-13.619c3.962-6.618,10.229-10.459,18.987-10.311c2.088,0.035,4.146-0.883,6.239-1.279&#xA;&#x9;&#x9;&#x9;c0.745-0.141,1.616-0.222,2.325-0.004c6.642,2.04,13.512,3.624,19.818,6.388c6.515,2.855,9.322,8.698,10.659,15.038&#xA;&#x9;&#x9;&#x9;C104.617,56.319,105.021,57.631,105.602,59.838z M136.147,78.905c0.086-13.305,1.169-26.658-0.137-39.894&#xA;&#x9;&#x9;&#x9;c-0.721-7.299-4.528-14.873-8.621-21.465c-4.723-7.606-13.819-9.427-22.478-10.587c-5.293-0.709-10.675-0.957-15.998-0.958&#xA;&#x9;&#x9;&#x9;c-2.587,0-6.995,0.519-7.339,1.714c-0.97,3.368,3.084,3.797,5.531,4.463c7.31,1.991,14.037,4.278,19.566,9.983&#xA;&#x9;&#x9;&#x9;c5.19,5.354,8.303,11.282,8.868,17.897c1.345,15.747-10.109,29.707-26.772,33.008c-1.926,0.382-3.993,0.335-5.999,0.311&#xA;&#x9;&#x9;&#x9;c-13.293-0.159-26.22,0.658-38.824-7.166c-10.457-6.492-13.773-14.694-14.612-24.815c-1.114-13.441,9.774-27.563,25.942-30.193&#xA;&#x9;&#x9;&#x9;c1.791-0.291,3.826-0.041,5.366-0.734c1.193-0.537,1.788-2.155,2.649-3.292c-1.329-0.72-2.694-2.071-3.982-2.054&#xA;&#x9;&#x9;&#x9;c-6.37,0.081-12.735,0.408-19.075,0.86C23.444,7.179,14.423,14.38,10.05,28.101c-2.655,8.331-3.066,17.522-3.272,26.395&#xA;&#x9;&#x9;&#x9;C6.434,69.378,6.826,84.313,7.396,99.227c0.21,5.506,0.888,11.301,2.945,16.466c4.409,11.066,14.14,17.627,25.575,21.534&#xA;&#x9;&#x9;&#x9;c4.718,1.612,10.163,1.22,15.281,1.695c5.723,0.531,11.459,1.358,17.174,1.432c7.893,0.102,15.822-0.028,23.641-0.714&#xA;&#x9;&#x9;&#x9;c7.275-0.638,14.694-1.415,21.578-3.401c13.924-4.017,20.619-14.285,22.14-27.088C136.911,99.211,136.083,88.995,136.147,78.905z&#xA;&#x9;&#x9;&#x9; M55.992,66.682c1.495-13.782,5.594-18.525,15.682-18.425c10.627,0.104,15.229,5.123,18.233,20.5&#xA;&#x9;&#x9;&#x9;c2.832-1.326,5.805-2.181,7.958-3.908c1.521-1.22,2.665-3.58,2.711-5.502c0.217-9.017-5.082-17.277-17.509-19.642&#xA;&#x9;&#x9;&#x9;c-2.881-0.548-5.878-0.476-8.746-1.066c-12.564-2.587-26.214,3.384-28.223,16.305C44.875,62.811,47.073,65.738,55.992,66.682z&#xA;&#x9;&#x9;&#x9; M85.522,63.417c-0.065-0.238-0.254-1.671-0.845-2.958c-1.992-4.338-7.645-8.659-14.812-7.681&#xA;&#x9;&#x9;&#x9;c-6.638,0.905-9.972,4.364-10.694,10.648c-0.346,3.011,0.592,4.488,4.291,4.628c4.874,0.184,9.765,0.882,14.616,1.61&#xA;&#x9;&#x9;&#x9;C82.659,70.352,85.464,68.588,85.522,63.417z"/>
      <path style="fill:#39B54A;" d="M138,78.903c-0.065,10.092,0.431,20.308-0.75,30.248c0,13.227,1.552,28.473-1.124,30.348&#xA;&#x9;&#x9;&#x9;s-27.232-0.496-34.507,0.141c-7.82,0.685-25.355,0.816-33.248,0.714c-5.714-0.074-22.521-0.2-28.245-0.731&#xA;&#x9;&#x9;&#x9;c-5.622,0.253-28.751,0.878-31.501-1.247s-2.353-32.307-2.564-37.814c-0.57-14.914,0.372-31.184,0.716-46.066&#xA;&#x9;&#x9;&#x9;c0.205-8.873,0.616-18.064,3.272-26.395C14.423,14.38,23.444,7.179,40.232,5.982c6.34-0.452,12.705-0.779,19.075-0.86&#xA;&#x9;&#x9;&#x9;c1.288-0.016,2.653,1.334,3.982,2.054c-0.861,1.137-1.456,2.755-2.649,3.292c-1.539,0.693-3.575,0.443-5.366,0.734&#xA;&#x9;&#x9;&#x9;c-16.167,2.631-27.056,16.752-25.942,30.193c0.839,10.121,4.155,18.324,14.612,24.815c12.603,7.824,25.531,7.008,38.824,7.166&#xA;&#x9;&#x9;&#x9;c2.006,0.024,4.073,0.071,5.999-0.311c16.663-3.3,28.116-17.26,26.772-33.008c-0.565-6.614-3.678-12.542-8.868-17.897&#xA;&#x9;&#x9;&#x9;c-5.529-5.704-12.256-7.992-19.566-9.983c-2.447-0.666-6.501-1.095-5.531-4.463c0.344-1.195,4.752-1.714,7.339-1.714&#xA;&#x9;&#x9;&#x9;c5.323,0,10.705,0.248,15.998,0.958c8.659,1.16,17.754,2.981,22.478,10.587c4.094,6.592,7.901,14.166,8.621,21.465&#xA;&#x9;&#x9;&#x9;C137.316,52.246,138.085,65.6,138,78.903z"/>
      <path style="fill:#006838;" d="M55.992,66.682c-8.919-0.943-11.117-3.871-9.894-11.738c2.008-12.92,15.659-18.891,28.223-16.305&#xA;&#x9;&#x9;&#x9;c2.868,0.591,5.865,0.518,8.746,1.066c12.426,2.364,17.725,10.624,17.509,19.642c-0.046,1.922-1.19,4.282-2.711,5.502&#xA;&#x9;&#x9;&#x9;c-2.153,1.727-5.126,2.582-7.958,3.908c-3.004-15.377-7.606-20.396-18.233-20.5C61.586,48.157,57.487,52.9,55.992,66.682z"/>
      <path style="fill:#8DC63F;" d="M85.522,63.417c-0.059,5.171-2.863,6.935-7.443,6.247c-4.85-0.729-9.741-1.426-14.616-1.61&#xA;&#x9;&#x9;&#x9;c-3.699-0.14-4.637-1.617-4.291-4.628c0.721-6.284,4.056-9.742,10.694-10.648c7.166-0.977,12.82,3.343,14.812,7.681&#xA;&#x9;&#x9;&#x9;C85.268,61.746,85.457,63.179,85.522,63.417z"/>
    </g>
  </g>
  <g id="pill_x5F_segment_x5F_green"/>
  <g id="virus_x5F_green"/>
  <g id="pill_x5F_half_x5F_orange"/>
  <g id="pill_x5F_segment_x5F_orange"/>
  <g id="virus_x5F_orange"/>
  <g id="pill_x5F_segment_x5F_purple"/>
  <g id="pill_x5F_half_x5F_purple"/>
  <g id="virus_x5F_purple"/>
  <g id="destroyed"/>
  <g id="nyt_x5F_exporter_x5F_info" style="display:none;"/>
</svg>