<?xml version="1.0" encoding="UTF-8" standalone="yes"?>
<svg version="1.1" xmlns="http://www.w3.org/2000/svg" xmlns:xlink="http://www.w3.org/1999/xlink" x="0px" y="0px" viewBox="0 0 144 144" style="enable-background:new 0 0 144 144;" xml:space="preserve">
  <g id="pill_x5F_half_x5F_green"/>
  <g id="pill_x5F_segment_x5F_green"/>
  <g id="virus_x5F_green"/>
  <g id="pill_x5F_half_x5F_orange"/>
  <g id="pill_x5F_segment_x5F_orange"/>
  <g id="virus_x5F_orange"/>
  <g id="pill_x5F_segment_x5F_purple">
    <g>
      <g id="XMLID_2_">
        <g>
          <path d="M135.712,51.855c6.48,16.815,8.211,33.726,3.827,51.364c-2.658,10.701-7.71,19.874-15.688,27.284&#xA;&#x9;&#x9;&#x9;&#x9;&#x9;c-9.088,8.441-20.251,13.303-33.419,13.291c-12.318-0.012-24.626,0.363-36.934,0.432c-14.237,0.081-26.037-4.757-35.836-15.001&#xA;&#x9;&#x9;&#x9;&#x9;&#x9;c-7.574-7.92-12.476-16.852-14.389-27.102C1.291,91.487,2.534,80.868,5.618,70.462c2.518-8.447,5.214-16.874,7.248-25.443&#xA;&#x9;&#x9;&#x9;&#x9;&#x9;c1.557-6.59,1.858-13.292-1.571-19.379l2.444-0.716c5.673,10.38,3.371,21.06-0.079,31.405&#xA;&#x9;&#x9;&#x9;&#x9;&#x9;c-5.015,15.038-9.526,29.759-6.657,46.036c3.441,19.561,21.021,37.705,43.192,38.405c13.97,0.44,28-1.028,41.96-0.527&#xA;&#x9;&#x9;&#x9;&#x9;&#x9;c14.088,0.491,32.964-12.914,38.739-23.699c6.151-11.479,7.286-23.505,7.482-35.929c0.155-10.424-2.54-20.163-6.66-29.82&#xA;&#x9;&#x9;&#x9;&#x9;&#x9;c-3.132-7.372-4.591-15.236-2.35-23.305c1.339-4.825,2.529-9.814-1.624-14.391c-1.129,1.704-2.02,3.51-2.961,5.122l-2.671-0.416&#xA;&#x9;&#x9;&#x9;&#x9;&#x9;c1.109-0.929,0.616-3.407,1.546-4.744c1.198-1.735,2.871-3.48,4.781-4.256c0.643-0.266,3.026,2.181,3.916,3.751&#xA;&#x9;&#x9;&#x9;&#x9;&#x9;c2.55,4.496,2.408,9.209,0.496,13.922C129.242,35.367,132.541,43.636,135.712,51.855z"/>
          <path style="fill:#7D54A2;" d="M131.715,50.797c4.12,9.657,6.815,19.396,6.66,29.82c-0.196,12.424-1.331,24.45-7.482,35.929&#xA;&#x9;&#x9;&#x9;&#x9;&#x9;c-5.775,10.785-24.65,24.189-38.739,23.699c-13.96-0.501-27.99,0.967-41.96,0.527c-22.171-0.7-39.751-18.844-43.192-38.405&#xA;&#x9;&#x9;&#x9;&#x9;&#x9;C4.134,86.089,8.645,71.368,13.66,56.33c3.449-10.345,5.751-21.026,0.079-31.405c-0.356-0.653-0.741-1.305-1.156-1.947&#xA;&#x9;&#x9;&#x9;&#x9;&#x9;c-0.83-1.295-0.671-3.162-0.977-4.752c1.632,0.04,3.8-0.543,4.788,0.242c3.56,2.833,8.159,5.574,9.759,9.347&#xA;&#x9;&#x9;&#x9;&#x9;&#x9;c3.813,8.994,3.897,18.408,1.496,28.13c-1.627,6.59-2.027,13.455-2.723,20.269c-0.229,2.275-0.497,4.539-0.855,6.783&#xA;&#x9;&#x9;&#x9;&#x9;&#x9;c-1.103,6.998-0.889,13.883,1.155,20.613c4.483,14.817,15.58,20.828,29.676,24.012c6.786,1.536,10.132-1.638,10.463-9.472&#xA;&#x9;&#x9;&#x9;&#x9;&#x9;c0.201-4.896-1.686-9.872-1.524-14.768c0.222-6.589,0.552-13.434,2.525-19.677c4.193-13.211,7.298-26.249,3.191-40.067&#xA;&#x9;&#x9;&#x9;&#x9;&#x9;c-0.395-1.316,1.07-3.122,1.972-5.499c5.409,5.178,7.988,10.725,7.786,16.539c-0.342,9.517-2.327,18.963-2.916,28.48&#xA;&#x9;&#x9;&#x9;&#x9;&#x9;c-0.31,4.927,0.32,10.077,1.534,14.911c1.688,6.67,4.761,12.839,3.025,20.204c-1.349,5.692,4.358,8.738,12.471,7.407&#xA;&#x9;&#x9;&#x9;&#x9;&#x9;c14.229-2.325,25.801-13.684,28.204-27.864c0.228-1.347,0.437-2.683,0.606-4.029c1.67-12.312,1.311-24.552-0.996-36.77&#xA;&#x9;&#x9;&#x9;&#x9;&#x9;c-0.828-4.355-2.745-8.627-4.721-12.696c-3.686-7.607-2.938-16.583,4.921-22.086c1.376-0.96,2.386-2.388,3.337-4.011&#xA;&#x9;&#x9;&#x9;&#x9;&#x9;c0.941-1.612,1.832-3.418,2.961-5.122c4.153,4.577,2.962,9.566,1.624,14.391C127.124,35.562,128.584,43.425,131.715,50.797z&#xA;&#x9;&#x9;&#x9;&#x9;&#x9; M130.897,94.82c2.402-12.884-0.212-25.153-2.906-37.523c-1.677-7.7-4.116-15.256-5.625-22.977&#xA;&#x9;&#x9;&#x9;&#x9;&#x9;c-0.503-2.621,0.805-5.549,1.47-9.466c-1.168,1.408-1.643,1.827-1.931,2.347c-4.021,7.326-1.295,14.434,1.105,21.48&#xA;&#x9;&#x9;&#x9;&#x9;&#x9;c6.163,18.152,8.773,36.418,3.29,55.158c-3.639,12.436-10.906,21.692-24.186,25.607c-5.492,1.615-11.3,2.261-18.306,3.612&#xA;&#x9;&#x9;&#x9;&#x9;&#x9;c1.751,0.621,2.572,1.182,3.363,1.15c2.77-0.124,5.541-0.35,8.291-0.699c10.488-1.333,19.168-5.551,25.544-13.868&#xA;&#x9;&#x9;&#x9;&#x9;&#x9;C126.731,112.183,129.209,103.858,130.897,94.82z M59.034,135.533c0.91-0.052,1.781-0.776,2.662-1.195&#xA;&#x9;&#x9;&#x9;&#x9;&#x9;c-0.979-0.53-1.928-1.386-2.967-1.508c-2.829-0.335-5.728-0.109-8.538-0.535c-10.922-1.645-19.288-7.046-25.724-15.65&#xA;&#x9;&#x9;&#x9;&#x9;&#x9;c-8.205-10.949-9.79-23.463-8.981-36.071c0.569-8.721,3.691-17.271,5.477-25.942c2.342-11.283,5.643-22.698-3.215-33.045&#xA;&#x9;&#x9;&#x9;&#x9;&#x9;c-0.475,0.102-0.94,0.205-1.415,0.307c0.217,0.938,0.276,1.948,0.691,2.794c0.751,1.529,2.036,2.885,2.54,4.466&#xA;&#x9;&#x9;&#x9;&#x9;&#x9;c2.38,7.567,0.901,14.963-0.776,22.45c-2.133,9.569-4.108,19.199-5.42,28.9c-1.541,11.394,0.56,22.245,6.104,32.768&#xA;&#x9;&#x9;&#x9;&#x9;&#x9;C27.457,128.434,43.698,136.512,59.034,135.533z"/>
          <path d="M127.991,57.297c2.693,12.371,5.308,24.639,2.906,37.523c-1.687,9.038-4.166,17.363-9.889,24.823&#xA;&#x9;&#x9;&#x9;&#x9;&#x9;c-6.377,8.317-15.056,12.535-25.544,13.868c-2.751,0.349-5.521,0.575-8.291,0.699c-0.792,0.031-1.612-0.529-3.363-1.15&#xA;&#x9;&#x9;&#x9;&#x9;&#x9;c7.006-1.351,12.814-1.997,18.306-3.612c13.28-3.915,20.547-13.171,24.186-25.607c5.483-18.741,2.872-37.007-3.29-55.158&#xA;&#x9;&#x9;&#x9;&#x9;&#x9;c-2.4-7.047-5.126-14.154-1.105-21.48c0.287-0.52,0.762-0.939,1.931-2.347c-0.665,3.917-1.973,6.845-1.47,9.466&#xA;&#x9;&#x9;&#x9;&#x9;&#x9;C123.875,42.041,126.314,49.597,127.991,57.297z"/>
          <path d="M122.109,17.807l2.671,0.416c-0.951,1.622-1.961,3.051-3.337,4.011c-7.859,5.503-8.607,14.479-4.921,22.086&#xA;&#x9;&#x9;&#x9;&#x9;&#x9;c1.976,4.068,3.893,8.341,4.721,12.696c2.308,12.218,2.666,24.457,0.996,36.77l-2.493-0.355c0.308-2.203,0.448-4.468,0.42-6.783&#xA;&#x9;&#x9;&#x9;&#x9;&#x9;c-0.055-6.762,0.463-13.576-0.314-20.267c-1.073-9.261-3.095-18.378-11.996-24.451c-4.905-3.363-9.474-7.164-14.201-10.762&#xA;&#x9;&#x9;&#x9;&#x9;&#x9;C85.884,25.235,80.051,18.11,77.83,8.625l2.533-1.011c3.013,8.26,7.619,15.366,15.204,20.696&#xA;&#x9;&#x9;&#x9;&#x9;&#x9;c4.955,3.485,9.85,7.072,15.882,11.414C110.111,29.596,115.378,23.411,122.109,17.807z"/>
          <path d="M119.748,93.43l2.493,0.355c-0.169,1.346-0.378,2.683-0.606,4.029c-2.403,14.179-13.976,25.539-28.204,27.864&#xA;&#x9;&#x9;&#x9;&#x9;&#x9;c-8.114,1.331-13.821-1.715-12.471-7.407c1.736-7.365-1.337-13.534-3.025-20.204c-1.214-4.834-1.844-9.984-1.534-14.911&#xA;&#x9;&#x9;&#x9;&#x9;&#x9;c0.59-9.517,2.574-18.963,2.916-28.48c0.201-5.814-2.377-11.361-7.786-16.539l-2.186-0.172c0.426-0.49,0.881-0.919,1.366-1.235&#xA;&#x9;&#x9;&#x9;&#x9;&#x9;c2.742-1.797,5.234,0.405,7.003,2.709c4.824,6.28,5.7,13.593,5.359,20.906c-0.271,6.049-2.095,12.007-2.574,18.066&#xA;&#x9;&#x9;&#x9;&#x9;&#x9;c-0.429,5.437-0.907,11.149,0.336,16.381c1.964,8.22,4.907,16.174,3.764,24.804c-0.109,0.877,1.581,2.845,2.412,2.844&#xA;&#x9;&#x9;&#x9;&#x9;&#x9;c9.231-0.057,17.711-2.276,23.83-9.348C115.89,107.253,118.744,100.642,119.748,93.43z"/>
          <path style="fill:#662D91;" d="M119.853,66.38c0.777,6.691,0.259,13.504,0.314,20.267c0.028,2.315-0.112,4.58-0.42,6.783&#xA;&#x9;&#x9;&#x9;&#x9;&#x9;c-1.004,7.212-3.857,13.823-8.907,19.661c-6.119,7.072-14.599,9.291-23.83,9.348c-0.831,0.001-2.522-1.967-2.412-2.844&#xA;&#x9;&#x9;&#x9;&#x9;&#x9;c1.143-8.63-1.8-16.584-3.764-24.804c-1.243-5.232-0.765-10.944-0.336-16.381c0.479-6.059,2.303-12.017,2.574-18.066&#xA;&#x9;&#x9;&#x9;&#x9;&#x9;c0.341-7.313-0.535-14.626-5.359-20.906c-1.77-2.304-4.261-4.506-7.003-2.709c-0.485,0.317-0.94,0.745-1.366,1.235&#xA;&#x9;&#x9;&#x9;&#x9;&#x9;c-1.277,1.48-2.209,3.592-2.249,5.285c-0.132,5.416,1.527,10.943,0.999,16.288c-0.757,7.701-1.988,15.546-4.506,22.85&#xA;&#x9;&#x9;&#x9;&#x9;&#x9;c-3.34,9.661-5.325,18.995-2.125,29.081c0.918,2.876,0.164,6.283-0.115,9.425c-0.249,2.826-2.347,3.898-5.088,3.573&#xA;&#x9;&#x9;&#x9;&#x9;&#x9;c-17.54-2.059-29.108-14.465-29.82-31.59c-0.234-5.569,0.036-11.016,0.594-16.442c0.488-4.774,1.203-9.517,1.988-14.291&#xA;&#x9;&#x9;&#x9;&#x9;&#x9;c1.718-10.415,7.837-18.14,15.578-25.01c6.811-6.043,14.037-11.708,20.501-18.077c2.92-2.868,4.338-7.092,6.645-10.581&#xA;&#x9;&#x9;&#x9;&#x9;&#x9;c0.881-1.327,2.346-2.307,3.544-3.44c0.88,1.193,2.235,2.283,2.54,3.589c2.22,9.484,8.053,16.61,15.826,22.542&#xA;&#x9;&#x9;&#x9;&#x9;&#x9;c4.727,3.597,9.296,7.399,14.201,10.762C116.758,48.002,118.78,57.119,119.853,66.38z"/>
          <path d="M80.364,7.614L77.83,8.625c-0.306-1.305-1.661-2.396-2.54-3.589c-1.198,1.133-2.663,2.113-3.544,3.44&#xA;&#x9;&#x9;&#x9;&#x9;&#x9;c-2.307,3.49-3.725,7.713-6.645,10.581C58.636,25.426,51.41,31.092,44.6,37.135c-7.741,6.869-13.86,14.595-15.578,25.01&#xA;&#x9;&#x9;&#x9;&#x9;&#x9;c-0.785,4.774-1.5,9.517-1.988,14.291l-2.107-0.223c0.697-6.814,1.097-13.679,2.723-20.269c2.4-9.722,2.317-19.136-1.496-28.13&#xA;&#x9;&#x9;&#x9;&#x9;&#x9;c-1.6-3.773-6.199-6.514-9.759-9.347c-0.989-0.785-3.156-0.202-4.788-0.242c0.306,1.591,0.146,3.458,0.977,4.752&#xA;&#x9;&#x9;&#x9;&#x9;&#x9;c0.415,0.642,0.801,1.295,1.156,1.947l-2.444,0.716c-0.445-0.795-0.959-1.58-1.542-2.355c-2.125-2.814-2.688-5.476-0.025-7.966&#xA;&#x9;&#x9;&#x9;&#x9;&#x9;c3.069-2.858,6.066-1.36,9.221,0.433c9.94,5.634,11.982,14.925,13.144,24.675c0.118,0.938,0.058,1.897,0.107,2.835&#xA;&#x9;&#x9;&#x9;&#x9;&#x9;c0,0.112,0.168,0.224,0.623,0.744c2.465-2.582,4.693-5.327,7.366-7.614c6.078-5.196,12.878-9.708,18.402-15.363&#xA;&#x9;&#x9;&#x9;&#x9;&#x9;c4.188-4.307,6.724-10.051,10.279-14.97c1.565-2.163,3.821-3.878,5.772-5.807c1.74,1.825,4.361,3.373,5.072,5.494&#xA;&#x9;&#x9;&#x9;&#x9;&#x9;C79.919,6.38,80.137,7.002,80.364,7.614z"/>
          <path d="M69.343,37.965l2.186,0.172c-0.902,2.377-2.367,4.183-1.972,5.499c4.107,13.818,1.003,26.855-3.191,40.067&#xA;&#x9;&#x9;&#x9;&#x9;&#x9;c-1.973,6.244-2.303,13.088-2.525,19.677c-0.161,4.896,1.725,9.872,1.524,14.768c-0.331,7.834-3.677,11.008-10.463,9.472&#xA;&#x9;&#x9;&#x9;&#x9;&#x9;c-14.097-3.183-25.194-9.194-29.676-24.012c-2.044-6.731-2.257-13.615-1.155-20.613c0.358-2.244,0.626-4.509,0.855-6.783&#xA;&#x9;&#x9;&#x9;&#x9;&#x9;l2.107,0.223c-0.557,5.427-0.828,10.874-0.594,16.442c0.712,17.125,12.28,29.531,29.82,31.59&#xA;&#x9;&#x9;&#x9;&#x9;&#x9;c2.74,0.325,4.838-0.748,5.088-3.573c0.279-3.142,1.033-6.549,0.115-9.425c-3.199-10.086-1.215-19.42,2.125-29.081&#xA;&#x9;&#x9;&#x9;&#x9;&#x9;c2.517-7.305,3.749-15.149,4.506-22.85c0.528-5.345-1.131-10.872-0.999-16.288C67.135,41.557,68.066,39.445,69.343,37.965z"/>
          <path d="M61.696,134.338c-0.881,0.419-1.752,1.144-2.662,1.195c-15.336,0.979-31.576-7.099-39.561-22.261&#xA;&#x9;&#x9;&#x9;&#x9;&#x9;c-5.544-10.523-7.645-21.374-6.104-32.768c1.312-9.701,3.287-19.331,5.42-28.9c1.677-7.488,3.155-14.884,0.776-22.45&#xA;&#x9;&#x9;&#x9;&#x9;&#x9;c-0.504-1.581-1.789-2.936-2.54-4.466c-0.415-0.846-0.474-1.856-0.691-2.794c0.475-0.102,0.94-0.205,1.415-0.307&#xA;&#x9;&#x9;&#x9;&#x9;&#x9;c8.858,10.347,5.557,21.763,3.215,33.045c-1.786,8.671-4.908,17.22-5.477,25.942c-0.809,12.607,0.776,25.122,8.981,36.071&#xA;&#x9;&#x9;&#x9;&#x9;&#x9;c6.436,8.605,14.802,14.005,25.724,15.65c2.81,0.427,5.709,0.2,8.538,0.535C59.767,132.952,60.717,133.808,61.696,134.338z"/>
        </g>
      </g>
    </g>
  </g>
  <g id="pill_x5F_half_x5F_purple"/>
  <g id="virus_x5F_purple"/>
  <g id="destroyed"/>
  <g id="nyt_x5F_exporter_x5F_info" style="display:none;"/>
</svg>