<?xml version="1.0" encoding="iso-8859-1"?>
<!-- Generator: Adobe Illustrator 18.1.1, SVG Export Plug-In . SVG Version: 6.00 Build 0)  -->
<svg version="1.1" xmlns="http://www.w3.org/2000/svg" xmlns:xlink="http://www.w3.org/1999/xlink" x="0px" y="0px"
	 viewBox="0 0 141.146 141.135" style="enable-background:new 0 0 141.146 141.135;" xml:space="preserve">
<g id="pill_x5F_purple">
	<g id="haLTqA.tif">
		<g>
			<path d="M110.275,38.716c-1.355-9.934,3.963-15.986,10.76-21.48c1.12-0.906,0.624-3.344,1.561-4.653
				c1.212-1.692,2.905-3.402,4.833-4.166c0.651-0.258,3.059,2.142,3.957,3.676c2.58,4.41,2.439,9.037,0.512,13.649
				c-3.639,8.714-0.297,16.825,2.907,24.884c6.557,16.493,8.326,33.074,3.906,50.362c-2.682,10.489-7.783,19.476-15.844,26.735
				c-9.184,8.27-20.456,13.035-33.774,13.015c-12.444-0.018-24.885,0.335-37.33,0.394c-14.385,0.069-26.313-4.678-36.228-14.728
				c-7.66-7.764-12.615-16.534-14.556-26.578c-2.016-10.431-0.766-20.846,2.35-31.036c2.535-8.289,5.256-16.545,7.305-24.942
				c1.783-7.311,1.935-14.75-3.158-21.309c-2.149-2.768-2.719-5.378-0.027-7.815c3.095-2.802,6.129-1.327,9.322,0.432
				c10.048,5.534,12.115,14.641,13.3,24.204c0.114,0.918,0.054,1.853,0.101,2.779c0.006,0.11,0.178,0.214,0.63,0.722
				c2.494-2.524,4.746-5.215,7.442-7.451c6.137-5.09,13.013-9.51,18.589-15.059c4.237-4.217,6.793-9.844,10.38-14.663
				C68.796,3.563,71.08,1.883,73.045,0c1.761,1.783,4.416,3.31,5.128,5.392c3.037,8.875,7.803,16.502,16.04,22.122
				C99.23,30.937,104.172,34.454,110.275,38.716z M119.115,84.727c-0.062-6.626,0.464-13.309-0.327-19.865
				c-1.096-9.089-3.143-18.026-12.138-23.989c-4.964-3.291-9.585-7.026-14.362-10.559C84.423,24.498,78.529,17.51,76.281,8.211
				c-0.311-1.285-1.689-2.357-2.572-3.528c-1.21,1.116-2.688,2.074-3.578,3.377c-2.333,3.415-3.768,7.553-6.718,10.37
				c-6.53,6.235-13.822,11.786-20.707,17.71c-7.818,6.727-13.998,14.3-15.727,24.512c-1.692,9.992-3.044,19.861-2.595,30.123
				c0.734,16.792,12.434,28.965,30.164,30.993c2.771,0.317,4.892-0.735,5.141-3.501c0.276-3.078,1.033-6.417,0.109-9.241
				c-3.239-9.89-1.238-19.034,2.129-28.507c2.546-7.163,3.78-14.851,4.54-22.404c0.527-5.237-1.153-10.653-1.015-15.965
				c0.058-2.223,1.697-5.149,3.644-6.388c2.768-1.76,5.287,0.398,7.082,2.66c4.882,6.152,5.765,13.329,5.433,20.5
				c-0.275,5.927-2.116,11.771-2.594,17.702c-0.43,5.334-0.914,10.932,0.35,16.063c1.986,8.058,4.966,15.859,3.824,24.32
				c-0.116,0.86,1.592,2.792,2.432,2.788c9.334-0.049,17.908-2.213,24.085-9.143C116.368,103.178,119.234,94.406,119.115,84.727z
				 M126.73,12.625c-2.286,3.344-3.584,7.075-6.36,8.958c-7.938,5.382-8.695,14.183-4.96,21.644
				c1.998,3.991,3.936,8.176,4.775,12.454c2.605,13.287,2.759,26.585,0.425,39.997c-2.419,13.902-14.109,25.028-28.491,27.3
				c-8.202,1.296-13.97-1.692-12.615-7.266c1.754-7.221-1.358-13.273-3.064-19.818c-1.233-4.732-1.868-9.782-1.561-14.617
				c0.592-9.331,2.593-18.589,2.926-27.918c0.204-5.703-2.408-11.144-7.877-16.221c-0.911,2.329-2.384,4.098-1.987,5.39
				c4.162,13.546,1.028,26.329-3.198,39.284c-1.996,6.116-2.326,12.821-2.542,19.29c-0.16,4.801,1.747,9.68,1.545,14.473
				c-0.324,7.684-3.705,10.792-10.562,9.284c-14.25-3.134-25.473-9.03-30.018-23.562c-2.064-6.598-2.285-13.347-1.174-20.212
				c1.427-8.813,1.417-17.901,3.601-26.52c2.414-9.527,2.328-18.761-1.535-27.58c-1.618-3.694-6.265-6.389-9.87-9.168
				c-0.995-0.767-3.193-0.199-4.839-0.244c0.306,1.568,0.148,3.397,0.992,4.662c7.194,10.784,4.813,21.923,1.112,32.703
				c-5.059,14.737-9.611,29.167-6.704,45.13c3.493,19.178,21.274,36.981,43.684,37.679c14.12,0.44,28.295-0.985,42.41-0.493
				c14.234,0.496,33.309-12.635,39.141-23.205c6.206-11.249,7.347-23.037,7.531-35.221c0.154-10.222-2.579-19.77-6.742-29.245
				c-3.173-7.222-4.658-14.934-2.397-22.847C129.726,22.004,130.922,17.117,126.73,12.625z"/>
			<path style="fill:#662D91;" d="M119.115,84.727c0.119,9.679-2.747,18.451-9.408,25.924c-6.177,6.931-14.751,9.095-24.085,9.143
				c-0.841,0.004-2.548-1.928-2.432-2.788c1.142-8.46-1.838-16.262-3.824-24.32c-1.265-5.131-0.78-10.729-0.35-16.063
				c0.478-5.931,2.319-11.775,2.594-17.702c0.332-7.171-0.551-14.348-5.433-20.5c-1.795-2.262-4.314-4.421-7.082-2.66
				c-1.947,1.238-3.586,4.165-3.644,6.388c-0.139,5.312,1.542,10.728,1.015,15.965c-0.76,7.553-1.994,15.241-4.54,22.404
				c-3.367,9.474-5.367,18.617-2.129,28.507c0.925,2.824,0.168,6.163-0.109,9.241c-0.248,2.766-2.37,3.818-5.141,3.501
				c-17.73-2.028-29.429-14.201-30.164-30.993c-0.449-10.262,0.903-20.131,2.595-30.123c1.729-10.212,7.909-17.785,15.727-24.512
				c6.885-5.924,14.177-11.475,20.707-17.71c2.95-2.817,4.385-6.954,6.718-10.37c0.89-1.303,2.368-2.262,3.578-3.377
				c0.884,1.171,2.262,2.243,2.572,3.528c2.248,9.299,8.142,16.287,16.007,22.103c4.778,3.533,9.398,7.268,14.362,10.559
				c8.995,5.963,11.041,14.9,12.138,23.989C119.579,71.418,119.053,78.101,119.115,84.727z"/>
			<path style="fill:#7D54A2;" d="M126.73,12.625c4.192,4.492,2.996,9.38,1.644,14.111c-2.261,7.912-0.776,15.624,2.397,22.847
				c4.163,9.475,6.896,19.023,6.742,29.245c-0.184,12.184-1.326,23.972-7.531,35.221c-5.831,10.57-24.906,23.701-39.141,23.205
				c-14.115-0.492-28.29,0.933-42.41,0.493c-22.41-0.698-40.191-18.501-43.684-37.679C1.84,84.105,6.391,69.674,11.45,54.938
				c3.701-10.78,6.081-21.919-1.112-32.703c-0.844-1.265-0.685-3.094-0.992-4.662c1.646,0.045,3.844-0.523,4.839,0.244
				c3.605,2.778,8.252,5.473,9.87,9.168c3.863,8.819,3.949,18.053,1.535,27.58c-2.184,8.619-2.174,17.707-3.601,26.52
				c-1.111,6.864-0.89,13.613,1.174,20.212c4.545,14.532,15.769,20.428,30.018,23.562c6.857,1.508,10.237-1.6,10.562-9.284
				c0.202-4.793-1.705-9.672-1.545-14.473c0.216-6.469,0.546-13.174,2.542-19.29c4.227-12.955,7.36-25.738,3.198-39.284
				c-0.397-1.292,1.077-3.061,1.987-5.39c5.469,5.078,8.081,10.518,7.877,16.221c-0.333,9.329-2.334,18.587-2.926,27.918
				c-0.307,4.835,0.328,9.885,1.561,14.617c1.706,6.545,4.818,12.597,3.064,19.818c-1.354,5.574,4.414,8.562,12.615,7.266
				c14.382-2.272,26.072-13.398,28.491-27.3c2.334-13.412,2.18-26.71-0.425-39.997c-0.839-4.278-2.777-8.463-4.775-12.454
				c-3.735-7.462-2.978-16.263,4.96-21.644C123.146,19.7,124.444,15.969,126.73,12.625z M15.554,20.878
				c-0.475,0.101-0.949,0.202-1.424,0.303c0.22,0.917,0.276,1.903,0.696,2.735c0.761,1.506,2.064,2.831,2.57,4.386
				c2.411,7.412,0.917,14.669-0.77,22.01c-2.155,9.378-4.143,18.82-5.462,28.327c-1.55,11.17,0.578,21.805,6.19,32.133
				c8.078,14.866,24.501,22.791,39.997,21.848c0.926-0.056,1.8-0.766,2.698-1.171c-0.997-0.516-1.953-1.365-3-1.484
				c-2.859-0.326-5.795-0.11-8.632-0.526c-11.043-1.618-19.503-6.92-26.016-15.357c-8.293-10.744-9.905-23.01-9.092-35.372
				c0.563-8.556,3.714-16.935,5.521-25.429C21.185,42.22,24.515,31.028,15.554,20.878z M82.395,130.21
				c1.772,0.611,2.601,1.156,3.397,1.124c2.803-0.112,5.608-0.333,8.387-0.674c10.6-1.3,19.365-5.433,25.809-13.582
				c5.779-7.308,8.274-15.476,9.976-24.331c2.426-12.627-0.229-24.662-2.961-36.792c-1.7-7.548-4.169-14.96-5.693-22.532
				c-0.517-2.569,0.804-5.44,1.48-9.278c-1.181,1.38-1.665,1.795-1.953,2.305c-4.065,7.181-1.298,14.147,1.124,21.055
				c6.242,17.806,8.894,35.713,3.361,54.085c-3.669,12.183-11.009,21.254-24.429,25.083
				C95.345,128.257,89.471,128.892,82.395,130.21z"/>
			<path d="M15.554,20.878c8.96,10.151,5.63,21.342,3.277,32.403c-1.807,8.493-4.958,16.873-5.521,25.429
				c-0.813,12.362,0.798,24.628,9.092,35.372c6.513,8.438,14.973,13.74,26.016,15.357c2.837,0.416,5.773,0.2,8.632,0.526
				c1.047,0.119,2.003,0.968,3,1.484c-0.898,0.405-1.772,1.115-2.698,1.171c-15.496,0.943-31.919-6.982-39.997-21.848
				c-5.612-10.328-7.74-20.962-6.19-32.133c1.319-9.507,3.307-18.95,5.462-28.327c1.687-7.341,3.181-14.599,0.77-22.01
				c-0.506-1.555-1.81-2.88-2.57-4.386c-0.42-0.832-0.476-1.818-0.696-2.735C14.605,21.08,15.08,20.979,15.554,20.878z"/>
			<path d="M82.395,130.21c7.077-1.318,12.95-1.953,18.499-3.536c13.419-3.828,20.76-12.899,24.429-25.083
				c5.533-18.373,2.881-36.279-3.361-54.085c-2.422-6.908-5.189-13.874-1.124-21.055c0.289-0.51,0.772-0.925,1.953-2.305
				c-0.676,3.837-1.997,6.709-1.48,9.278c1.524,7.572,3.993,14.984,5.693,22.532c2.732,12.129,5.387,24.164,2.961,36.792
				c-1.701,8.856-4.196,17.024-9.976,24.331c-6.444,8.149-15.209,12.282-25.809,13.582c-2.78,0.341-5.585,0.562-8.387,0.674
				C84.995,131.366,84.167,130.821,82.395,130.21z"/>
		</g>
	</g>
</g>
<g id="Layer_1">
</g>
</svg>
