<?xml version="1.0" encoding="iso-8859-1"?>
<!-- Generator: Adobe Illustrator 18.1.1, SVG Export Plug-In . SVG Version: 6.00 Build 0)  -->
<svg version="1.1" xmlns="http://www.w3.org/2000/svg" xmlns:xlink="http://www.w3.org/1999/xlink" x="0px" y="0px"
	 viewBox="0 0 139.972 142.273" style="enable-background:new 0 0 139.972 142.273;" xml:space="preserve">
<g id="pill_x5F_orange">
	<g>
		<path d="M42.15,142.273c-11.655-0.338-22.257-2.527-30.657-11.105c-6.468-6.606-8.787-15.057-9.569-23.96
			C1.082,97.636,0.227,88.04,0.049,78.442C-0.14,68.205,0.24,57.941,0.789,47.712c0.345-6.429,0.676-13.035,2.381-19.178
			C7.275,13.736,17.214,3.932,32.957,1.979c9.332-1.158,18.768-1.945,28.16-1.979c7.369-0.026,14.857,0.813,20.729,6.563
			c0.852,0.834,3.526,0.756,4.782,0.056c13.293-7.403,30.727-5.166,42.025,4.796c7.065,6.229,9.721,13.991,10.237,22.837
			c0.569,9.765,0.999,19.55,1.074,29.33c0.069,9.084-0.304,18.176-0.688,27.256c-0.236,5.563-1.806,11.233-1.106,16.636
			c1.303,10.056-3.683,17.216-9.488,23.942c-5.435,6.296-12.822,9.87-21.163,10.077c-17.684,0.438-35.379,0.346-53.069,0.589
			C50.347,142.138,46.25,141.962,42.15,142.273z M108.8,17.228c-2.361,2.745-4.914,4.866-6.303,7.586
			c-1.185,2.32-0.906,5.359-1.497,8.03c-1.917,8.656-4.453,17.188-14.181,19.932c-5.883,1.659-12.145,3.094-18.172,2.871
			c-13.483-0.497-22.968-10.728-21.312-22.661C48.753,22.764,54.082,18,63.999,18.595c3.258,0.196,6.874,1.384,7.404,4.918
			c0.582,3.883-3.081,4.591-6.09,5.299c-0.874,0.206-1.766,0.511-2.532,0.97c-2.93,1.757-3.763,4.703-1.572,6.953
			c2.25,2.311,5.428,4.383,8.527,5.067c12.002,2.647,20.345-11.903,17.061-22.071C83.55,9.678,77.226,4.325,65.972,3.894
			c-11.048-0.423-22.21,0.668-33.247,1.819C20.423,6.996,8.302,18.165,6.802,29.715C5.336,41.006,4.896,52.429,3.881,63.783
			c-0.331,3.696,1.695,4.455,4.667,4.481c2.178,0.019,4.363,0.01,6.531,0.185c10.338,0.833,16.602,8.896,16.888,17.354
			c0.468,13.799,10.116,21.217,22.146,20.945c11.044-0.25,22.1,0.026,33.147-0.142c10.103-0.153,17.344-6.832,18.842-16.38
			c0.84-5.352,2.226-10.659,3.852-15.832c1.731-5.507,6.037-8.169,11.621-8.714c4.503-0.44,9.023-0.706,14.165-1.098
			c-0.294-4.99-0.87-9.863-0.806-14.728c0.113-8.577,0.475-16.973-2.92-25.299c-3.25-7.972-8.215-13.676-16.089-16.743
			c-9.888-3.852-19.555-2.576-29.322,1.96c0.39,1.366,0.431,3.075,1.266,4.174c4.159,5.47,3.607,11.364,2.022,17.454
			c-3.426,13.162-21.42,19.483-30.257,9.643c-2.649-2.95-3.999-6.243-2.702-9.414c0.967-2.365,4.054-3.958,6.394-5.612
			c1.439-1.017,3.25-1.501,5.648-2.556c-6.326-2.669-13.099-1.2-15.719,2.668c-4.441,6.555-2.455,17.587,4.176,22.058
			c8.883,5.988,18.273,4.944,27.838,1.791c5.939-1.958,8.959-6.564,10.858-11.928c1.808-5.105,2.735-10.518,4.332-15.708
			C101.65,18.464,104.051,15.975,108.8,17.228z M89.218,139.154c7.654-0.878,15.055-0.891,21.99-2.705
			c12.586-3.291,20.859-11.219,22.047-25.036c0.509-5.915,0.782-11.859,1.523-17.744c1.037-8.233,1.971-16.421,0.187-24.897
			c-3.026-0.08-5.779-0.164-8.532-0.223c-7.544-0.161-13.407,4.72-14.655,12.189c-0.36,2.157-0.805,4.304-1.059,6.474
			c-1.337,11.417-6.979,19.382-18.193,22.732c-2.219,0.663-4.645,0.621-7.221,0.935C86.608,120.297,87.842,129.216,89.218,139.154z
			 M57.916,115.712c0.642-5.181,0.623-4.954-4.356-5.381c-14.562-1.249-23.518-5.775-25.468-22.568
			c-0.814-7.012-3.083-14.317-12.314-15.112c-2.486-0.214-4.966-0.506-7.455-0.689c-3.319-0.244-4.887,1.447-4.727,4.697
			c0.135,2.741,0.428,5.476,0.69,8.209c1.091,11.39,0.435,22.964,4.551,34.013c3.019,8.106,8.18,14.418,16.208,16.57
			c8.297,2.223,17.132,2.55,25.768,3.227c1.327,0.104,4.707,1.697,4.993-2.44C56.28,129.38,57.19,122.552,57.916,115.712z
			 M59.269,138.047c7.576,0.2,15.379,0.493,23.179,0.456c0.676-0.003,2.025-2.268,1.902-3.348
			c-0.843-7.376-1.876-14.739-3.174-22.047c-0.204-1.149-2.029-2.794-3.166-2.845c-3.925-0.177-7.902,0.052-11.802,0.564
			c-1.228,0.161-3.089,1.56-3.277,2.635C61.536,121.475,60.489,129.547,59.269,138.047z"/>
		<path style="fill:#F15A29;" d="M108.8,17.228c-4.749-1.253-7.149,1.236-8.342,5.113c-1.596,5.19-2.524,10.603-4.332,15.708
			c-1.899,5.363-4.919,9.97-10.858,11.928c-9.565,3.153-18.955,4.198-27.838-1.791c-6.632-4.471-8.617-15.502-4.176-22.058
			c2.621-3.869,9.393-5.337,15.719-2.668c-2.398,1.055-4.209,1.539-5.648,2.556c-2.34,1.654-5.427,3.248-6.394,5.612
			c-1.297,3.171,0.053,6.464,2.702,9.414c8.838,9.84,26.831,3.52,30.257-9.643c1.585-6.09,2.137-11.984-2.022-17.454
			c-0.835-1.099-0.876-2.808-1.266-4.174c9.767-4.536,19.434-5.812,29.322-1.96c7.874,3.067,12.839,8.771,16.089,16.743
			c3.395,8.327,3.033,16.723,2.92,25.299c-0.064,4.865,0.511,9.738,0.806,14.728c-5.142,0.391-9.662,0.658-14.165,1.098
			c-5.584,0.545-9.89,3.207-11.621,8.714c-1.626,5.173-3.012,10.481-3.852,15.832c-1.498,9.548-8.739,16.227-18.842,16.38
			c-11.047,0.167-22.103-0.108-33.147,0.142c-12.03,0.272-21.678-7.146-22.146-20.945c-0.287-8.457-6.551-16.52-16.888-17.354
			c-2.168-0.175-4.353-0.167-6.531-0.185c-2.972-0.025-4.997-0.784-4.667-4.481c1.015-11.354,1.455-22.777,2.921-34.068
			c1.5-11.55,13.621-22.719,25.922-24.002c11.037-1.151,22.199-2.242,33.247-1.819C77.226,4.325,83.55,9.678,86.797,19.731
			c3.284,10.168-5.059,24.718-17.061,22.071c-3.098-0.683-6.276-2.756-8.527-5.067c-2.191-2.25-1.358-5.196,1.572-6.953
			c0.766-0.459,1.658-0.765,2.532-0.97c3.009-0.708,6.673-1.417,6.09-5.299c-0.53-3.534-4.147-4.722-7.404-4.918
			C54.082,18,48.753,22.764,47.334,32.987c-1.656,11.932,7.829,22.164,21.312,22.661c6.027,0.222,12.289-1.212,18.172-2.871
			c9.728-2.744,12.264-11.276,14.181-19.932c0.592-2.671,0.312-5.71,1.497-8.03C103.886,22.093,106.438,19.973,108.8,17.228z"/>
		<path style="fill:#F7941E;" d="M89.218,139.154c-1.375-9.938-2.61-18.858-3.913-28.276c2.576-0.313,5.002-0.272,7.221-0.935
			c11.214-3.35,16.856-11.315,18.193-22.732c0.254-2.17,0.699-4.317,1.059-6.474c1.248-7.468,7.111-12.349,14.655-12.189
			c2.753,0.059,5.506,0.143,8.532,0.223c1.784,8.476,0.85,16.665-0.187,24.897c-0.741,5.885-1.014,11.829-1.523,17.744
			c-1.188,13.817-9.461,21.744-22.047,25.036C104.273,138.263,96.872,138.276,89.218,139.154z"/>
		<path style="fill:#F7941E;" d="M57.916,115.712c-0.726,6.84-1.637,13.668-2.11,20.526c-0.286,4.137-3.666,2.544-4.993,2.44
			c-8.637-0.677-17.471-1.004-25.768-3.227c-8.028-2.151-13.189-8.463-16.208-16.57c-4.115-11.049-3.459-22.623-4.551-34.013
			c-0.262-2.734-0.555-5.468-0.69-8.209c-0.16-3.251,1.408-4.942,4.727-4.697c2.488,0.183,4.968,0.475,7.455,0.689
			c9.231,0.795,11.5,8.1,12.314,15.112c1.95,16.793,10.906,21.319,25.468,22.568C58.539,110.758,58.558,110.531,57.916,115.712z"/>
		<path style="fill:#BE1E2D;" d="M59.269,138.047c1.22-8.5,2.267-16.572,3.662-24.583c0.187-1.076,2.049-2.474,3.277-2.635
			c3.9-0.513,7.878-0.741,11.802-0.564c1.137,0.051,2.961,1.696,3.166,2.845c1.298,7.308,2.331,14.67,3.174,22.047
			c0.123,1.08-1.226,3.345-1.902,3.348C74.647,138.54,66.845,138.246,59.269,138.047z"/>
	</g>
</g>
<g id="Layer_1">
</g>
</svg>
