<?xml version="1.0" encoding="UTF-8" standalone="yes"?>
<svg version="1.1" xmlns="http://www.w3.org/2000/svg" xmlns:xlink="http://www.w3.org/1999/xlink" x="0px" y="0px" viewBox="0 0 144 144" style="enable-background:new 0 0 144 144;" xml:space="preserve">
  <g id="pill_x5F_half_x5F_green"/>
  <g id="pill_x5F_segment_x5F_green"/>
  <g id="virus_x5F_green"/>
  <g id="pill_x5F_half_x5F_orange"/>
  <g id="pill_x5F_segment_x5F_orange"/>
  <g id="virus_x5F_orange"/>
  <g id="pill_x5F_segment_x5F_purple"/>
  <g id="pill_x5F_half_x5F_purple">
    <g>
      <g id="XMLID_3_">
        <g>
          <path d="M142.005,144.004c0,0-38.191,0.004-51.502-0.008C78.053,143.984,53.172,144,53.172,144L2.03,144.002&#xA;&#x9;&#x9;&#x9;&#x9;&#x9;c0,0,4.307-26.664,0.376-42.166C0.403,91.268,1.66,80.718,4.776,70.38c2.545-8.392,5.271-16.764,7.326-25.278&#xA;&#x9;&#x9;&#x9;&#x9;&#x9;c1.785-7.409,1.939-14.948-3.147-21.593c-2.148-2.796-2.717-5.44-0.025-7.914c3.102-2.839,6.131-1.352,9.32,0.43&#xA;&#x9;&#x9;&#x9;&#x9;&#x9;c10.047,5.598,12.111,14.828,13.285,24.515c0.119,0.932,0.059,1.885,0.108,2.817c0,0.111,0.17,0.223,0.63,0.739&#xA;&#x9;&#x9;&#x9;&#x9;&#x9;c2.492-2.565,4.743-5.293,7.445-7.564c6.143-5.162,13.016-9.645,18.6-15.263c4.233-4.279,6.796-9.986,10.39-14.873&#xA;&#x9;&#x9;&#x9;&#x9;&#x9;c1.581-2.149,3.863-3.853,5.834-5.77c1.759,1.813,4.408,3.351,5.127,5.459c3.024,8.997,7.79,16.726,16.026,22.415&#xA;&#x9;&#x9;&#x9;&#x9;&#x9;c5.008,3.463,9.956,7.026,16.053,11.339c-1.354-10.062,3.97-16.206,10.774-21.774c1.121-0.923,0.622-3.385,1.563-4.713&#xA;&#x9;&#x9;&#x9;&#x9;&#x9;c1.211-1.723,2.902-3.457,4.833-4.229c0.65-0.264,3.059,2.167,3.958,3.727c2.577,4.467,2.434,9.149,0.501,13.832&#xA;&#x9;&#x9;&#x9;&#x9;&#x9;c-3.646,8.829-0.311,17.045,2.894,25.21c6.55,16.706,8.299,33.506,3.868,51.03C137.453,113.556,142.005,144.004,142.005,144.004&#xA;&#x9;&#x9;&#x9;&#x9;&#x9;z M138.964,80.469c0.156-10.357-2.568-20.032-6.732-29.626c-3.166-7.325-4.641-15.137-2.376-23.154&#xA;&#x9;&#x9;&#x9;&#x9;&#x9;c1.353-4.794,2.556-9.75-1.641-14.297c-2.282,3.386-3.585,7.167-6.366,9.074c-7.944,5.467-8.699,14.385-4.974,21.942&#xA;&#x9;&#x9;&#x9;&#x9;&#x9;c1.998,4.042,3.935,8.287,4.772,12.613c2.592,13.466,2.743,26.943,0.395,40.534c-2.429,14.087-14.126,25.373-28.508,27.683&#xA;&#x9;&#x9;&#x9;&#x9;&#x9;c-8.201,1.323-13.969-1.704-12.606-7.359c1.755-7.318-1.352-13.446-3.058-20.073c-1.227-4.803-1.864-9.92-1.551-14.814&#xA;&#x9;&#x9;&#x9;&#x9;&#x9;c0.596-9.455,2.602-18.84,2.948-28.295c0.204-5.776-2.403-11.287-7.87-16.432c-0.911,2.362-2.393,4.156-1.993,5.463&#xA;&#x9;&#x9;&#x9;&#x9;&#x9;c4.152,13.728,1.013,26.681-3.225,39.807c-1.994,6.203-2.328,13.003-2.552,19.549c-0.163,4.864,1.744,9.808,1.541,14.672&#xA;&#x9;&#x9;&#x9;&#x9;&#x9;c-0.335,7.783-3.717,10.936-10.576,9.411c-14.248-3.163-25.465-9.134-29.996-23.856c-2.066-6.687-2.282-13.527-1.167-20.479&#xA;&#x9;&#x9;&#x9;&#x9;&#x9;c1.436-8.939,1.431-18.14,3.617-26.877c2.426-9.659,2.342-19.012-1.513-27.947c-1.618-3.748-6.266-6.471-9.864-9.286&#xA;&#x9;&#x9;&#x9;&#x9;&#x9;c-1-0.78-3.19-0.201-4.84-0.24c0.309,1.581,0.148,3.435,0.987,4.722c7.193,10.919,4.796,22.21,1.089,33.136&#xA;&#x9;&#x9;&#x9;&#x9;&#x9;c-5.069,14.94-9.629,29.566-6.729,45.737c1.774,9.94-1.489,29.844,2.387,36.864c6.308,4.181,41.27,2.305,41.27,2.305&#xA;&#x9;&#x9;&#x9;&#x9;&#x9;l42.411,0.378c0,0,35.781-0.215,43.252-1.254c4.733-3.783-0.997-21.118,0.348-28.648c1.004-5.594,2.128-13.317,2.724-21.992&#xA;&#x9;&#x9;&#x9;&#x9;&#x9;c0-0.081,0.01-0.152,0.02-0.233c0.161-2.229,0.263-4.469,0.324-6.719C138.933,82.009,138.954,81.239,138.964,80.469z&#xA;&#x9;&#x9;&#x9;&#x9;&#x9; M120.56,86.459c-0.056-6.719,0.468-13.488-0.317-20.135c-1.084-9.201-3.129-18.259-12.125-24.293&#xA;&#x9;&#x9;&#x9;&#x9;&#x9;c-4.958-3.341-9.576-7.118-14.354-10.692c-7.857-5.893-13.752-12.972-15.996-22.395c-0.309-1.297-1.679-2.38-2.568-3.565&#xA;&#x9;&#x9;&#x9;&#x9;&#x9;c-1.211,1.126-2.691,2.099-3.582,3.417c-2.332,3.467-3.765,7.663-6.717,10.513c-6.534,6.327-13.838,11.956-20.722,17.96&#xA;&#x9;&#x9;&#x9;&#x9;&#x9;c-7.824,6.825-14.009,14.5-15.746,24.847C26.736,72.25,25.38,82.253,25.823,92.65c0.719,17.014,12.412,29.339,30.141,31.385&#xA;&#x9;&#x9;&#x9;&#x9;&#x9;c2.77,0.323,4.891-0.743,5.142-3.55c0.282-3.121,1.044-6.506,0.116-9.363c-3.234-10.02-1.228-19.294,2.148-28.892&#xA;&#x9;&#x9;&#x9;&#x9;&#x9;c2.545-7.257,3.79-15.051,4.554-22.702c0.533-5.31-1.143-10.802-1.01-16.183c0.061-2.25,1.703-5.22,3.654-6.478&#xA;&#x9;&#x9;&#x9;&#x9;&#x9;c2.771-1.785,5.29,0.402,7.079,2.691c4.876,6.239,5.762,13.504,5.417,20.77c-0.274,6.009-2.118,11.929-2.601,17.948&#xA;&#x9;&#x9;&#x9;&#x9;&#x9;c-0.433,5.401-0.917,11.077,0.34,16.274c1.985,8.166,4.96,16.069,3.805,24.642c-0.111,0.872,1.598,2.826,2.438,2.826&#xA;&#x9;&#x9;&#x9;&#x9;&#x9;c9.33-0.057,17.902-2.261,24.087-9.287C117.798,105.157,120.674,96.268,120.56,86.459z"/>
          <path style="fill:#7D54A2;" d="M132.232,50.842c4.164,9.594,6.888,19.27,6.732,29.626c-0.01,0.77-0.031,1.54-0.051,2.31&#xA;&#x9;&#x9;&#x9;&#x9;&#x9;c-0.071,2.29-0.183,4.53-0.324,6.719c-0.01,0.081-0.02,0.152-0.02,0.233c-0.706,9.07-2.521,17.908-7.167,26.433&#xA;&#x9;&#x9;&#x9;&#x9;&#x9;c-5.837,10.715-24.916,24.032-39.156,23.545c-14.11-0.498-28.291,0.96-42.412,0.523c-22.41-0.695-40.179-18.722-43.657-38.156&#xA;&#x9;&#x9;&#x9;&#x9;&#x9;c-2.9-16.171,1.659-30.797,6.729-45.737c3.707-10.926,6.104-22.217-1.089-33.136c-0.839-1.286-0.678-3.141-0.987-4.722&#xA;&#x9;&#x9;&#x9;&#x9;&#x9;c1.65,0.039,3.84-0.54,4.84,0.24c3.598,2.815,8.247,5.538,9.864,9.286c3.855,8.935,3.939,18.289,1.513,27.947&#xA;&#x9;&#x9;&#x9;&#x9;&#x9;c-2.186,8.737-2.181,17.938-3.617,26.877c-1.114,6.952-0.899,13.792,1.167,20.479c4.531,14.721,15.748,20.693,29.996,23.856&#xA;&#x9;&#x9;&#x9;&#x9;&#x9;c6.859,1.526,10.241-1.628,10.576-9.411c0.203-4.864-1.704-9.808-1.541-14.672c0.224-6.546,0.558-13.346,2.552-19.549&#xA;&#x9;&#x9;&#x9;&#x9;&#x9;c4.238-13.126,7.377-26.078,3.225-39.807c-0.399-1.307,1.082-3.102,1.993-5.463c5.467,5.144,8.074,10.655,7.87,16.432&#xA;&#x9;&#x9;&#x9;&#x9;&#x9;c-0.346,9.455-2.352,18.84-2.948,28.295c-0.313,4.895,0.324,10.012,1.551,14.814c1.706,6.626,4.812,12.755,3.058,20.073&#xA;&#x9;&#x9;&#x9;&#x9;&#x9;c-1.364,5.655,4.405,8.682,12.606,7.359c14.382-2.309,26.079-13.595,28.508-27.683c2.349-13.591,2.197-27.068-0.395-40.534&#xA;&#x9;&#x9;&#x9;&#x9;&#x9;c-0.837-4.327-2.775-8.571-4.772-12.613c-3.725-7.557-2.97-16.475,4.974-21.942c2.781-1.907,4.084-5.688,6.366-9.074&#xA;&#x9;&#x9;&#x9;&#x9;&#x9;c4.197,4.547,2.994,9.503,1.641,14.297C127.592,35.706,129.067,43.518,132.232,50.842z M131.405,94.579&#xA;&#x9;&#x9;&#x9;&#x9;&#x9;c2.428-12.8-0.214-24.989-2.937-37.28c-1.695-7.65-4.161-15.157-5.686-22.827c-0.508-2.604,0.813-5.513,1.486-9.405&#xA;&#x9;&#x9;&#x9;&#x9;&#x9;c-1.181,1.399-1.661,1.815-1.952,2.332c-4.065,7.278-1.309,14.34,1.117,21.341c6.229,18.034,8.868,36.181,3.326,54.8&#xA;&#x9;&#x9;&#x9;&#x9;&#x9;c-3.678,12.355-11.024,21.551-24.447,25.441c-5.551,1.605-11.422,2.247-18.503,3.589c1.77,0.617,2.599,1.174,3.399,1.143&#xA;&#x9;&#x9;&#x9;&#x9;&#x9;c2.8-0.123,5.6-0.348,8.381-0.694c10.601-1.324,19.374-5.515,25.819-13.778C127.194,111.829,129.699,103.559,131.405,94.579z&#xA;&#x9;&#x9;&#x9;&#x9;&#x9; M58.768,135.028c0.92-0.051,1.801-0.771,2.691-1.187c-0.99-0.526-1.949-1.377-2.999-1.498c-2.86-0.333-5.79-0.108-8.63-0.532&#xA;&#x9;&#x9;&#x9;&#x9;&#x9;c-11.039-1.635-19.496-7-26.001-15.549c-8.293-10.878-9.896-23.311-9.078-35.837c0.575-8.665,3.731-17.158,5.536-25.773&#xA;&#x9;&#x9;&#x9;&#x9;&#x9;c2.367-11.209,5.704-22.551-3.25-32.831c-0.48,0.102-0.95,0.203-1.43,0.305c0.219,0.932,0.279,1.935,0.698,2.776&#xA;&#x9;&#x9;&#x9;&#x9;&#x9;c0.759,1.52,2.058,2.866,2.567,4.437c2.405,7.518,0.911,14.865-0.784,22.304c-2.156,9.507-4.152,19.074-5.478,28.712&#xA;&#x9;&#x9;&#x9;&#x9;&#x9;c-1.557,11.32,0.566,22.101,6.17,32.555C26.851,127.975,43.267,136,58.768,135.028z"/>
          <path style="fill:#7D54A2;" d="M138.913,82.779c-0.061,2.25-0.163,4.489-0.324,6.719&#xA;&#x9;&#x9;&#x9;&#x9;&#x9;C138.73,87.309,138.841,85.069,138.913,82.779z"/>
          <path style="fill:#7D54A2;" d="M138.568,89.731c-0.595,8.675-1.72,16.397-2.724,21.992c-1.345,7.53,4.385,24.865-0.348,28.648&#xA;&#x9;&#x9;&#x9;&#x9;&#x9;c-7.471,1.038-43.252,1.254-43.252,1.254l-42.411-0.378c0,0-34.962,1.877-41.27-2.305c-3.876-7.02-0.613-26.925-2.387-36.864&#xA;&#x9;&#x9;&#x9;&#x9;&#x9;c3.478,19.434,21.247,37.461,43.657,38.156c14.12,0.437,28.301-1.021,42.412-0.523c14.24,0.488,33.319-12.83,39.156-23.545&#xA;&#x9;&#x9;&#x9;&#x9;&#x9;C136.047,107.639,137.863,98.801,138.568,89.731z"/>
          <path d="M128.468,57.3c2.722,12.29,5.365,24.479,2.937,37.28c-1.706,8.979-4.211,17.25-9.996,24.661&#xA;&#x9;&#x9;&#x9;&#x9;&#x9;c-6.445,8.263-15.218,12.454-25.819,13.778c-2.78,0.346-5.581,0.571-8.381,0.694c-0.8,0.031-1.63-0.526-3.399-1.143&#xA;&#x9;&#x9;&#x9;&#x9;&#x9;c7.081-1.342,12.952-1.984,18.503-3.589c13.423-3.89,20.769-13.085,24.447-25.441c5.542-18.619,2.903-36.766-3.326-54.8&#xA;&#x9;&#x9;&#x9;&#x9;&#x9;c-2.426-7.001-5.181-14.062-1.117-21.341c0.29-0.517,0.771-0.933,1.952-2.332c-0.672,3.892-1.994,6.801-1.486,9.405&#xA;&#x9;&#x9;&#x9;&#x9;&#x9;C124.308,42.143,126.773,49.65,128.468,57.3z"/>
          <path style="fill:#662D91;" d="M120.242,66.324c0.786,6.647,0.262,13.417,0.317,20.135c0.114,9.809-2.762,18.698-9.427,26.272&#xA;&#x9;&#x9;&#x9;&#x9;&#x9;c-6.185,7.026-14.756,9.231-24.087,9.287c-0.84,0.001-2.549-1.954-2.438-2.826c1.155-8.574-1.82-16.476-3.805-24.642&#xA;&#x9;&#x9;&#x9;&#x9;&#x9;c-1.257-5.198-0.773-10.873-0.34-16.274c0.484-6.02,2.328-11.939,2.601-17.948c0.345-7.266-0.541-14.531-5.417-20.77&#xA;&#x9;&#x9;&#x9;&#x9;&#x9;c-1.789-2.289-4.307-4.476-7.079-2.691c-1.951,1.258-3.593,4.228-3.654,6.478c-0.133,5.381,1.543,10.872,1.01,16.183&#xA;&#x9;&#x9;&#x9;&#x9;&#x9;c-0.765,7.651-2.01,15.445-4.554,22.702c-3.376,9.599-5.382,18.872-2.148,28.892c0.928,2.857,0.166,6.242-0.116,9.363&#xA;&#x9;&#x9;&#x9;&#x9;&#x9;c-0.252,2.807-2.372,3.873-5.142,3.55c-17.729-2.046-29.422-14.371-30.141-31.385c-0.444-10.397,0.913-20.399,2.609-30.534&#xA;&#x9;&#x9;&#x9;&#x9;&#x9;c1.737-10.347,7.921-18.023,15.746-24.847c6.884-6.003,14.188-11.632,20.722-17.96c2.952-2.849,4.385-7.046,6.717-10.513&#xA;&#x9;&#x9;&#x9;&#x9;&#x9;c0.891-1.318,2.371-2.292,3.582-3.417c0.889,1.185,2.259,2.268,2.568,3.565c2.244,9.423,8.14,16.502,15.996,22.395&#xA;&#x9;&#x9;&#x9;&#x9;&#x9;c4.778,3.574,9.396,7.351,14.354,10.692C117.114,48.065,119.158,57.123,120.242,66.324z"/>
          <path d="M61.459,133.841c-0.89,0.416-1.771,1.136-2.691,1.187C43.267,136,26.851,127.975,18.78,112.911&#xA;&#x9;&#x9;&#x9;&#x9;&#x9;c-5.604-10.454-7.727-21.235-6.17-32.555c1.326-9.638,3.322-19.205,5.478-28.712c1.695-7.439,3.189-14.787,0.784-22.304&#xA;&#x9;&#x9;&#x9;&#x9;&#x9;c-0.509-1.57-1.808-2.917-2.567-4.437c-0.419-0.841-0.479-1.844-0.698-2.776c0.48-0.102,0.95-0.203,1.43-0.305&#xA;&#x9;&#x9;&#x9;&#x9;&#x9;c8.954,10.28,5.617,21.621,3.25,32.831c-1.805,8.615-4.961,17.109-5.536,25.773c-0.818,12.526,0.784,24.958,9.078,35.837&#xA;&#x9;&#x9;&#x9;&#x9;&#x9;c6.505,8.549,14.962,13.914,26.001,15.549c2.84,0.424,5.77,0.199,8.63,0.532C59.509,132.464,60.469,133.314,61.459,133.841z"/>
        </g>
      </g>
    </g>
  </g>
  <g id="virus_x5F_purple"/>
  <g id="destroyed"/>
  <g id="nyt_x5F_exporter_x5F_info" style="display:none;"/>
</svg>