<?xml version="1.0" encoding="UTF-8" standalone="yes"?>
<svg version="1.1" xmlns="http://www.w3.org/2000/svg" xmlns:xlink="http://www.w3.org/1999/xlink" x="0px" y="0px" viewBox="0 0 144 144" style="enable-background:new 0 0 144 144;" xml:space="preserve">
  <g id="pill_x5F_half_x5F_green"/>
  <g id="pill_x5F_segment_x5F_green"/>
  <g id="virus_x5F_green"/>
  <g id="pill_x5F_half_x5F_orange"/>
  <g id="pill_x5F_segment_x5F_orange">
    <g>
      <path d="M44.193,142.603c-11.657-0.335-22.26-2.501-30.661-10.993c-6.469-6.539-8.788-14.905-9.571-23.717&#xA;&#x9;&#x9;&#x9;C3.119,98.419,2.264,88.92,2.086,79.419C1.897,69.285,2.277,59.126,2.826,49c0.345-6.364,0.676-12.903,2.381-18.984&#xA;&#x9;&#x9;&#x9;C9.313,15.369,19.254,5.664,34.999,3.731c9.333-1.146,18.77-1.926,28.163-1.959c7.37-0.026,14.859,0.805,20.732,6.496&#xA;&#x9;&#x9;&#x9;c0.852,0.826,3.526,0.748,4.782,0.056c13.295-7.328,30.731-5.113,42.03,4.748c7.066,6.166,9.723,13.85,10.238,22.606&#xA;&#x9;&#x9;&#x9;c0.57,9.666,0.999,19.352,1.074,29.032c0.069,8.992-0.304,17.992-0.688,26.98c-0.236,5.506-1.806,11.119-1.106,16.467&#xA;&#x9;&#x9;&#x9;c1.303,9.954-3.683,17.042-9.49,23.7c-5.436,6.232-12.823,9.77-21.166,9.975c-17.686,0.433-35.384,0.342-53.076,0.583&#xA;&#x9;&#x9;&#x9;C52.39,142.47,48.293,142.295,44.193,142.603z M110.851,18.825c-2.362,2.717-4.914,4.817-6.304,7.51&#xA;&#x9;&#x9;&#x9;c-1.185,2.297-0.906,5.305-1.497,7.949c-1.918,8.568-4.454,17.014-14.183,19.73c-5.884,1.642-12.147,3.062-18.175,2.842&#xA;&#x9;&#x9;&#x9;c-13.485-0.492-22.971-10.62-21.315-22.431c1.419-10.119,6.749-14.835,16.667-14.246c3.258,0.194,6.875,1.37,7.405,4.868&#xA;&#x9;&#x9;&#x9;c0.582,3.843-3.081,4.545-6.091,5.245c-0.874,0.203-1.766,0.506-2.532,0.961c-2.93,1.739-3.763,4.655-1.572,6.883&#xA;&#x9;&#x9;&#x9;c2.25,2.288,5.429,4.339,8.528,5.015c12.004,2.62,20.348-11.783,17.063-21.848c-3.247-9.951-9.572-15.25-20.827-15.676&#xA;&#x9;&#x9;&#x9;c-11.05-0.419-22.213,0.661-33.252,1.8C22.463,8.696,10.34,19.753,8.84,31.185C7.374,42.362,6.934,53.669,5.918,64.908&#xA;&#x9;&#x9;&#x9;c-0.331,3.659,1.695,4.41,4.668,4.435c2.178,0.018,4.363,0.01,6.532,0.183c10.339,0.825,16.604,8.806,16.891,17.178&#xA;&#x9;&#x9;&#x9;c0.468,13.659,10.117,21.002,22.149,20.733c11.046-0.247,22.103,0.025,33.151-0.14c10.105-0.151,17.347-6.762,18.845-16.214&#xA;&#x9;&#x9;&#x9;c0.84-5.297,2.226-10.551,3.852-15.672c1.731-5.451,6.038-8.087,11.622-8.626c4.504-0.435,9.024-0.699,14.167-1.087&#xA;&#x9;&#x9;&#x9;c-0.294-4.939-0.87-9.763-0.806-14.578c0.113-8.49,0.475-16.801-2.92-25.043c-3.251-7.891-8.216-13.537-16.091-16.573&#xA;&#x9;&#x9;&#x9;c-9.89-3.813-19.558-2.55-29.326,1.94c0.39,1.353,0.431,3.044,1.266,4.132c4.159,5.415,3.607,11.249,2.022,17.277&#xA;&#x9;&#x9;&#x9;c-3.426,13.029-21.423,19.286-30.261,9.545c-2.65-2.92-4-6.18-2.702-9.319c0.967-2.341,4.054-3.918,6.395-5.555&#xA;&#x9;&#x9;&#x9;c1.439-1.007,3.251-1.486,5.648-2.53c-6.327-2.642-13.1-1.188-15.721,2.641c-4.441,6.489-2.456,17.409,4.177,21.834&#xA;&#x9;&#x9;&#x9;c8.884,5.928,18.275,4.894,27.842,1.772c5.94-1.938,8.96-6.498,10.86-11.807c1.808-5.053,2.736-10.412,4.332-15.549&#xA;&#x9;&#x9;&#x9;C103.701,20.049,106.102,17.584,110.851,18.825z M91.267,139.516c7.655-0.869,15.057-0.882,21.993-2.678&#xA;&#x9;&#x9;&#x9;c12.588-3.258,20.862-11.105,22.05-24.782c0.509-5.855,0.782-11.739,1.523-17.564c1.037-8.149,1.971-16.255,0.187-24.645&#xA;&#x9;&#x9;&#x9;c-3.027-0.079-5.78-0.162-8.534-0.22c-7.545-0.159-13.409,4.672-14.657,12.065c-0.36,2.135-0.805,4.261-1.059,6.408&#xA;&#x9;&#x9;&#x9;c-1.337,11.301-6.98,19.185-18.195,22.502c-2.219,0.656-4.646,0.615-7.222,0.925C88.656,120.849,89.891,129.679,91.267,139.516z&#xA;&#x9;&#x9;&#x9; M59.961,116.311c0.642-5.129,0.623-4.904-4.356-5.327c-14.564-1.236-23.521-5.716-25.471-22.339&#xA;&#x9;&#x9;&#x9;c-0.814-6.941-3.084-14.172-12.316-14.959c-2.487-0.212-4.967-0.501-7.456-0.682c-3.32-0.242-4.887,1.432-4.728,4.65&#xA;&#x9;&#x9;&#x9;c0.135,2.714,0.428,5.42,0.69,8.126c1.091,11.274,0.435,22.731,4.551,33.669c3.019,8.024,8.181,14.272,16.21,16.402&#xA;&#x9;&#x9;&#x9;c8.298,2.201,17.134,2.524,25.772,3.194c1.327,0.103,4.708,1.68,4.993-2.415C58.324,129.841,59.234,123.082,59.961,116.311z&#xA;&#x9;&#x9;&#x9; M61.313,138.42c7.577,0.198,15.381,0.488,23.183,0.451c0.676-0.003,2.025-2.245,1.902-3.314&#xA;&#x9;&#x9;&#x9;c-0.843-7.302-1.876-14.589-3.175-21.823c-0.204-1.137-2.029-2.765-3.166-2.816c-3.925-0.175-7.903,0.051-11.804,0.559&#xA;&#x9;&#x9;&#x9;c-1.228,0.16-3.09,1.544-3.277,2.609C63.581,122.016,62.534,130.006,61.313,138.42z"/>
      <path style="fill:#F15A29;" d="M110.851,18.825c-4.749-1.24-7.15,1.224-8.343,5.062c-1.597,5.138-2.524,10.496-4.332,15.549&#xA;&#x9;&#x9;&#x9;c-1.899,5.309-4.919,9.869-10.86,11.807c-9.566,3.121-18.957,4.155-27.842-1.772c-6.632-4.425-8.618-15.345-4.177-21.834&#xA;&#x9;&#x9;&#x9;c2.621-3.829,9.395-5.283,15.721-2.641c-2.398,1.044-4.209,1.523-5.648,2.53c-2.341,1.637-5.427,3.215-6.395,5.555&#xA;&#x9;&#x9;&#x9;c-1.298,3.139,0.053,6.399,2.702,9.319c8.839,9.741,26.835,3.484,30.261-9.545c1.585-6.029,2.137-11.862-2.022-17.277&#xA;&#x9;&#x9;&#x9;c-0.835-1.088-0.876-2.779-1.266-4.132c9.768-4.49,19.437-5.753,29.326-1.94c7.875,3.036,12.841,8.682,16.091,16.573&#xA;&#x9;&#x9;&#x9;c3.395,8.242,3.033,16.553,2.92,25.043c-0.064,4.816,0.511,9.639,0.806,14.578c-5.143,0.387-9.663,0.651-14.167,1.087&#xA;&#x9;&#x9;&#x9;c-5.585,0.539-9.892,3.175-11.622,8.626c-1.626,5.121-3.013,10.375-3.852,15.672c-1.498,9.452-8.74,16.063-18.845,16.214&#xA;&#x9;&#x9;&#x9;c-11.049,0.166-22.105-0.107-33.151,0.14c-12.031,0.269-21.681-7.074-22.149-20.733c-0.287-8.372-6.551-16.353-16.891-17.178&#xA;&#x9;&#x9;&#x9;c-2.168-0.173-4.354-0.165-6.532-0.183c-2.973-0.025-4.998-0.776-4.668-4.435C6.934,53.669,7.374,42.362,8.84,31.185&#xA;&#x9;&#x9;&#x9;c1.5-11.433,13.623-22.489,25.926-23.759c11.039-1.139,22.202-2.219,33.252-1.8c11.256,0.427,17.58,5.725,20.827,15.676&#xA;&#x9;&#x9;&#x9;c3.284,10.065-5.059,24.468-17.063,21.848c-3.099-0.676-6.277-2.728-8.528-5.015c-2.191-2.228-1.358-5.144,1.572-6.883&#xA;&#x9;&#x9;&#x9;c0.766-0.454,1.658-0.757,2.532-0.961c3.01-0.701,6.673-1.402,6.091-5.245c-0.53-3.498-4.147-4.675-7.405-4.868&#xA;&#x9;&#x9;&#x9;c-9.918-0.59-15.248,4.127-16.667,14.246c-1.656,11.811,7.83,21.939,21.315,22.431c6.028,0.22,12.291-1.2,18.175-2.842&#xA;&#x9;&#x9;&#x9;c9.729-2.716,12.265-11.161,14.183-19.73c0.592-2.644,0.312-5.652,1.497-7.949C105.937,23.641,108.489,21.542,110.851,18.825z"/>
      <path style="fill:#F7941E;" d="M91.267,139.516c-1.376-9.837-2.61-18.667-3.914-27.989c2.576-0.31,5.003-0.269,7.222-0.925&#xA;&#x9;&#x9;&#x9;c11.216-3.316,16.858-11.201,18.195-22.502c0.254-2.148,0.699-4.273,1.059-6.408c1.248-7.393,7.112-12.224,14.657-12.065&#xA;&#x9;&#x9;&#x9;c2.754,0.058,5.507,0.141,8.534,0.22c1.784,8.39,0.85,16.496-0.187,24.645c-0.741,5.825-1.014,11.709-1.523,17.564&#xA;&#x9;&#x9;&#x9;c-1.188,13.677-9.462,21.524-22.05,24.782C106.323,138.634,98.922,138.647,91.267,139.516z"/>
      <path style="fill:#F7941E;" d="M59.961,116.311c-0.726,6.771-1.637,13.53-2.11,20.318c-0.286,4.095-3.667,2.518-4.993,2.415&#xA;&#x9;&#x9;&#x9;c-8.638-0.67-17.474-0.993-25.772-3.194c-8.029-2.129-13.191-8.378-16.21-16.402c-4.116-10.937-3.46-22.394-4.551-33.669&#xA;&#x9;&#x9;&#x9;c-0.262-2.706-0.555-5.413-0.69-8.126c-0.16-3.218,1.408-4.892,4.728-4.65c2.489,0.181,4.969,0.47,7.456,0.682&#xA;&#x9;&#x9;&#x9;c9.232,0.787,11.502,8.018,12.316,14.959c1.95,16.623,10.907,21.103,25.471,22.339C60.584,111.407,60.603,111.182,59.961,116.311z&#xA;&#x9;&#x9;&#x9;"/>
      <path style="fill:#BE1E2D;" d="M61.313,138.42c1.22-8.414,2.268-16.404,3.663-24.334c0.187-1.065,2.049-2.449,3.277-2.609&#xA;&#x9;&#x9;&#x9;c3.901-0.508,7.879-0.734,11.804-0.559c1.137,0.051,2.962,1.679,3.166,2.816c1.298,7.234,2.332,14.522,3.175,21.823&#xA;&#x9;&#x9;&#x9;c0.123,1.069-1.226,3.311-1.902,3.314C76.694,138.908,68.891,138.617,61.313,138.42z"/>
    </g>
  </g>
  <g id="virus_x5F_orange"/>
  <g id="pill_x5F_segment_x5F_purple"/>
  <g id="pill_x5F_half_x5F_purple"/>
  <g id="virus_x5F_purple"/>
  <g id="destroyed"/>
  <g id="nyt_x5F_exporter_x5F_info" style="display:none;"/>
</svg>