<?xml version="1.0" encoding="iso-8859-1"?>
<!-- Generator: Adobe Illustrator 18.1.1, SVG Export Plug-In . SVG Version: 6.00 Build 0)  -->
<svg version="1.1" xmlns="http://www.w3.org/2000/svg" xmlns:xlink="http://www.w3.org/1999/xlink" x="0px" y="0px"
	 viewBox="0 0 140.62 141.575" style="enable-background:new 0 0 140.62 141.575;" xml:space="preserve">
<g id="pill_x5F_green">
	<g>
		<path d="M104.348,58.295c6.791-10.459,8.157-20.129,2.773-30.241c-3.899-7.324-10.66-11.333-18.709-13.826
			c-2.029-0.629-4.562-0.869-5.905-2.153c-1.862-1.78-3.765-4.361-3.827-6.631c-0.041-1.516,2.926-4.19,4.834-4.425
			c5.159-0.636,10.52-0.68,15.711-0.152c6.063,0.617,12.284,1.422,17.988,3.324c12.924,4.308,19.603,13.822,21.533,25.977
			c1.323,8.33,1.967,16.837,1.863,25.247c-0.19,15.416-0.79,30.846-1.927,46.22c-0.772,10.443-3.205,21.058-11.946,28.231
			c-7.459,6.121-15.697,11.743-26.988,11.534c-18.652-0.345-37.333,0.591-55.966-0.065c-8.049-0.283-17.087-1.534-23.743-5.308
			c-9.03-5.12-16.506-12.946-17.796-23.791c-0.833-6.998-1.688-14.021-1.902-21.046c-0.282-9.286-0.729-18.665,0.31-27.859
			C2.163,49.96,1.707,36.243,6.829,23.377c4.56-11.454,11.993-20.073,26.149-21.411c8.529-0.806,17.08-1.46,25.639-1.946
			c2.062-0.117,4.445,0.28,6.219,1.208c1.822,0.953,4.456,3.026,4.273,4.287c-0.301,2.074-2.225,4.332-4.144,5.68
			c-1.687,1.186-4.271,1.444-6.518,1.746c-17.8,2.397-27.7,16.717-24.988,33.22c0.807,4.911,3.546,8.112,6.239,11.069
			c1.926-4.598,3.242-9.47,5.87-13.619c4.193-6.618,10.594-10.459,19.347-10.311c2.087,0.035,4.177-0.883,6.284-1.279
			c0.75-0.141,1.623-0.222,2.325-0.004c6.571,2.04,13.385,3.624,19.595,6.388c6.415,2.855,9.018,8.698,10.134,15.038
			C103.486,54.775,103.845,56.087,104.348,58.295z M134.228,77.361c0.55-13.305,2.1-26.658,1.256-39.894
			c-0.466-7.299-4.008-14.873-7.872-21.465c-4.458-7.606-13.49-9.427-22.108-10.587c-5.269-0.709-10.642-0.957-15.965-0.958
			c-2.587,0-7.013,0.519-7.399,1.714c-1.087,3.368,2.952,3.797,5.376,4.463c7.241,1.991,13.888,4.278,19.218,9.983
			c5.003,5.354,7.909,11.282,8.243,17.897c0.795,15.747-11.146,29.707-27.924,33.008c-1.94,0.382-4.005,0.335-6.01,0.311
			c-13.287-0.159-26.243,0.658-38.573-7.166c-10.23-6.492-13.26-14.694-13.745-24.815C28.078,26.41,39.46,12.289,55.719,9.658
			c1.801-0.291,3.828-0.041,5.391-0.734c1.212-0.537,1.863-2.155,2.764-3.292c-1.304-0.72-2.622-2.071-3.91-2.054
			c-6.373,0.081-12.749,0.408-19.105,0.86c-16.83,1.197-26.102,8.399-30.955,22.119C6.958,34.888,6.226,44.08,5.711,52.952
			C4.847,67.834,4.718,82.769,4.767,97.683c0.018,5.506,0.493,11.301,2.37,16.466c4.022,11.066,13.525,17.627,24.823,21.534
			c4.661,1.612,10.121,1.22,15.222,1.695c5.705,0.531,11.412,1.358,17.124,1.432c7.89,0.102,15.823-0.028,23.666-0.714
			c7.297-0.638,14.744-1.415,21.697-3.401c14.064-4.017,21.118-14.285,23.086-27.088C134.282,97.667,133.811,87.451,134.228,77.361z
			 M54.499,65.138c1.977-13.782,6.241-18.525,16.325-18.425c10.623,0.104,15.05,5.123,17.517,20.5
			c2.878-1.326,5.881-2.181,8.095-3.908c1.563-1.22,2.79-3.58,2.903-5.502c0.532-9.017-4.479-17.277-16.823-19.642
			c-2.862-0.548-5.861-0.476-8.709-1.066C61.334,34.509,47.475,40.48,45.015,53.4C43.517,61.267,45.613,64.195,54.499,65.138z
			 M84.144,61.873c-0.057-0.238-0.196-1.671-0.742-2.958c-1.84-4.338-7.343-8.659-14.543-7.681
			c-6.67,0.905-10.125,4.364-11.066,10.648c-0.451,3.011,0.435,4.488,4.13,4.628c4.868,0.184,9.735,0.882,14.559,1.61
			C81.038,68.808,83.905,67.044,84.144,61.873z"/>
		<path style="fill:#39B54A;" d="M134.228,77.359c-0.417,10.092,0.054,20.308-1.474,30.248
			c-1.968,12.803-9.021,23.071-23.086,27.088c-6.953,1.986-14.4,2.763-21.697,3.401c-7.844,0.685-15.776,0.816-23.666,0.714
			c-5.711-0.074-11.419-0.9-17.124-1.432c-5.101-0.475-10.56-0.083-15.222-1.695c-11.298-3.907-20.801-10.468-24.823-21.534
			c-1.878-5.165-2.352-10.96-2.37-16.466c-0.049-14.914,0.08-29.849,0.944-44.731c0.515-8.873,1.247-18.064,4.193-26.395
			C14.757,12.836,24.029,5.635,40.859,4.438c6.356-0.452,12.732-0.779,19.105-0.86c1.289-0.016,2.606,1.334,3.91,2.054
			c-0.901,1.137-1.552,2.755-2.764,3.292c-1.564,0.693-3.59,0.443-5.391,0.734C39.46,12.289,28.078,26.41,28.723,39.851
			c0.486,10.121,3.515,18.324,13.745,24.815c12.33,7.824,25.286,7.008,38.573,7.166c2.006,0.024,4.071,0.071,6.01-0.311
			c16.778-3.3,28.719-17.26,27.924-33.008c-0.334-6.614-3.24-12.542-8.243-17.897c-5.33-5.704-11.977-7.992-19.218-9.983
			c-2.424-0.666-6.463-1.095-5.376-4.463c0.386-1.195,4.812-1.714,7.399-1.714c5.323,0,10.697,0.248,15.965,0.958
			c8.618,1.16,17.65,2.981,22.108,10.587c3.863,6.592,7.406,14.166,7.872,21.465C136.328,50.702,134.778,64.056,134.228,77.359z"/>
		<path style="fill:#006838;" d="M54.499,65.138c-8.886-0.943-10.982-3.871-9.484-11.738c2.46-12.92,16.318-18.891,28.792-16.305
			c2.848,0.591,5.847,0.518,8.709,1.066C94.86,40.526,99.87,48.786,99.339,57.803c-0.113,1.922-1.34,4.282-2.903,5.502
			c-2.214,1.727-5.217,2.582-8.095,3.908c-2.467-15.377-6.894-20.396-17.517-20.5C60.74,46.613,56.476,51.356,54.499,65.138z"/>
		<path style="fill:#8DC63F;" d="M84.144,61.873c-0.239,5.171-3.105,6.935-7.661,6.247c-4.825-0.729-9.691-1.426-14.559-1.61
			c-3.695-0.14-4.581-1.617-4.13-4.628c0.941-6.284,4.396-9.742,11.066-10.648c7.201-0.977,12.703,3.343,14.543,7.681
			C83.948,60.202,84.087,61.635,84.144,61.873z"/>
	</g>
</g>
<g id="Layer_1">
</g>
</svg>
