<?xml version="1.0" encoding="iso-8859-1"?>
<!-- Generator: Adobe Illustrator 18.1.1, SVG Export Plug-In . SVG Version: 6.00 Build 0)  -->
<svg version="1.1" xmlns="http://www.w3.org/2000/svg" xmlns:xlink="http://www.w3.org/1999/xlink" x="0px" y="0px"
	 viewBox="0 0 137.633 140.182" style="enable-background:new 0 0 137.633 140.182;" xml:space="preserve">
<g id="virus_x5F_purple">
	<g id="EngFRM.tif">
		<g>
			<path d="M15.223,106.899c-2.729-1.527-5.192-3.084-7.81-4.322c-2.965-1.403-5.613-2.794-5.555-6.688
				c0.056-3.776,2.079-6.05,5.243-7.674C7.85,87.83,8.516,87.29,9.2,86.835c-0.256-0.431-0.345-0.814-0.542-0.88
				C0.348,83.2-2.01,75.947,1.713,66.264c3.533-9.187,8.566-17.399,14.549-25.184c4.412-5.74,8.295-11.876,12.528-17.755
				c5.475-7.604,13.018-12.79,21.536-16.303c10.986-4.531,22.676-5.911,34.542-6.647c8.464-0.526,16.691-0.702,25.128,0.865
				c8.634,1.604,14.938,5.678,19.293,13.006c5.262,8.854,7.412,18.594,7.677,28.71c0.37,14.154,1.12,28.36,0.293,42.463
				c-0.537,9.161-2.904,18.396-5.755,27.183c-2.011,6.197-7.214,11.039-13.266,13.797c-7.258,3.307-14.863,6.024-22.545,8.218
				c-7.276,2.079-14.783,3.774-22.302,4.51c-9.532,0.934-19.218,1.373-28.762,0.798c-6.82-0.411-13.493-2.84-18.197-8.568
				c-3.66-4.457-7.723-7.134-14.176-5.112c-1.856,0.582-6.422-1.802-6.876-3.555c-0.801-3.087-0.239-7.202,1.347-10.004
				C8.067,110.316,11.663,109.194,15.223,106.899z M133.34,71.973c-3.193,2.71-5.801,5.318-8.789,7.391
				c-13.396,9.295-31.439,0.53-35.714-14.068c-3.155-10.771-1.78-21.017,2.355-30.876c6.044-14.41,17.623-24.511,34.522-18.105
				c-3.068-6.164-7.788-9.729-12.884-10.775c-2.48,1.687-4.13,2.809-5.78,3.931c-0.417-1.638-0.833-3.275-1.383-5.436
				c-1.643-0.196-4.358-0.981-6.984-0.753C86.549,4.331,74.255,4.761,62.37,7.135C49.526,9.7,38.354,16.24,30.463,27.096
				c-6.553,9.015-13.38,17.905-19.061,27.447c-3.552,5.965-6.34,12.863-7.404,19.659c-1.158,7.396,1.276,8.925,8.693,6.281
				c2.889-1.03,6.238-1.044,9.38-1.061c3.541-0.019,6.24-2.293,6.402-5.991c0.168-3.841-1.542-5.896-5.571-5.854
				c-1.134,0.012-2.27-0.168-3.405-0.26c-0.131-0.387-0.261-0.774-0.392-1.161c1.411-0.718,2.78-1.942,4.24-2.06
				c4.457-0.359,7.519,3.779,7.964,10.294c0.276,4.046-2.653,7.403-6.824,7.687c-1.824,0.124-3.665,0.061-5.497,0.02
				c-3.667-0.082-5.723,2.149-6.254,5.24c-0.269,1.564,0.882,3.654,1.953,5.098c2.559,3.452,5.452,6.661,8.21,9.969
				c-0.244,0.318-0.488,0.636-0.732,0.954c-1.309-0.875-2.861-1.536-3.874-2.67c-1.98-2.216-3.487-4.856-5.53-7.004
				c-1.102-1.158-2.884-2.188-4.406-2.258c-0.889-0.04-2.623,1.921-2.633,2.994c-0.013,1.542,0.769,3.838,1.962,4.514
				c5.385,3.048,11.039,5.633,16.588,8.399c1.128,0.562,2.224,1.186,3.335,1.781c-0.129,0.368-0.258,0.736-0.388,1.104
				c-3.313,0-6.629-0.086-9.939,0.021c-4.311,0.14-9.299,3.646-9.743,7.235c-0.174,1.411,1.092,2.996,1.703,4.502
				c1.234-0.915,2.912-1.579,3.616-2.794c1.992-3.438,4.009-6.488,8.522-6.06c-2.217,2.571-4.38,5.08-6.211,7.203
				c4.341,2.462,8.46,3.638,10.773,6.331c6.612,7.702,15.111,10.033,24.604,9.809c6.784-0.16,13.539-1.279,20.325-1.684
				c10.691-0.638,21.153-2.384,31.067-6.425c6.17-2.515,12.835-4.704,17.953-8.7c10.776-8.412,11.482-21.269,12.999-33.204
				c-1.987-0.257-3.726-0.483-5.466-0.708c-0.035-0.616-0.07-1.232-0.105-1.848c1.722-0.567,3.444-1.134,5.547-1.826
				C132.995,79.31,133.157,75.86,133.34,71.973z M102.692,53.843c-0.413,0.156-0.825,0.313-1.238,0.469
				c1.535,3.922,2.088,8.78,4.808,11.573c5.823,5.98,14.779,3.935,20.647-3.684c7.337-9.528,6.151-20.214,3.653-30.936
				c-0.233-0.999-1.273-1.974-2.181-2.632c-6.045-4.383-15.127-2.8-19.217,3.537C104.927,38.737,102.241,45.857,102.692,53.843z
				 M132.626,60.845c-3.379,3.103-6.088,6.031-9.239,8.378c-4.491,3.345-9.913,4.699-15.036,2.33
				c-5.628-2.602-9.109-7.286-9.338-13.929c-0.255-7.388,0.155-14.642,3.748-21.285c4.022-7.437,10.696-14.374,19.611-13.131
				c2.263,0.316,4.495,0.854,8.174,1.568c-1.778-2.078-2.476-3.492-3.617-4.134c-10.84-6.101-21.403-3.404-28.273,6.928
				c-4.456,6.702-6.373,14.007-7.281,22.056c-0.712,6.32-0.327,12.152,1.7,17.896c3.189,9.039,16.345,14.424,26.119,11.046
				C126.543,76.028,132.874,68.041,132.626,60.845z"/>
			<path style="fill:#754B9E;" d="M133.34,71.973c-0.183,3.887-0.345,7.337-0.475,10.096c-2.104,0.693-3.825,1.259-5.547,1.826
				c0.035,0.616,0.07,1.232,0.105,1.848c1.739,0.225,3.479,0.451,5.466,0.708c-1.517,11.935-2.223,24.792-12.999,33.204
				c-5.118,3.996-11.784,6.185-17.953,8.7c-9.914,4.041-20.376,5.788-31.067,6.425c-6.785,0.405-13.541,1.523-20.325,1.684
				c-9.493,0.224-17.992-2.107-24.604-9.809c-2.312-2.694-6.432-3.869-10.773-6.331c1.83-2.123,3.994-4.632,6.211-7.203
				c-4.513-0.427-6.529,2.623-8.522,6.06c-0.705,1.216-2.383,1.879-3.616,2.794c-0.611-1.506-1.877-3.091-1.703-4.502
				c0.443-3.589,5.432-7.095,9.743-7.235c3.31-0.107,6.626-0.021,9.939-0.021c0.129-0.368,0.258-0.736,0.388-1.104
				c-1.111-0.595-2.207-1.219-3.335-1.781c-5.549-2.766-11.203-5.351-16.588-8.399c-1.194-0.676-1.975-2.972-1.962-4.514
				c0.009-1.072,1.744-3.034,2.633-2.994c1.522,0.069,3.304,1.099,4.406,2.258c2.043,2.147,3.55,4.787,5.53,7.004
				c1.013,1.134,2.565,1.795,3.874,2.67c0.244-0.318,0.488-0.636,0.732-0.954c-2.758-3.307-5.65-6.517-8.21-9.969
				c-1.071-1.444-2.222-3.534-1.953-5.098c0.531-3.091,2.588-5.322,6.254-5.24c1.832,0.041,3.672,0.104,5.497-0.02
				c4.171-0.284,7.1-3.64,6.824-7.687c-0.444-6.515-3.506-10.654-7.964-10.294c-1.46,0.118-2.829,1.342-4.24,2.06
				c0.131,0.387,0.261,0.774,0.392,1.161c1.135,0.092,2.271,0.272,3.405,0.26c4.029-0.042,5.739,2.013,5.571,5.854
				c-0.162,3.698-2.861,5.973-6.402,5.991c-3.142,0.016-6.491,0.031-9.38,1.061c-7.417,2.644-9.851,1.115-8.693-6.281
				c1.064-6.796,3.853-13.694,7.404-19.659c5.682-9.542,12.508-18.432,19.061-27.447C38.354,16.24,49.526,9.7,62.37,7.135
				c11.885-2.374,24.179-2.804,36.314-3.853c2.626-0.227,5.341,0.558,6.984,0.753c0.55,2.161,0.966,3.798,1.383,5.436
				c1.65-1.122,3.3-2.244,5.78-3.931c5.096,1.046,9.815,4.611,12.884,10.775C108.814,9.909,97.235,20.01,91.191,34.42
				c-4.135,9.859-5.509,20.105-2.355,30.876c4.275,14.598,22.319,23.364,35.714,14.068C127.538,77.291,130.147,74.683,133.34,71.973
				z M64.189,100.551c0.861-6.241-7.04-11.782-13.65-12.02c-7.085-0.255-12.392,5.029-12.772,12.324
				c-0.254,4.876,7.273,10.338,14.144,10.264C57.863,111.054,64.127,105.662,64.189,100.551z M64.111,43.748
				c-2.675-2.429-5.267-1.214-7.698,0.239c-6.128,3.664-12.293,6.742-19.873,4.734c-1.003-0.266-2.512,1.338-3.889,2.136
				c2.666,1.374,4.688,1.841,5.807,3.096c4.222,4.735,11.13,5.312,15.656,0.771C57.51,51.316,60.607,47.618,64.111,43.748z
				 M54.247,124.018c2.42-2.9,3.866-4.632,5.313-6.365c-1.751-1.256-3.359-3.21-5.289-3.598c-2.637-0.53-4.832,1.456-4.482,4.126
				C50.003,119.82,52.019,121.227,54.247,124.018z M67.595,95.746c2.187-2.727,4.426-4.274,4.593-6.017
				c0.253-2.626-2.223-4.512-4.786-3.77c-1.64,0.475-3.507,2.641-3.821,4.315C63.358,91.466,65.549,93.103,67.595,95.746z
				 M64.108,107.897c2.786,1.946,4.491,4.05,5.875,3.861c1.574-0.216,3.923-2.434,3.987-3.867c0.069-1.547-2.28-4.605-3.28-4.49
				C68.826,103.614,67.174,105.648,64.108,107.897z M88.353,20.997c-2.097-1.469-3.46-3.164-4.562-3.011
				c-1.428,0.198-2.648,1.867-3.958,2.903c1.105,1.046,2.199,2.914,3.319,2.93C84.574,23.839,86.018,22.356,88.353,20.997z
				 M86.088,84.742c-2.19-1.769-3.475-3.489-4.273-3.29c-1.155,0.287-2.493,1.863-2.724,3.08c-0.157,0.83,1.371,2.721,2.275,2.808
				C82.463,87.445,83.696,86.148,86.088,84.742z M116.596,96.467c-1.445-1.538-2.653-3.409-3.149-3.24
				c-1.485,0.507-2.691,1.812-4.006,2.806c1.197,1.086,2.251,2.509,3.661,3.091C113.662,99.355,115.008,97.725,116.596,96.467z
				 M105.892,98.452c-2.154-1.711-3.452-3.502-4.487-3.364c-1.178,0.157-2.477,1.898-3.004,3.23
				c-0.229,0.579,1.459,2.724,2.061,2.641C101.998,100.745,103.414,99.679,105.892,98.452z M92.74,14.591
				c0.677,0.321,1.355,0.642,2.032,0.962c1.141-1.596,2.282-3.193,3.423-4.789c-1.439-0.602-2.879-1.204-4.318-1.805
				C93.498,10.836,93.119,12.714,92.74,14.591z M80.528,73.291c-1.574-1.213-2.841-2.886-3.727-2.707
				c-1.274,0.257-2.773,1.702-3.181,2.956c-0.215,0.66,1.819,2.924,2.601,2.814C77.559,76.165,78.71,74.681,80.528,73.291z
				 M78.391,44.693c-1.934-1.615-3.443-3.303-3.796-3.092c-1.225,0.73-2.479,2.003-2.84,3.308c-0.175,0.631,1.622,2.537,2.512,2.528
				C75.387,47.426,76.491,46.044,78.391,44.693z M77.434,36.03c1.332-1.844,2.913-3.099,2.729-4.003
				c-0.253-1.24-1.843-2.214-2.86-3.302c-0.986,0.971-2.79,1.97-2.757,2.906C74.589,32.879,76.061,34.078,77.434,36.03z
				 M89.751,88.494c-1.117,1.949-2.263,3.189-2.44,4.551c-0.1,0.771,1.393,1.743,2.168,2.625c1.037-1.246,2.374-2.373,2.954-3.801
				C92.649,91.341,91.082,90.104,89.751,88.494z M70.793,61.866c0.704,0.633,1.408,1.265,2.112,1.898
				c1.36-1.315,2.72-2.63,4.08-3.944c-1.056-0.906-2.113-1.813-3.169-2.719C72.809,58.688,71.801,60.277,70.793,61.866z
				 M126.87,92.749c-2.029-1.44-3.084-2.712-4.254-2.826c-0.722-0.07-2.147,1.565-2.258,2.545c-0.076,0.675,1.486,2.038,2.451,2.177
				C123.751,94.78,124.863,93.751,126.87,92.749z"/>
			<path style="fill:#754B9E;" d="M102.692,53.843c-0.452-7.986,2.235-15.106,6.472-21.672c4.09-6.338,13.172-7.92,19.217-3.537
				c0.908,0.658,1.948,1.633,2.181,2.632c2.498,10.722,3.685,21.408-3.653,30.936c-5.867,7.619-14.823,9.663-20.647,3.684
				c-2.72-2.793-3.273-7.651-4.808-11.573C101.867,54.156,102.28,53.999,102.692,53.843z"/>
			<path style="fill:#5151A3;" d="M132.626,60.845c0.248,7.196-6.083,15.183-13.432,17.723c-9.775,3.378-22.93-2.007-26.119-11.046
				c-2.027-5.744-2.412-11.576-1.7-17.896c0.907-8.049,2.824-15.354,7.281-22.056c6.87-10.333,17.433-13.029,28.273-6.928
				c1.141,0.642,1.839,2.056,3.617,4.134c-3.679-0.714-5.91-1.253-8.174-1.568c-8.915-1.243-15.589,5.694-19.611,13.131
				c-3.593,6.644-4.003,13.897-3.748,21.285c0.229,6.643,3.71,11.327,9.338,13.929c5.123,2.368,10.545,1.015,15.036-2.33
				C126.538,66.877,129.247,63.948,132.626,60.845z"/>
			<path d="M64.189,100.551c-0.062,5.111-6.327,10.503-12.278,10.568c-6.871,0.075-14.398-5.388-14.144-10.264
				c0.38-7.295,5.687-12.579,12.772-12.324C57.149,88.769,65.05,94.31,64.189,100.551z M51.301,107.53
				c6.32,0.004,9.225-2.4,9.255-7.658c0.027-4.771-4.002-7.777-10.443-7.793c-5.451-0.013-7.932,2.428-7.924,7.796
				C42.198,105.265,44.888,107.526,51.301,107.53z"/>
			<path d="M64.111,43.748c-3.503,3.87-6.601,7.569-9.996,10.976c-4.526,4.541-11.433,3.963-15.656-0.771
				c-1.119-1.255-3.141-1.721-5.807-3.096c1.377-0.797,2.886-2.401,3.889-2.136c7.58,2.009,13.745-1.07,19.873-4.734
				C58.843,42.533,61.435,41.319,64.111,43.748z M43.325,53.73c5.207,2.397,8.881,0.884,10.331-4.012
				C50.285,51.027,46.913,52.337,43.325,53.73z"/>
			<path d="M54.247,124.018c-2.228-2.79-4.243-4.198-4.458-5.837c-0.35-2.67,1.845-4.656,4.482-4.126
				c1.93,0.388,3.538,2.342,5.289,3.598C58.113,119.385,56.667,121.118,54.247,124.018z"/>
			<path d="M67.595,95.746c-2.046-2.643-4.238-4.279-4.014-5.472c0.314-1.674,2.18-3.84,3.821-4.315
				c2.563-0.742,5.039,1.144,4.786,3.77C72.021,91.471,69.783,93.019,67.595,95.746z"/>
			<path d="M64.108,107.897c3.066-2.249,4.717-4.283,6.581-4.496c1.001-0.114,3.349,2.943,3.28,4.49
				c-0.064,1.433-2.412,3.651-3.987,3.867C68.599,111.948,66.895,109.843,64.108,107.897z"/>
			<path d="M88.353,20.997c-2.335,1.359-3.779,2.843-5.201,2.822c-1.12-0.016-2.214-1.884-3.319-2.93
				c1.31-1.036,2.53-2.705,3.958-2.903C84.893,17.833,86.256,19.528,88.353,20.997z"/>
			<path d="M86.088,84.742c-2.391,1.406-3.625,2.703-4.721,2.598c-0.905-0.086-2.433-1.978-2.275-2.808
				c0.231-1.217,1.569-2.793,2.724-3.08C82.612,81.253,83.898,82.973,86.088,84.742z"/>
			<path d="M116.596,96.467c-1.588,1.258-2.934,2.888-3.494,2.657c-1.409-0.582-2.464-2.005-3.661-3.091
				c1.315-0.994,2.521-2.299,4.006-2.806C113.943,93.057,115.151,94.929,116.596,96.467z"/>
			<path d="M105.892,98.452c-2.478,1.227-3.894,2.294-5.431,2.506c-0.602,0.083-2.29-2.062-2.061-2.641
				c0.528-1.331,1.826-3.073,3.004-3.23C102.441,94.95,103.738,96.741,105.892,98.452z"/>
			<path d="M92.74,14.591c0.379-1.878,0.758-3.755,1.137-5.633c1.439,0.602,2.879,1.204,4.318,1.805
				c-1.141,1.596-2.282,3.193-3.423,4.789C94.095,15.233,93.417,14.912,92.74,14.591z"/>
			<path d="M80.528,73.291c-1.819,1.391-2.97,2.875-4.307,3.063c-0.781,0.11-2.815-2.154-2.601-2.814
				c0.408-1.254,1.907-2.699,3.181-2.956C77.687,70.404,78.955,72.077,80.528,73.291z"/>
			<path d="M78.391,44.693c-1.9,1.351-3.005,2.733-4.124,2.744c-0.89,0.009-2.687-1.897-2.512-2.528
				c0.361-1.305,1.615-2.578,2.84-3.308C74.948,41.39,76.457,43.078,78.391,44.693z"/>
			<path d="M77.434,36.03c-1.373-1.951-2.845-3.15-2.889-4.399c-0.033-0.936,1.771-1.935,2.757-2.906
				c1.017,1.088,2.608,2.061,2.86,3.302C80.347,32.93,78.766,34.186,77.434,36.03z"/>
			<path d="M89.751,88.494c1.33,1.611,2.897,2.847,2.683,3.375c-0.58,1.428-1.917,2.555-2.954,3.801
				c-0.775-0.882-2.268-1.854-2.168-2.625C87.488,91.682,88.634,90.443,89.751,88.494z"/>
			<path d="M70.793,61.866c1.008-1.589,2.015-3.177,3.023-4.766c1.056,0.906,2.113,1.813,3.169,2.719
				c-1.36,1.315-2.72,2.63-4.08,3.944C72.201,63.131,71.497,62.498,70.793,61.866z"/>
			<path d="M126.87,92.749c-2.007,1.002-3.119,2.031-4.061,1.895c-0.965-0.139-2.527-1.501-2.451-2.177
				c0.11-0.98,1.535-2.616,2.258-2.545C123.786,90.036,124.841,91.309,126.87,92.749z"/>
			<path style="fill:#5151A3;" d="M51.301,107.53c-6.413-0.004-9.103-2.264-9.112-7.655c-0.008-5.368,2.473-7.809,7.924-7.796
				c6.441,0.015,10.469,3.022,10.443,7.793C60.526,105.13,57.621,107.534,51.301,107.53z"/>
			<path style="fill:#FFFFFF;" d="M43.325,53.73c3.588-1.394,6.96-2.703,10.327-4.017C52.207,54.614,48.533,56.127,43.325,53.73z"/>
		</g>
	</g>
</g>
<g id="Layer_1">
</g>
</svg>
