<?xml version="1.0" encoding="iso-8859-1"?>
<!-- Generator: Adobe Illustrator 18.1.1, SVG Export Plug-In . SVG Version: 6.00 Build 0)  -->
<svg version="1.1" xmlns="http://www.w3.org/2000/svg" xmlns:xlink="http://www.w3.org/1999/xlink" x="0px" y="0px"
	 viewBox="0 0 137.759 139.935" style="enable-background:new 0 0 137.759 139.935;" xml:space="preserve">
<g id="virus_x5F_orange">
	<g>
		<path d="M14.777,123c-3.528,0.787-6.936,1.904-10.396,2.147c-1.43,0.1-3.431-1.348-4.279-2.73
			c-0.455-0.741,0.72-3.065,1.619-4.277c2.652-3.578,5.534-6.958,8.54-10.681c-8.881-6.414-7.416-13.516-2.145-20.385
			c-2.177-1.801-3.913-3.275-5.686-4.696c-2.328-1.865-2.224-4.07-1.267-6.775c1.932-5.459,3.717-10.986,5.346-16.559
			c2.129-7.287,6.624-12.067,12.88-15.295c1.016-0.524,2.063-1.918,2.298-3.095c0.718-3.591,1.047-7.273,1.703-12.253
			c-5.128,4.657-9.202,2.344-13.416,0.134c-2.943-1.544-3.743-3.843-3.621-7.171c0.115-3.155,2.277-3.484,4.122-4.757
			c2.188-1.51,4.454-3.512,5.683-5.901c3.827-7.436,9.37-11.631,17.207-10.533c3.455,0.484,6.603,3.245,9.994,4.689
			c1.401,0.597,3.33,1.103,4.583,0.534c8.047-3.659,16.165-5.34,24.942-3.54c4.736,0.971,9.686,0.679,14.531,1.081
			c4.813,0.399,9.024,2.61,13.166,5.143c0.942,0.576,3.12,0.554,3.646-0.143c2.13-2.824,4.812-2.738,7.656-2.526
			c5.943,0.442,11.975,0.558,16.84,5.099c1.03,0.961,2.299,1.899,2.835,3.156c3.611,8.484,6.189,17.243,5.121,26.785
			c-0.058,0.516-0.092,1.251-0.398,1.486c-3.929,3.003-2.25,6.466-1.091,10.213c2.965,9.586,3.159,19.417,1.63,29.353
			c-0.546,3.548-0.449,7.226-1.142,10.731c-1.434,7.256-2.518,14.724-5.001,21.574c-3.112,8.585-9.074,15.153-16.164,20.371
			c-6.542,4.814-14.003,5.836-21.636,5.751c-9.932-0.111-19.862-0.669-29.793-0.673c-9.557-0.004-19.114,0.663-28.669,0.601
			c-3.66-0.024-7.582-0.562-10.911-2.076C17.499,135.053,13.342,130.42,14.777,123z M21.723,70.597
			c1.207-0.852,1.796-1.626,2.39-1.63c3.903-0.03,5.651,3.373,7.037,6.311c0.821,1.741,0.54,4.901-0.431,6.661
			c-2.933,5.312-7.628,4.845-12.201,2.922c-3.692-1.552-6.281-0.055-7.486,3.362c-1.24,3.517-1.826,7.394-2.143,11.168
			c-0.254,3.032,1.924,4.213,4.784,3.842c2.486-0.323,5.405-0.75,7.523,0.301c10.701,5.308,22.154,5.291,33.489,6.285
			c1.842,0.161,3.809,0.24,5.446,1.021c1.164,0.555,2.466,2.148,2.61,3.422c0.136,1.199-1.164,2.587-1.832,3.893
			c-0.396,0.043-0.791,0.087-1.187,0.13c0.7-4.475-1.575-4.536-4.284-4.684c-9.304-0.51-18.601-1.206-27.89-1.979
			c-3.959-0.33-7.471,1.785-7.487,4.826c-0.013,2.463,0.192,4.991-0.245,7.374c-0.902,4.92,0.722,8.709,5.136,9.607
			c5.214,1.061,10.522,1.714,15.817,2.121c3.09,0.238,6.237-0.562,9.354-0.526c7.583,0.088,15.186,0.884,22.74,0.486
			c9.869-0.52,19.679,1.266,29.711-1.88c6.192-1.942,11.383-4.486,15.708-9.066c9.586-10.15,11.529-23.814,13.236-37.221
			c1.395-10.955,2.128-22.115-0.729-33.038c-0.685-2.618-1.396-5.475-4.769-5.697c-5.729-0.377-7.416,0.541-8.769,4.485
			c-3.673,10.7-3.437,21.979-4.394,33.089c-0.722,8.383-1.252,16.808-2.455,25.115c-1.318,9.101-4.989,16.809-13.57,20.456
			c-1.173,0.499-2.534,0.485-3.808,0.708c-0.209-0.464-0.418-0.928-0.626-1.392c5.599-2.941,9.755-7.253,11.762-12.752
			c-2.457-0.869-5.565-0.932-6.863-2.618c-4.208-5.466-4.349-18.706,1.044-23.033c-1.613-4.035-3.214-8.041-5.146-12.874
			c0.923,18.193-2.484,31.652-7.423,36.601c-0.348-1.182-1.136-2.418-0.836-3.059c4.049-8.629,4.233-17.995,4.36-27.282
			c0.11-8.038,0.436-15.935,4.125-24.168c-4.605,1.896-6.33,5.451-7.58,9.082c-3.143,9.13-8.327,15.37-17.53,17.782
			c-10.349,2.712-20.005,2.846-28.85-4.64c-0.482-0.408-2.727,0.387-3.025,1.142c-2.838,7.171-0.301,14.135,7.162,15.417
			c4.9,0.842,9.955,0.975,14.931,0.873c5.6-0.115,10.172,1.378,13.477,6.622c1.724,2.736,2.455,7.814,0.969,10.437
			c-1.773,3.131-6.474,5.216-10.53,4.149c1.598-1.111,2.723-2.004,3.939-2.717c3.116-1.827,3.777-4.847,3.404-8.256
			c-0.32-2.92-1.895-4.843-4.636-5.428c-1.812-0.387-3.637-0.78-5.473-0.937c-5.084-0.434-10.245-0.315-15.247-1.231
			c-4.655-0.852-8.974-2.724-11.377-8.019c-2.423-5.339-1.132-9.935,1.58-14.301c1.093-1.76,0.85-2.9,0.28-4.645
			c-1.22-3.734-2.311-7.555-3.031-11.432c-1.083-5.833,1.649-10.936,3.172-16.264c0.752-2.632,0.787-5.051-2.54-5.726
			c-2.037-0.413-4.042-1.006-5.662-1.417c-1.419,1.336-2.448,2.818-3.819,3.51c-7.197,3.634-11.574,9.597-13.606,17.832
			c-0.964,3.908-1.91,7.974-3.733,11.436c-1.524,2.895,0.215,4.473,1.224,6.011c0.613,0.935,3.149,1.353,4.274,0.771
			c3.59-1.859,6.977-1.037,10.407,0.049c2.79,0.883,4.805,0.454,6.088-2.721c1.302-3.221-0.261-5.104-2.341-6.783
			C24.487,71.783,23.381,71.438,21.723,70.597z M102.239,16.746c-0.376-0.679-0.918-1.972-1.714-3.045
			c-4.396-5.916-10.643-7.746-17.163-8.094C75.444,5.186,67.483,5.24,59.56,5.593c-6.319,0.282-11.571,3.437-15.387,8.981
			c-0.461,0.67-0.518,2.073-0.206,2.887c1.723,4.488,4.711,7.172,9.257,8.433c9.263,2.57,18.611,3.326,28.06,2.394
			c5.02-0.495,10.076-1.311,14.935-2.712C99.594,24.602,101.743,21.623,102.239,16.746z M83.822,53.649
			c0.005-0.538,0.01-1.077,0.016-1.615c-8.808-1.249-17.616-2.499-26.592-3.772c-0.401,10.684-1.228,21.404-15.643,20.73
			c2.948,5.626,6.193,9.878,11.969,10.456c3.365,0.337,6.832,0.538,10.157,0.044c4.624-0.687,8.725-3.198,10.25-8.156
			c1.771-5.758,2.686-11.824,3.958-17.687C79.784,53.649,81.803,53.649,83.822,53.649z M112.42,31.184
			c-2.352,1.893-3.892,3.537-5.732,4.547c-9.857,5.41-20.607,5.474-31.265,5.433c-5.682-0.022-11.401-0.762-17.032-1.689
			c-8.854-1.458-18.056-2.13-24.632-10.23c-0.878-1.081-3.195-2.346-3.708-1.922c-1.289,1.065-2.313,2.945-2.713,4.693
			c-0.389,1.699-0.056,3.689,0.334,5.454c0.175,0.794,1.281,1.902,1.93,1.875c0.749-0.031,1.828-1.019,2.091-1.842
			c0.313-0.979-0.089-2.224-0.181-3.349c2.466-0.573,3.458,0.291,3.689,3.036c0.292,3.468,1.594,6.489,5.506,6.657
			c2.006,0.087,4.018-0.004,6.027,0.007c4.81,0.026,9.837-0.898,14.388,0.29c10.944,2.858,21.962,3.584,33.03,2.569
			c5.7-0.522,11.399-1.812,16.279-6.079C113.69,37.787,112.893,35.059,112.42,31.184z M40.01,11.418
			c-2.103,1.333-4.151,1.999-5.279,3.481c-2.232,2.933-0.925,11.225,2.075,13.392c2.654,1.918,5.513,3.878,8.545,4.733
			c5.945,1.675,12.032,3.101,18.138,3.694c7.269,0.706,14.644,0.878,21.928,0.426c5.228-0.324,10.348-2.627,15.577-2.976
			c4.489-0.3,6.574-3.275,8.037-6.667c1.351-3.129,1.607-6.893-1.407-10.4c-1.173,1.857-2.04,3.412-3.075,4.824
			c-1.41,1.926-2.672,4.174-4.483,5.527c-5.559,4.152-12.085,5.427-18.644,5.568c-9.447,0.203-18.773-1.015-27.98-3.668
			C43.441,26.47,40.43,23.06,40.01,11.418z M124.237,12.349c1.494,4.264,3.166,8.469,4.375,12.825c0.377,1.36-0.498,3.126-0.8,4.706
			c-0.967-1.141-2.293-2.114-2.832-3.455c-1.562-3.884-2.341-8.209-4.287-11.821c-2.845-5.281-9.361-8.033-14.432-2.254
			c4.363,1.656,6.056,3.096,7.299,7.697c1.187,4.391,2.606,8.993,2.452,13.443c-0.156,4.493,0.8,9.416,4.142,10.185
			c5.629,1.294,11.362-0.731,12.001-5.784C133.372,28.27,130.909,19.445,124.237,12.349z M115.5,46.341
			c-0.738-0.094-1.712-0.547-2.085-0.215c-4.616,4.11-10.374,3.873-15.765,5.181c-5.384,1.306-11.489,1.874-14.746,7.549
			c-2.347,4.089-4.235,8.704-5.322,13.358c-1.314,5.628-5.055,8.394-9.261,10.018c-6.341,2.448-12.888,2.998-19.61,0.216
			c-6.884-2.849-13.009-14.019-10.961-21.439c1.099-3.981,2.212-7.958,3.318-11.937c-1.307-0.028-2.233,0.458-2.48,1.206
			c-0.986,2.986-1.943,6.011-2.575,9.101c-1.293,6.32-0.738,12.619,2.795,17.854c1.985,2.941,5.144,5.151,8.111,7.091
			c6.441,4.213,13.617,2.579,20.356,1.524c6.293-0.985,10.603-5.704,13.463-12.031c1.956-4.328,4.265-8.588,7.042-12.338
			c3.832-5.173,9.379-5.701,15.233-5.629C110.314,55.94,113.644,53.082,115.5,46.341z M110.602,71.637
			c-0.346-7.384-2.597-10.829-7.285-7.972c-2.108,1.284-3.881,4.233-4.633,6.823c-0.942,3.245-0.804,6.895-0.879,10.377
			c-0.034,1.556,0.088,3.607,0.958,4.58c1.327,1.484,3.316,2.897,5.119,3.053c1.238,0.107,3.435-1.715,3.822-3.118
			C109.109,80.28,109.931,74.995,110.602,71.637z M34.087,11.366c-0.321-0.276-0.641-0.552-0.962-0.827
			c-4.211,0.946-5.331,2.098-8.031,5.663c-2.093,2.763-4.643,5.219-7.308,7.349c-2.095,1.674-2.984,1.089-3.716-0.554
			c2.883-3.367,5.352-6.508,8.074-9.369c4.005-4.209,7.822-9.262,14.531-5.54c0.669,0.371,1.759-0.141,3.043-0.288
			c-6.372-5.515-14.569-3.823-18.996,3.09c-2.129,3.324-4.911,6.16-7.392,9.223c-0.858,1.059-2.537,2.362-2.354,3.151
			c0.296,1.274,1.654,2.741,2.864,3.194c3.378,1.267,7.038,1.344,9.653-1.611C27.256,20.592,30.577,15.882,34.087,11.366z
			 M102.871,94.119c-0.595,0.31-1.609,0.577-2.292,1.24c-3.195,3.1-3.757,13.735,0.111,17.289c2.039,1.874,4.115,1.321,4.898-1.03
			c1.259-3.784,2.321-7.81,2.506-11.786C108.221,97.093,106.449,94.556,102.871,94.119z M22.17,108.573
			c-4.533-2.521-7.853-0.665-10.47,3.403c-1.69,2.626-4.103,4.7-6.082,7.126c-0.488,0.599-0.544,1.61-0.798,2.431
			c0.336,0.335,0.673,0.671,1.009,1.006c2.315-1.5,5.425-2.432,6.771-4.625C15.065,113.903,17.735,110.518,22.17,108.573z
			 M50.185,47.405c-7.686,1.732-5.686,8.705-7.873,14.304c1.899-0.249,3.585,0.086,4.387-0.671
			C50.323,57.618,50.314,52.909,50.185,47.405z"/>
		<path style="fill:#F15A29;" d="M21.723,70.597c1.658,0.841,2.764,1.186,3.626,1.882c2.08,1.678,3.643,3.562,2.341,6.783
			c-1.283,3.175-3.298,3.604-6.088,2.721c-3.43-1.086-6.818-1.908-10.407-0.049c-1.124,0.582-3.66,0.165-4.274-0.771
			c-1.009-1.538-2.748-3.116-1.224-6.011c1.823-3.462,2.769-7.528,3.733-11.436c2.032-8.235,6.408-14.198,13.606-17.832
			c1.371-0.692,2.4-2.174,3.819-3.51c1.62,0.411,3.625,1.004,5.662,1.417c3.327,0.675,3.292,3.095,2.54,5.726
			c-1.523,5.328-4.255,10.431-3.172,16.264c0.72,3.877,1.811,7.698,3.031,11.432c0.57,1.745,0.814,2.884-0.28,4.645
			c-2.712,4.366-4.003,8.962-1.58,14.301c2.403,5.295,6.722,7.167,11.377,8.019c5.002,0.916,10.163,0.797,15.247,1.231
			c1.836,0.157,3.661,0.55,5.473,0.937c2.741,0.585,4.317,2.508,4.636,5.428c0.373,3.408-0.288,6.429-3.404,8.256
			c-1.216,0.713-2.341,1.606-3.939,2.717c4.056,1.068,8.757-1.018,10.53-4.149c1.485-2.623,0.755-7.701-0.969-10.437
			c-3.304-5.243-7.877-6.737-13.477-6.622c-4.976,0.102-10.031-0.031-14.931-0.873c-7.462-1.282-10-8.246-7.162-15.417
			c0.298-0.754,2.544-1.549,3.025-1.142c8.845,7.486,18.501,7.352,28.85,4.64c9.203-2.412,14.387-8.652,17.53-17.782
			c1.25-3.63,2.975-7.186,7.58-9.082c-3.689,8.233-4.015,16.13-4.125,24.168c-0.127,9.287-0.311,18.653-4.36,27.282
			c-0.301,0.641,0.488,1.877,0.836,3.059c4.939-4.95,8.346-18.408,7.423-36.601c1.931,4.832,3.533,8.839,5.146,12.874
			c-5.393,4.327-5.252,17.567-1.044,23.033c1.298,1.686,4.406,1.749,6.863,2.618c-2.008,5.5-6.164,9.811-11.762,12.752
			c0.209,0.464,0.418,0.928,0.626,1.392c1.274-0.223,2.635-0.209,3.808-0.708c8.581-3.647,12.253-11.355,13.57-20.456
			c1.203-8.307,1.734-16.732,2.455-25.115c0.956-11.11,0.721-22.389,4.394-33.089c1.354-3.944,3.041-4.862,8.769-4.485
			c3.373,0.222,4.084,3.079,4.769,5.697c2.857,10.923,2.124,22.083,0.729,33.038c-1.707,13.407-3.65,27.071-13.236,37.221
			c-4.325,4.579-9.516,7.124-15.708,9.066c-10.033,3.146-19.842,1.36-29.711,1.88c-7.554,0.398-15.157-0.398-22.74-0.486
			c-3.117-0.036-6.264,0.764-9.354,0.526c-5.295-0.407-10.604-1.06-15.817-2.121c-4.414-0.898-6.039-4.687-5.136-9.607
			c0.437-2.383,0.232-4.911,0.245-7.374c0.016-3.041,3.528-5.155,7.487-4.826c9.289,0.773,18.586,1.469,27.89,1.979
			c2.709,0.148,4.984,0.21,4.284,4.684c0.396-0.043,0.791-0.087,1.187-0.13c0.668-1.305,1.968-2.694,1.832-3.893
			c-0.144-1.274-1.446-2.866-2.61-3.422c-1.637-0.781-3.604-0.859-5.446-1.021c-11.335-0.994-22.788-0.977-33.489-6.285
			c-2.118-1.051-5.038-0.624-7.523-0.301c-2.86,0.372-5.038-0.81-4.784-3.842c0.316-3.774,0.903-7.652,2.143-11.168
			c1.205-3.417,3.794-4.914,7.486-3.362c4.573,1.923,9.268,2.39,12.201-2.922c0.971-1.759,1.253-4.92,0.431-6.661
			c-1.386-2.938-3.134-6.341-7.037-6.311C23.519,68.971,22.93,69.745,21.723,70.597z M108.919,124.96
			c4.505-2.007,5.417-6.468,6.452-10.259c2.097-7.684,3.418-15.624,4.846-23.504c0.429-2.366,0.322-4.9,0.086-7.314
			c-0.061-0.622-1.545-1.081-2.823-1.902C116.095,97.249,114.672,111.553,108.919,124.96z"/>
		<path style="fill:#F15A29;" d="M102.239,16.746c-0.496,4.876-2.645,7.856-6.02,8.829c-4.859,1.402-9.915,2.217-14.935,2.712
			c-9.449,0.932-18.798,0.177-28.06-2.394c-4.545-1.261-7.534-3.945-9.257-8.433c-0.313-0.814-0.256-2.217,0.206-2.887
			c3.816-5.544,9.068-8.699,15.387-8.981c7.923-0.353,15.884-0.407,23.801,0.015c6.52,0.347,12.767,2.178,17.163,8.094
			C101.321,14.774,101.863,16.067,102.239,16.746z"/>
		<path style="fill:#FFFFFF;" d="M83.822,53.649c-2.019,0-4.038,0-5.886,0c-1.272,5.864-2.187,11.929-3.958,17.687
			c-1.525,4.959-5.625,7.469-10.25,8.156c-3.325,0.494-6.792,0.292-10.157-0.044c-5.777-0.578-9.021-4.83-11.969-10.456
			c14.416,0.674,15.242-10.046,15.643-20.73c8.976,1.273,17.784,2.522,26.592,3.772C83.833,52.573,83.827,53.111,83.822,53.649z"/>
		<path style="fill:#F7941E;" d="M112.42,31.184c0.473,3.875,1.27,6.603-1.989,9.452c-4.881,4.267-10.58,5.556-16.279,6.079
			c-11.068,1.015-22.085,0.288-33.03-2.569c-4.551-1.188-9.578-0.264-14.388-0.29c-2.009-0.011-4.021,0.079-6.027-0.007
			c-3.912-0.169-5.214-3.19-5.506-6.657c-0.231-2.746-1.223-3.61-3.689-3.036c0.092,1.125,0.494,2.37,0.181,3.349
			c-0.263,0.823-1.342,1.81-2.091,1.842c-0.648,0.027-1.754-1.081-1.93-1.875c-0.39-1.766-0.723-3.755-0.334-5.454
			c0.4-1.748,1.425-3.627,2.713-4.693c0.513-0.424,2.83,0.841,3.708,1.922c6.576,8.1,15.777,8.772,24.632,10.23
			c5.63,0.927,11.35,1.667,17.032,1.689c10.659,0.042,21.408-0.023,31.265-5.433C108.528,34.721,110.068,33.077,112.42,31.184z"/>
		<path style="fill:#F7941E;" d="M40.01,11.418c0.42,11.642,3.431,15.052,13.433,17.934c9.207,2.653,18.533,3.871,27.98,3.668
			c6.559-0.141,13.085-1.416,18.644-5.568c1.811-1.353,3.072-3.601,4.483-5.527c1.034-1.412,1.902-2.967,3.075-4.824
			c3.014,3.506,2.758,7.271,1.407,10.4c-1.464,3.392-3.548,6.367-8.037,6.667c-5.229,0.349-10.349,2.652-15.577,2.976
			c-7.284,0.452-14.659,0.28-21.928-0.426c-6.106-0.593-12.192-2.019-18.138-3.694c-3.032-0.854-5.891-2.815-8.545-4.733
			c-2.999-2.167-4.306-10.459-2.075-13.392C35.859,13.417,37.908,12.751,40.01,11.418z"/>
		<path style="fill:#F7941E;" d="M124.237,12.349c6.672,7.096,9.135,15.922,7.919,25.541c-0.639,5.052-6.372,7.078-12.001,5.784
			c-3.343-0.769-4.299-5.692-4.142-10.185c0.155-4.45-1.265-9.052-2.452-13.443c-1.244-4.601-2.936-6.041-7.299-7.697
			c5.071-5.778,11.587-3.027,14.432,2.254c1.946,3.613,2.725,7.937,4.287,11.821c0.539,1.341,1.865,2.314,2.832,3.455
			c0.302-1.58,1.177-3.345,0.8-4.706C127.403,20.818,125.731,16.612,124.237,12.349z"/>
		<path style="fill:#F7941E;" d="M115.5,46.341c-1.857,6.741-5.186,9.599-12.486,9.508c-5.854-0.072-11.401,0.456-15.233,5.629
			c-2.778,3.75-5.086,8.01-7.042,12.338c-2.86,6.326-7.17,11.045-13.463,12.031c-6.739,1.055-13.915,2.689-20.356-1.524
			c-2.967-1.94-6.126-4.149-8.111-7.091c-3.533-5.236-4.087-11.534-2.795-17.854c0.632-3.09,1.589-6.114,2.575-9.101
			c0.247-0.748,1.173-1.234,2.48-1.206c-1.106,3.979-2.219,7.955-3.318,11.937c-2.048,7.42,4.076,18.59,10.961,21.439
			c6.723,2.782,13.27,2.232,19.61-0.216c4.205-1.623,7.947-4.389,9.261-10.018c1.087-4.654,2.975-9.269,5.322-13.358
			c3.257-5.675,9.362-6.243,14.746-7.549c5.391-1.308,11.149-1.07,15.765-5.181C113.789,45.794,114.763,46.248,115.5,46.341z"/>
		<path style="fill:#BE1E2D;" d="M110.602,71.637c-0.671,3.358-1.493,8.643-2.898,13.742c-0.386,1.403-2.584,3.224-3.822,3.118
			c-1.803-0.156-3.792-1.569-5.119-3.053c-0.87-0.973-0.992-3.024-0.958-4.58c0.075-3.482-0.063-7.131,0.879-10.377
			c0.752-2.59,2.526-5.538,4.633-6.823C108.005,60.808,110.256,64.253,110.602,71.637z"/>
		<path style="fill:#F7941E;" d="M34.087,11.366c-3.51,4.516-6.83,9.226-10.594,13.48c-2.615,2.955-6.275,2.878-9.653,1.611
			c-1.21-0.454-2.568-1.921-2.864-3.194c-0.183-0.789,1.496-2.092,2.354-3.151c2.48-3.063,5.263-5.899,7.392-9.223
			c4.427-6.913,12.624-8.604,18.996-3.09c-1.284,0.147-2.374,0.659-3.043,0.288c-6.709-3.722-10.526,1.33-14.531,5.54
			c-2.722,2.861-5.191,6.002-8.074,9.369c0.732,1.643,1.621,2.228,3.716,0.554c2.665-2.129,5.216-4.586,7.308-7.349
			c2.7-3.565,3.82-4.716,8.031-5.663C33.446,10.815,33.766,11.09,34.087,11.366z"/>
		<path style="fill:#BE1E2D;" d="M102.871,94.119c3.578,0.438,5.35,2.974,5.223,5.713c-0.185,3.976-1.247,8.002-2.506,11.786
			c-0.783,2.352-2.858,2.905-4.898,1.03c-3.868-3.554-3.306-14.189-0.111-17.289C101.262,94.695,102.276,94.429,102.871,94.119z"/>
		<path style="fill:#BE1E2D;" d="M22.17,108.573c-4.435,1.945-7.105,5.33-9.568,9.342c-1.346,2.193-4.456,3.124-6.771,4.625
			c-0.336-0.335-0.673-0.671-1.009-1.006c0.254-0.822,0.309-1.832,0.798-2.431c1.978-2.427,4.392-4.5,6.082-7.126
			C14.317,107.908,17.637,106.052,22.17,108.573z"/>
		<path style="fill:#BE1E2D;" d="M50.185,47.405c0.129,5.504,0.137,10.213-3.486,13.633c-0.802,0.757-2.488,0.422-4.387,0.671
			C44.499,56.11,42.499,49.137,50.185,47.405z"/>
		<path d="M108.919,124.96c5.754-13.407,7.177-27.711,8.561-42.978c1.278,0.822,2.762,1.281,2.823,1.902
			c0.236,2.414,0.343,4.948-0.086,7.314c-1.428,7.879-2.749,15.82-4.846,23.504C114.336,118.493,113.424,122.953,108.919,124.96z"/>
	</g>
</g>
<g id="Layer_1">
</g>
</svg>
