<svg xmlns="http://www.w3.org/2000/svg" width="144" height="144"><path d="M141.98 65.13c.07 9.08-.01 78.87-.01 78.87H2.01l.05-64.01s.19-20.51.74-30.73c.35-6.43.68-13.04 2.38-19.18 4.11-14.8 14.05-24.6 29.79-26.56 9.33-1.15 18.77-1.94 28.16-1.98 7.37-.02 14.86.82 20.73 6.57.85.83 3.53.75 4.78.05 13.3-7.4 30.73-5.16 42.03 4.8 7.06 6.23 9.72 13.99 10.23 22.84.57 9.76 1 19.55 1.08 29.33zm-4.81 37.25c1.04-8.24 1.59-23.59-.19-32.06-3.03-.08-5.78-.17-8.53-.23-7.55-.16-13.41 4.72-14.66 12.19-.36 2.16-.8 4.31-1.06 6.48-1.33 11.41-6.98 19.38-18.19 22.73-2.22.66-4.65.62-7.22.93 1.3 9.42 2.54 18.34 3.91 28.28 7.78-.14 9.84.92 21.99-.58C125.37 138.63 138 140 138 140s-1.57-31.74-.83-37.62zm-.22-50.98c.11-8.58.47-16.97-2.92-25.3-3.25-7.97-8.22-13.68-16.09-16.74-9.89-3.86-19.56-2.58-29.32 1.96.39 1.36.43 3.07 1.26 4.17 4.16 5.47 3.61 11.36 2.02 17.45-3.42 13.17-21.41 19.49-30.25 9.65-2.65-2.95-4-6.25-2.7-9.42.96-2.36 4.05-3.96 6.39-5.61 1.44-1.02 3.25-1.5 5.65-2.56-6.33-2.66-13.1-1.2-15.72 2.67-4.44 6.56-2.46 17.59 4.17 22.06 8.89 5.99 18.28 4.94 27.84 1.79 5.94-1.96 8.96-6.56 10.86-11.93 1.81-5.1 2.74-10.52 4.33-15.71 1.19-3.87 3.59-6.36 8.34-5.11-2.36 2.75-4.91 4.87-6.3 7.59-1.18 2.32-.91 5.36-1.5 8.03-1.91 8.65-4.45 17.19-14.18 19.93-5.88 1.66-12.14 3.09-18.17 2.87-13.48-.5-22.97-10.73-21.31-22.66 1.42-10.22 6.75-14.99 16.66-14.39 3.26.19 6.88 1.38 7.41 4.92.58 3.88-3.08 4.59-6.09 5.3-.88.2-1.77.51-2.54.97-2.93 1.75-3.76 4.7-1.57 6.95 2.25 2.31 5.43 4.38 8.53 5.07 12 2.64 20.34-11.91 17.06-22.08-3.25-10.05-9.57-15.4-20.82-15.83-11.05-.43-22.21.67-33.25 1.82-12.3 1.28-24.42 12.45-25.92 24-1.47 11.29-1.91 22.71-2.93 34.07-.33 3.69 1.7 4.45 4.67 4.48 2.18.02 4.36.01 6.53.18 10.34.84 16.6 8.9 16.89 17.36.47 13.8 10.12 21.21 22.15 20.94 11.04-.25 22.1.03 33.14-.14 10.11-.15 17.35-6.83 18.85-16.38.84-5.35 2.22-10.66 3.85-15.83 1.73-5.51 6.04-8.17 11.62-8.72 4.5-.44 9.02-.7 14.16-1.09-.29-4.99-.87-9.87-.8-14.73zm-52.49 88.65c.68-.01 2.03-2.27 1.9-3.35-.84-7.38-1.87-14.74-3.17-22.05-.2-1.15-2.03-2.79-3.17-2.84-3.92-.18-7.9.05-11.8.56-1.23.16-3.09 1.56-3.28 2.64-1.39 8.01-2.44 16.08-3.66 24.58 7.58.2 15.38.49 23.18.46zm-24.53-22.79c.64-5.19.62-4.96-4.36-5.39-14.56-1.24-23.51-5.77-25.46-22.56-.82-7.02-3.09-14.32-12.32-15.12-2.48-.21-4.96-.5-7.45-.69-3.32-.24-4.89 1.45-4.73 4.7.14 2.74.43 5.48.69 8.21 1.09 11.39.56 29.12.54 34.01s-1.09 18.75-.09 19.41c1 .67 39.96.09 43.25.39s7.53 1.7 7.82-2.44c.47-6.86 1.38-13.68 2.11-20.52z"/><path d="M136.98 70.32c1.78 8.47 1.23 23.82.19 32.06-.74 5.88.83 37.62.83 37.62s-12.63-1.37-24.78.12c-12.15 1.5-14.21.44-21.99.58-1.37-9.94-2.61-18.86-3.91-28.28 2.57-.31 5-.27 7.22-.93 11.21-3.35 16.86-11.32 18.19-22.73.26-2.17.7-4.32 1.06-6.48 1.25-7.47 7.11-12.35 14.66-12.19 2.75.06 5.5.15 8.53.23zM55.57 111.87c4.98.43 5 .2 4.36 5.39-.73 6.84-1.64 13.66-2.11 20.52-.29 4.14-4.53 2.74-7.82 2.44s-42.25.28-43.25-.39c-1-.66.07-14.52.09-19.41s.55-22.62-.54-34.01c-.26-2.73-.55-5.47-.69-8.21-.16-3.25 1.41-4.94 4.73-4.7 2.49.19 4.97.48 7.45.69 9.23.8 11.5 8.1 12.32 15.12 1.95 16.79 10.9 21.32 25.46 22.56z" fill="#f7941e"/><path d="M110.814 18.771c-4.749-1.253-7.149 1.236-8.342 5.113-1.596 5.19-2.524 10.603-4.332 15.708-1.899 5.363-4.919 9.97-10.858 11.928-9.565 3.153-18.955 4.198-27.838-1.791-6.632-4.471-8.617-15.502-4.176-22.058 2.621-3.869 9.393-5.337 15.719-2.668-2.398 1.055-4.209 1.539-5.648 2.556-2.34 1.654-5.427 3.248-6.394 5.612-1.297 3.171.053 6.464 2.702 9.414 8.838 9.84 26.831 3.52 30.257-9.643 1.585-6.09 2.137-11.984-2.022-17.454-.835-1.099-.876-2.808-1.266-4.174 9.767-4.536 19.434-5.812 29.322-1.96 7.874 3.067 12.839 8.771 16.089 16.743 3.395 8.327 3.033 16.723 2.92 25.299-.064 4.865.511 9.738.806 14.728-5.142.391-9.662.658-14.165 1.098-5.584.545-9.89 3.207-11.621 8.714-1.626 5.173-3.012 10.481-3.852 15.832-1.498 9.548-8.739 16.227-18.842 16.38-11.047.167-22.103-.108-33.147.142-12.03.272-21.678-7.146-22.146-20.945-.287-8.457-6.551-16.52-16.888-17.354-2.168-.175-4.353-.167-6.531-.185-2.972-.025-4.997-.784-4.667-4.481C6.91 53.972 7.35 42.549 8.816 31.258c1.5-11.55 13.621-22.719 25.922-24.002 11.037-1.151 22.199-2.242 33.247-1.819 11.254.431 17.578 5.784 20.825 15.837 3.284 10.168-5.059 24.718-17.061 22.071-3.098-.683-6.276-2.756-8.527-5.067-2.191-2.25-1.358-5.196 1.572-6.953.766-.459 1.658-.765 2.532-.97 3.009-.708 6.673-1.417 6.09-5.299-.53-3.534-4.147-4.722-7.404-4.918-9.917-.596-15.246 4.169-16.665 14.392-1.656 11.932 7.829 22.164 21.312 22.661 6.027.222 12.289-1.212 18.172-2.871 9.728-2.744 12.264-11.276 14.181-19.932.592-2.671.312-5.71 1.497-8.03 1.391-2.721 3.943-4.842 6.305-7.587z" fill="#f15a29"/><path d="M61.283 139.59c1.22-8.5 2.267-16.572 3.662-24.583.187-1.076 2.049-2.474 3.277-2.635 3.9-.513 7.878-.741 11.802-.564 1.137.051 2.961 1.696 3.166 2.845 1.298 7.308 2.331 14.67 3.174 22.047.123 1.08-1.226 3.345-1.902 3.348-7.801.035-15.603-.258-23.179-.458z" fill="#be1e2d"/></svg>