<?xml version="1.0" encoding="iso-8859-1"?>
<!-- Generator: Adobe Illustrator 17.0.0, SVG Export Plug-In . SVG Version: 6.00 Build 0)  -->
<!DOCTYPE svg PUBLIC "-//W3C//DTD SVG 1.1//EN" "http://www.w3.org/Graphics/SVG/1.1/DTD/svg11.dtd">
<svg version="1.1" xmlns="http://www.w3.org/2000/svg" xmlns:xlink="http://www.w3.org/1999/xlink" x="0px" y="0px" width="144px"
	 height="144px" viewBox="0 0 144 144" style="enable-background:new 0 0 144 144;" xml:space="preserve">
<g id="pill_x5F_half_x5F_green">
</g>
<g id="pill_x5F_segment_x5F_green">
	<g>
		<path d="M105.677,60.181c6.415-10.533,7.442-20.27,1.714-30.454c-4.148-7.375-11.038-11.412-19.159-13.923
			c-2.048-0.633-4.585-0.875-5.97-2.168c-1.92-1.792-3.911-4.391-4.052-6.678c-0.094-1.527,2.775-4.219,4.671-4.456
			c5.128-0.641,10.479-0.685,15.679-0.153c6.074,0.621,12.313,1.432,18.074,3.347c13.052,4.338,20.052,13.919,22.403,26.16
			c1.611,8.388,2.551,16.955,2.741,25.425c0.348,15.525,0.287,31.063-0.312,46.546c-0.407,10.516-2.465,21.206-10.942,28.43
			c-7.233,6.164-15.262,11.826-26.541,11.615c-18.633-0.347-37.251,0.595-55.875-0.066c-8.045-0.285-17.112-1.544-23.889-5.345
			c-9.193-5.156-16.93-13.037-18.596-23.958c-1.075-7.048-2.174-14.12-2.632-21.194c-0.605-9.351-1.378-18.797-0.662-28.055
			c1.043-13.466,0.109-27.279,4.774-40.236C11.255,13.483,18.376,4.804,32.461,3.456c8.487-0.812,17.001-1.47,25.528-1.96
			c2.054-0.118,4.448,0.282,6.251,1.216c1.852,0.96,4.554,3.048,4.415,4.317c-0.228,2.089-2.07,4.362-3.939,5.72
			c-1.643,1.194-4.214,1.454-6.447,1.758c-17.687,2.414-27.071,16.835-23.788,33.454c0.977,4.945,3.822,8.169,6.615,11.147
			c1.762-4.631,2.906-9.536,5.385-13.714c3.955-6.665,10.212-10.533,18.955-10.384c2.085,0.036,4.139-0.89,6.229-1.288
			c0.743-0.142,1.613-0.223,2.321-0.004c6.631,2.055,13.489,3.65,19.785,6.433c6.504,2.875,9.307,8.759,10.642,15.144
			C104.693,56.637,105.097,57.958,105.677,60.181z M136.171,79.381c0.086-13.398,1.167-26.846-0.137-40.175
			c-0.719-7.35-4.52-14.977-8.607-21.616c-4.716-7.66-13.796-9.493-22.44-10.662C99.703,6.215,94.33,5.965,89.015,5.965
			c-2.583,0-6.983,0.523-7.327,1.726c-0.968,3.392,3.079,3.824,5.522,4.495c7.298,2.005,14.014,4.308,19.534,10.053
			c5.181,5.392,8.289,11.362,8.853,18.022c1.342,15.858-10.092,29.916-26.727,33.24c-1.923,0.384-3.986,0.337-5.989,0.313
			c-13.271-0.16-26.177,0.663-38.759-7.217C33.683,60.06,30.373,51.8,29.535,41.608c-1.113-13.536,9.758-27.757,25.899-30.406
			c1.788-0.293,3.82-0.042,5.357-0.74c1.191-0.541,1.785-2.17,2.645-3.315c-1.327-0.725-2.69-2.085-3.976-2.069
			C53.099,5.16,46.746,5.49,40.416,5.945C23.656,7.151,14.65,14.403,10.284,28.22c-2.651,8.389-3.061,17.646-3.266,26.581
			C6.674,69.787,7.066,84.828,7.635,99.847c0.21,5.545,0.886,11.38,2.941,16.582c4.401,11.143,14.117,17.752,25.532,21.686
			c4.71,1.623,10.146,1.229,15.255,1.707c5.714,0.535,11.44,1.367,17.145,1.442c7.88,0.103,15.795-0.029,23.602-0.719
			c7.263-0.642,14.67-1.425,21.542-3.425c13.901-4.045,20.584-14.386,22.103-27.279C136.934,99.831,136.107,89.543,136.171,79.381z
			 M56.149,67.073c1.493-13.879,5.585-18.655,15.656-18.555c10.609,0.105,15.203,5.16,18.202,20.645
			c2.827-1.335,5.795-2.196,7.945-3.935c1.518-1.228,2.66-3.605,2.706-5.541c0.216-9.081-5.074-17.399-17.479-19.78
			c-2.876-0.552-5.868-0.479-8.732-1.074c-12.543-2.605-26.171,3.408-28.176,16.419C45.051,63.175,47.246,66.123,56.149,67.073z
			 M85.631,63.785c-0.065-0.24-0.254-1.683-0.844-2.979c-1.989-4.369-7.632-8.72-14.787-7.735
			c-6.627,0.912-9.956,4.394-10.676,10.722c-0.345,3.032,0.591,4.52,4.284,4.661c4.866,0.185,9.749,0.888,14.591,1.622
			C82.772,70.768,85.572,68.992,85.631,63.785z"/>
		<path style="fill:#39B54A;" d="M136.172,79.38c-0.064,10.163,0.762,20.451-0.417,30.461c-1.518,12.893-8.202,23.233-22.103,27.279
			c-6.872,2-14.279,2.783-21.542,3.425c-7.807,0.69-15.722,0.821-23.602,0.719c-5.705-0.074-11.431-0.907-17.145-1.442
			c-5.109-0.478-10.546-0.084-15.255-1.707c-11.415-3.934-21.131-10.542-25.532-21.686c-2.054-5.202-2.731-11.037-2.941-16.582
			C7.066,84.828,6.674,69.787,7.018,54.801c0.205-8.935,0.615-18.192,3.266-26.581C14.65,14.403,23.656,7.151,40.416,5.945
			c6.33-0.455,12.683-0.785,19.043-0.866c1.286-0.016,2.648,1.343,3.976,2.069c-0.859,1.145-1.454,2.774-2.645,3.315
			c-1.537,0.698-3.569,0.446-5.357,0.74c-16.14,2.649-27.011,16.869-25.899,30.406c0.838,10.192,4.148,18.452,14.587,24.99
			c12.582,7.879,25.488,7.057,38.759,7.217c2.003,0.024,4.066,0.071,5.989-0.313c16.635-3.324,28.069-17.382,26.727-33.24
			c-0.564-6.661-3.672-12.63-8.853-18.022c-5.52-5.744-12.235-8.048-19.534-10.053c-2.443-0.671-6.49-1.103-5.522-4.495
			c0.343-1.203,4.744-1.727,7.327-1.726c5.314,0,10.687,0.25,15.972,0.964c8.644,1.168,17.725,3.002,22.44,10.662
			c4.087,6.638,7.888,14.265,8.607,21.616C137.339,52.535,136.257,65.983,136.172,79.38z"/>
		<path style="fill:#006838;" d="M56.149,67.073c-8.904-0.95-11.098-3.898-9.877-11.82c2.005-13.011,15.633-19.024,28.176-16.419
			c2.864,0.595,5.856,0.522,8.732,1.074c12.406,2.381,17.696,10.699,17.479,19.78c-0.046,1.936-1.188,4.313-2.706,5.541
			c-2.15,1.739-5.118,2.6-7.945,3.935c-2.999-15.485-7.593-20.539-18.202-20.645C61.734,48.418,57.642,53.194,56.149,67.073z"/>
		<path style="fill:#8DC63F;" d="M85.631,63.785c-0.058,5.207-2.858,6.983-7.431,6.291c-4.842-0.734-9.725-1.436-14.591-1.622
			c-3.693-0.141-4.629-1.628-4.284-4.661c0.72-6.328,4.049-9.811,10.676-10.722c7.155-0.984,12.798,3.367,14.787,7.735
			C85.377,62.102,85.566,63.545,85.631,63.785z"/>
	</g>
</g>
<g id="virus_x5F_green">
</g>
<g id="pill_x5F_half_x5F_orange">
</g>
<g id="pill_x5F_segment_x5F_orange">
</g>
<g id="virus_x5F_orange">
</g>
<g id="pill_x5F_segment_x5F_purple">
</g>
<g id="pill_x5F_half_x5F_purple">
</g>
<g id="virus_x5F_purple">
</g>
<g id="destroyed">
</g>
<g id="nyt_x5F_exporter_x5F_info" style="display:none;">
</g>
</svg>
