<svg xmlns="http://www.w3.org/2000/svg" viewBox="0 0 144 144"><path d="M14.667 120.656c-3.226-.879-5.876-1.883-8.619-2.284-4.434-.648-4.583-3.547-3.321-6.379 3.535-7.933 2.568-15.992 1.686-24.17-.431-3.992-.604-8.126.003-12.065.358-2.323 2.192-4.622 3.86-6.516 2.489-2.828 3.488-4.934.198-8.162-1.659-1.628-2.392-4.953-2.203-7.413.5-6.512 1.599-12.993 2.703-19.446 1.687-9.857 7.68-16.992 16.12-22.067C35.97 5.612 48.008 2.691 60.797 2.723c8.607.022 17.249-.469 25.812.129a277.459 277.459 0 0 1 29.464 3.668c8.488 1.519 15.468 6.45 20.414 13.097 2.873 3.861 5.013 9.103 5.214 13.815.479 11.235.35 22.604-.916 33.771-1.314 11.589-3.513 23.203-6.709 34.433-2.821 9.912-4.773 20.613-13.037 28.185-2.861 2.621-6.208 5.077-9.792 6.542-8.251 3.37-16.931 5.198-25.995 5.257-7.741.05-15.49.945-23.215.733-4.436-.121-8.92-1.408-13.224-2.681-11.199-3.312-22.592-4.452-34.23-3.704-3.48.224-7.571-.126-7.829-3.97-.182-2.707 2.295-5.703 3.95-8.354.74-1.184 2.376-1.835 3.963-2.988zm25.003-2.365l-.43 1.665c-1.25.057-2.504.217-3.748.156-7.006-.345-14.013-.154-19.945 3.92-2.07 1.422-3.09 4.294-4.589 6.504 2.43.568 4.835 1.463 7.294 1.64 6.289.453 12.723-.078 18.878.993 11.049 1.922 21.685 6.214 33.172 5.608 9.287-.49 18.577-1.072 27.831-1.949 2.546-.241 4.971-1.689 8.429-2.935-5.676-2.808-9.738-5.769-15.115-1.912-1.971 1.414-5.458 2.01-7.855 1.426-4.931-1.202-5.669-4.373-3.178-10.378-.628-.363-1.237-.905-1.946-1.091-3.668-.966-5.476-3.559-4.222-6.765.928-2.372 3.357-4.377 5.533-6.023 1.213-.917 3.452-.44 4.91-1.184 1.719-.877 4.315-2.307 4.418-3.65.64-8.378 6.833-12.682 13.05-16.193 3.646-2.059 4.472-4.154 4.437-7.522-.022-2.174.033-4.35-.011-6.524-.155-7.723-3.003-14.746-7.392-20.857-5.886-8.194-15.718-8.883-24.49-8.244-9.635.702-19.064 4.05-28.594 6.198-1.06.239-2.193.169-4.257.307 1.412-1.443 1.884-2.113 2.527-2.536.901-.593 1.883-1.148 2.912-1.466 12.125-3.744 24.334-7.214 37.242-4.575 9.62 1.966 17.811 5.961 21.124 15.969.665 2.01 1.549 3.96 2.094 5.998 1.555 5.807 3.881 11.501 1.844 17.745-.878 2.692.594 3.694 3.378 2.649 1.286-10.287.063-20.229-4.585-29.543-4.189-8.395-10.652-14.502-20.584-15.688-6.275-.749-12.649-.807-18.985-.957-7.967-.188-15.508 1.596-22.631 5.116-1.331.658-2.859.938-4.296 1.393l-.645-1.325 7.011-4.809c-.367-.886-.777-1.557-.925-2.278-1.643-8.041-3.162-16.109-4.956-24.117-.245-1.091-2.148-2.88-2.721-2.694-8.536 2.759-16.157 7.154-19.908 15.424-2.678 5.902-4.678 12.302-5.641 18.671-.767 5.077-1.751 10.528 2.076 15.581 2.978 3.932 1.883 8.131-2.197 10.773-4.135 2.678-4.861 6.652-3.831 10.348 2.741 9.833 1.858 19.375-.87 28.932-1.009 3.534.116 5.269 3.919 5.428 6.311.264 12.631.471 18.923.988 2.549.204 5.032 1.164 7.545 1.783zm89.672-25.624c.775-4.434 1.582-8.29 2.101-12.182 1.11-8.325 2.172-16.658 3.065-25.006 1.077-10.067 2.103-20.068-1.839-29.966-3.607-9.057-10.535-13.516-19.786-15.204-.969-.177-2.933 1.156-3.318 2.186a629.396 629.396 0 0 0-8.691 24.851c-.451 1.377-.485 3.735.374 4.537 10.392 9.706 15.185 21.712 15.779 35.47.123 2.852-.465 5.733-.702 8.349 4.142 2.215 8.169 4.37 13.017 6.965zm-50.991-72.04c-4.755-2.817-3.132-6.273-2.973-9.501.059-1.209-.796-2.46-1.234-3.692-.996 1.047-2.595 1.976-2.843 3.17-.352 1.694.472 3.587.447 5.39-.016 1.183-.643 2.358-.997 3.537-1.312-1.555-1.334-2.9-1.639-4.18-2.012-8.434-2.766-8.914-12.1-7.986-.627.062-1.534-.03-1.817.324-.847 1.06-2.214 2.442-2.024 3.457 1.337 7.146 3.206 14.198 4.496 21.35.575 3.188 2.088 3.907 5.088 3.838 7.026-.163 14.06-.016 21.09-.061 1.521-.01 3.846.26 4.435-.545 6.073-8.308 9.523-17.539 9.826-27.605H78.351v12.504zm13.852 89.885c.005 8.497 5.672 17.015 14.002 19.512 2.486.745 6.724-.083 8.512-1.81 6.554-6.326 9.963-14.378 12.171-23.177 1.442-5.746.148-9.847-4.655-12.578-2.977-1.693-6.681-2.755-10.132-2.968-11.454-.704-19.905 8.454-19.898 21.021zm-2.798 5.819c-.093-3.528-.459-5.756-4.151-5.559-4.681.249-8.174 2.47-8.392 5.439-.238 3.245 1.944 4.46 4.336 3.792 2.956-.824 7.714.716 8.207-3.672zm5.672 11.055c-1.641-1.906-3.123-5.012-4.56-4.993-2.617.035-5.403 1.652-7.697 3.2-.736.497-.753 3.365.005 4.231.823.941 3.078 1.367 4.45 1.028 2.337-.576 4.472-1.927 7.802-3.466z"/><path d="M39.67 118.291c-2.513-.619-4.996-1.579-7.544-1.789-6.292-.517-12.611-.724-18.923-.988-3.803-.159-4.928-1.894-3.919-5.428 2.728-9.557 3.611-19.098.87-28.932-1.03-3.696-.304-7.671 3.831-10.348 4.08-2.642 5.176-6.841 2.197-10.773-3.827-5.053-2.843-10.503-2.076-15.581.962-6.37 2.963-12.769 5.641-18.671 3.752-8.269 11.372-12.664 19.908-15.424.573-.185 2.476 1.603 2.721 2.694 1.795 8.009 3.314 16.076 4.956 24.117.147.721.557 1.392.925 2.278l-7.011 4.809.645 1.325c1.437-.455 2.965-.735 4.296-1.393 7.123-3.519 14.664-5.304 22.631-5.116 6.335.15 12.71.208 18.985.957 9.932 1.186 16.395 7.293 20.584 15.688 4.648 9.315 5.87 19.256 4.585 29.543-2.784 1.045-4.256.043-3.378-2.649 2.037-6.244-.289-11.938-1.844-17.745-.546-2.038-1.429-3.988-2.094-5.998-3.313-10.008-11.504-14.003-21.124-15.969-12.909-2.638-25.117.831-37.242 4.575-1.03.318-2.011.874-2.912 1.466-.643.423-1.114 1.093-2.527 2.536 2.064-.138 3.197-.068 4.257-.307 9.53-2.148 18.959-5.496 28.594-6.198 8.772-.639 18.604.05 24.49 8.244 4.389 6.111 7.238 13.134 7.392 20.857.044 2.174-.011 4.349.011 6.524.035 3.368-.792 5.463-4.437 7.522-6.217 3.511-12.41 7.815-13.05 16.193-.103 1.343-2.699 2.773-4.418 3.65-1.458.744-3.698.267-4.91 1.184-2.176 1.646-4.605 3.65-5.533 6.023-1.254 3.205.555 5.798 4.222 6.765.708.187 1.318.729 1.946 1.091-2.491 6.005-1.754 9.176 3.178 10.378 2.397.584 5.884-.012 7.855-1.426 5.377-3.857 9.44-.896 15.115 1.912-3.458 1.246-5.883 2.694-8.429 2.935-9.255.877-18.544 1.458-27.831 1.949-11.487.606-22.122-3.686-33.172-5.608-6.155-1.071-12.589-.54-18.878-.993-2.459-.177-4.864-1.072-7.294-1.64 1.499-2.21 2.519-5.083 4.589-6.504 5.932-4.073 12.939-4.265 19.945-3.92 1.243.061 2.498-.098 3.748-.156l.429-1.659zm13.004-56.774c-3.731.538-4.877 2.425-4.412 5.585.424 2.882.679 5.791.894 8.696.124 1.678.023 3.371.023 5.057l1.672.07 2.085-9.118 1.357.063 1.161 9.061.937-.129 1.039-7.99 1.374.067 2.147 8.449c3.566-2.334-2.731-7.49 4.04-7.741l1.17 7.097 1.254-.072.993-8.001 1.277.237 1.54 7.301 1.704-.17.454-8.212.946-.056 2.576 7.332c1.239-.992 1.817-1.942 1.773-2.864-.168-3.51-.645-7.006-.802-10.516-.154-3.445-2.755-5.288-6.507-4.39 4.456 3.906 4.728 6.871.575 7.436-5.356.729-10.946.973-16.292.317-5.594-.687-5.506-1.254-2.781-5.884.177-.304-.091-.858-.197-1.625zm-27.493 42.14l.37-.077c-.382-1.449-.448-3.098-1.241-4.286-.715-1.071-2.219-2.249-3.39-2.264-1.306-.017-3.432.959-3.787 1.973-.889 2.538-1.568 5.425-1.182 8.009.256 1.719 2.49 3.158 3.839 4.722 1.797-1.609 3.757-3.086 5.304-4.898.546-.64.087-2.095.087-3.179z" fill="#39b54a"/><path d="M129.342 92.667l-13.018-6.966c.237-2.617.825-5.497.702-8.349-.594-13.757-5.387-25.763-15.779-35.47-.859-.802-.824-3.16-.374-4.537a629.396 629.396 0 0 1 8.691-24.851c.385-1.029 2.349-2.362 3.318-2.186 9.251 1.688 16.18 6.147 19.786 15.204 3.942 9.898 2.915 19.899 1.839 29.966-.893 8.349-1.955 16.682-3.065 25.006-.518 3.893-1.325 7.749-2.1 12.183zM78.351 20.627V8.121h19.755c-.303 10.067-3.754 19.298-9.826 27.605-.589.806-2.914.536-4.435.545-7.03.045-14.064-.101-21.09.061-3.001.069-4.514-.65-5.088-3.838-1.289-7.152-3.159-14.205-4.496-21.35-.19-1.016 1.177-2.397 2.024-3.457.283-.354 1.19-.261 1.817-.324 9.335-.928 10.089-.447 12.1 7.986.306 1.281.327 2.626 1.639 4.18.354-1.179.981-2.354.997-3.537.025-1.803-.799-3.696-.447-5.39.248-1.195 1.847-2.123 2.843-3.17.438 1.232 1.294 2.483 1.234 3.692-.159 3.23-1.783 6.687 2.973 9.503z" fill="#8dc63f"/><path d="M92.203 110.512c-.007-12.567 8.445-21.726 19.898-21.02 3.451.213 7.155 1.275 10.132 2.968 4.803 2.731 6.098 6.831 4.655 12.578-2.208 8.799-5.618 16.852-12.171 23.177-1.788 1.726-6.026 2.555-8.512 1.81-8.33-2.497-13.998-11.015-14.002-19.513zm26.791-1.699c.08-3.708-2.955-7.091-6.294-7.018-3.399.075-7.816 4.605-8.016 8.22-.198 3.595 2.933 6.29 7.418 6.383 3.843.08 6.797-3.171 6.892-7.585z" fill="#009444"/><path d="M89.405 116.331c-.493 4.388-5.251 2.848-8.207 3.672-2.392.667-4.574-.547-4.336-3.792.218-2.969 3.711-5.19 8.392-5.439 3.692-.197 4.058 2.031 4.151 5.559zM95.077 127.386c-3.33 1.539-5.465 2.89-7.801 3.467-1.373.339-3.627-.087-4.45-1.028-.758-.866-.741-3.735-.005-4.231 2.294-1.549 5.08-3.165 7.697-3.2 1.437-.021 2.918 3.086 4.559 4.992z" fill="#006838"/><path d="M52.674 61.517c.106.768.374 1.321.195 1.625-2.724 4.63-2.812 5.197 2.781 5.884 5.346.656 10.936.412 16.292-.317 4.154-.565 3.881-3.53-.575-7.436 3.752-.898 6.353.944 6.507 4.39.157 3.51.633 7.006.802 10.516.044.922-.534 1.872-1.773 2.864l-2.576-7.332-.946.056-.454 8.212-1.704.17-1.54-7.301-1.277-.237-.993 8.001-1.254.072-1.17-7.097c-6.771.251-.474 5.407-4.04 7.741l-2.147-8.449-1.374-.067-1.039 7.99-.937.129-1.161-9.061-1.357-.063-2.085 9.118-1.672-.07c0-1.686.102-3.38-.023-5.057-.215-2.905-.47-5.815-.894-8.696-.463-3.161.683-5.047 4.414-5.585zM25.181 103.657c0 1.083.459 2.539-.087 3.179-1.547 1.811-3.507 3.289-5.304 4.898-1.349-1.564-3.583-3.003-3.839-4.722-.385-2.584.293-5.471 1.182-8.009.355-1.014 2.481-1.99 3.787-1.973 1.171.015 2.675 1.193 3.39 2.264.793 1.188.859 2.838 1.241 4.286l-.37.077zm-5.956 5.103c5.247-1.939 2.431-5.784 3.229-9.908-6.007 2.705-3.109 6.717-3.229 9.908zM118.994 108.813c-.095 4.415-3.049 7.665-6.892 7.585-4.485-.093-7.616-2.788-7.418-6.383.2-3.615 4.617-8.145 8.016-8.22 3.34-.074 6.375 3.31 6.294 7.018zm-1.722.193l-5.063-4.621c-1.555 1.706-3.448 3.253-4.43 5.229-.249.501 2.612 3.533 3.677 3.352 1.86-.314 3.436-2.22 5.816-3.96z"/><path d="M19.225 108.76c.121-3.191-2.778-7.203 3.229-9.908-.799 4.124 2.017 7.969-3.229 9.908zM117.272 109.006c-2.38 1.74-3.956 3.645-5.816 3.961-1.065.181-3.925-2.851-3.677-3.352.982-1.976 2.875-3.523 4.43-5.229l5.063 4.62z" fill="#006838"/></svg>