<svg xmlns="http://www.w3.org/2000/svg" width="144" height="144"><path d="M105.677 60.181c6.415-10.533 7.442-20.27 1.714-30.454-4.148-7.375-11.038-11.412-19.159-13.923-2.048-.633-4.585-.875-5.97-2.168-1.92-1.792-3.911-4.391-4.052-6.678-.094-1.527 2.775-4.219 4.671-4.456 5.128-.641 10.479-.685 15.679-.153 6.074.621 12.313 1.432 18.074 3.347 13.052 4.338 20.052 13.919 22.403 26.16 1.611 8.388 2.551 16.955 2.741 25.425.348 15.525.287 31.063-.312 46.546-.407 10.516-2.465 21.206-10.942 28.43-7.233 6.164-15.262 11.826-26.541 11.615-18.633-.347-37.251.595-55.875-.066-8.045-.285-17.112-1.544-23.889-5.345-9.193-5.156-16.93-13.037-18.596-23.958-1.075-7.048-2.174-14.12-2.632-21.194-.605-9.351-1.378-18.797-.662-28.055 1.043-13.466.109-27.279 4.774-40.236C11.255 13.483 18.376 4.804 32.461 3.456a674.22 674.22 0 0125.528-1.96c2.054-.118 4.448.282 6.251 1.216 1.852.96 4.554 3.048 4.415 4.317-.228 2.089-2.07 4.362-3.939 5.72-1.643 1.194-4.214 1.454-6.447 1.758-17.687 2.414-27.071 16.835-23.788 33.454.977 4.945 3.822 8.169 6.615 11.147 1.762-4.631 2.906-9.536 5.385-13.714 3.955-6.665 10.212-10.533 18.955-10.384 2.085.036 4.139-.89 6.229-1.288.743-.142 1.613-.223 2.321-.004 6.631 2.055 13.489 3.65 19.785 6.433 6.504 2.875 9.307 8.759 10.642 15.144.28 1.342.684 2.663 1.264 4.886zm30.494 19.2c.086-13.398 1.167-26.846-.137-40.175-.719-7.35-4.52-14.977-8.607-21.616-4.716-7.66-13.796-9.493-22.44-10.662-5.284-.713-10.657-.963-15.972-.963-2.583 0-6.983.523-7.327 1.726-.968 3.392 3.079 3.824 5.522 4.495 7.298 2.005 14.014 4.308 19.534 10.053 5.181 5.392 8.289 11.362 8.853 18.022 1.342 15.858-10.092 29.916-26.727 33.24-1.923.384-3.986.337-5.989.313-13.271-.16-26.177.663-38.759-7.217C33.683 60.06 30.373 51.8 29.535 41.608c-1.113-13.536 9.758-27.757 25.899-30.406 1.788-.293 3.82-.042 5.357-.74 1.191-.541 1.785-2.17 2.645-3.315-1.327-.725-2.69-2.085-3.976-2.069-6.361.082-12.714.412-19.044.867-16.76 1.206-25.766 8.458-30.132 22.275-2.651 8.389-3.061 17.646-3.266 26.581-.344 14.986.048 30.027.617 45.046.21 5.545.886 11.38 2.941 16.582 4.401 11.143 14.117 17.752 25.532 21.686 4.71 1.623 10.146 1.229 15.255 1.707 5.714.535 11.44 1.367 17.145 1.442 7.88.103 15.795-.029 23.602-.719 7.263-.642 14.67-1.425 21.542-3.425 13.901-4.045 20.584-14.386 22.103-27.279 1.179-10.01.352-20.298.416-30.46zM56.149 67.073c1.493-13.879 5.585-18.655 15.656-18.555 10.609.105 15.203 5.16 18.202 20.645 2.827-1.335 5.795-2.196 7.945-3.935 1.518-1.228 2.66-3.605 2.706-5.541.216-9.081-5.074-17.399-17.479-19.78-2.876-.552-5.868-.479-8.732-1.074-12.543-2.605-26.171 3.408-28.176 16.419-1.22 7.923.975 10.871 9.878 11.821zm29.482-3.288c-.065-.24-.254-1.683-.844-2.979-1.989-4.369-7.632-8.72-14.787-7.735-6.627.912-9.956 4.394-10.676 10.722-.345 3.032.591 4.52 4.284 4.661 4.866.185 9.749.888 14.591 1.622 4.573.692 7.373-1.084 7.432-6.291z"/><path d="M136.172 79.38c-.064 10.163.762 20.451-.417 30.461-1.518 12.893-8.202 23.233-22.103 27.279-6.872 2-14.279 2.783-21.542 3.425-7.807.69-15.722.821-23.602.719-5.705-.074-11.431-.907-17.145-1.442-5.109-.478-10.546-.084-15.255-1.707-11.415-3.934-21.131-10.542-25.532-21.686-2.054-5.202-2.731-11.037-2.941-16.582-.569-15.019-.961-30.06-.617-45.046.205-8.935.615-18.192 3.266-26.581C14.65 14.403 23.656 7.151 40.416 5.945c6.33-.455 12.683-.785 19.043-.866 1.286-.016 2.648 1.343 3.976 2.069-.859 1.145-1.454 2.774-2.645 3.315-1.537.698-3.569.446-5.357.74-16.14 2.649-27.011 16.869-25.899 30.406.838 10.192 4.148 18.452 14.587 24.99 12.582 7.879 25.488 7.057 38.759 7.217 2.003.024 4.066.071 5.989-.313 16.635-3.324 28.069-17.382 26.727-33.24-.564-6.661-3.672-12.63-8.853-18.022-5.52-5.744-12.235-8.048-19.534-10.053-2.443-.671-6.49-1.103-5.522-4.495.343-1.203 4.744-1.727 7.327-1.726 5.314 0 10.687.25 15.972.964 8.644 1.168 17.725 3.002 22.44 10.662 4.087 6.638 7.888 14.265 8.607 21.616 1.306 13.326.224 26.774.139 40.171z" fill="#39b54a"/><path d="M56.149 67.073c-8.904-.95-11.098-3.898-9.877-11.82 2.005-13.011 15.633-19.024 28.176-16.419 2.864.595 5.856.522 8.732 1.074 12.406 2.381 17.696 10.699 17.479 19.78-.046 1.936-1.188 4.313-2.706 5.541-2.15 1.739-5.118 2.6-7.945 3.935-2.999-15.485-7.593-20.539-18.202-20.645-10.072-.101-14.164 4.675-15.657 18.554z" fill="#006838"/><path d="M85.631 63.785c-.058 5.207-2.858 6.983-7.431 6.291-4.842-.734-9.725-1.436-14.591-1.622-3.693-.141-4.629-1.628-4.284-4.661.72-6.328 4.049-9.811 10.676-10.722 7.155-.984 12.798 3.367 14.787 7.735.589 1.296.778 2.739.843 2.979z" fill="#8dc63f"/></svg>