<svg xmlns="http://www.w3.org/2000/svg" width="144" height="144"><path d="M142.005 144.004s-38.191.004-51.502-.008c-12.45-.012-37.331.004-37.331.004l-51.142.002s4.307-26.664.376-42.166C.403 91.268 1.66 80.718 4.776 70.38c2.545-8.392 5.271-16.764 7.326-25.278 1.785-7.409 1.939-14.948-3.147-21.593-2.148-2.796-2.717-5.44-.025-7.914 3.102-2.839 6.131-1.352 9.32.43 10.047 5.598 12.111 14.828 13.285 24.515.119.932.059 1.885.108 2.817 0 .111.17.223.63.739 2.492-2.565 4.743-5.293 7.445-7.564 6.143-5.162 13.016-9.645 18.6-15.263 4.233-4.279 6.796-9.986 10.39-14.873 1.581-2.149 3.863-3.853 5.834-5.77 1.759 1.813 4.408 3.351 5.127 5.459 3.024 8.997 7.79 16.726 16.026 22.415 5.008 3.463 9.956 7.026 16.053 11.339-1.354-10.062 3.97-16.206 10.774-21.774 1.121-.923.622-3.385 1.563-4.713 1.211-1.723 2.902-3.457 4.833-4.229.65-.264 3.059 2.167 3.958 3.727 2.577 4.467 2.434 9.149.501 13.832-3.646 8.829-.311 17.045 2.894 25.21 6.55 16.706 8.299 33.506 3.868 51.03-2.686 10.634 1.866 41.082 1.866 41.082zm-3.041-63.535c.156-10.357-2.568-20.032-6.732-29.626-3.166-7.325-4.641-15.137-2.376-23.154 1.353-4.794 2.556-9.75-1.641-14.297-2.282 3.386-3.585 7.167-6.366 9.074-7.944 5.467-8.699 14.385-4.974 21.942 1.998 4.042 3.935 8.287 4.772 12.613 2.592 13.466 2.743 26.943.395 40.534-2.429 14.087-14.126 25.373-28.508 27.683-8.201 1.323-13.969-1.704-12.606-7.359 1.755-7.318-1.352-13.446-3.058-20.073-1.227-4.803-1.864-9.92-1.551-14.814.596-9.455 2.602-18.84 2.948-28.295.204-5.776-2.403-11.287-7.87-16.432-.911 2.362-2.393 4.156-1.993 5.463 4.152 13.728 1.013 26.681-3.225 39.807-1.994 6.203-2.328 13.003-2.552 19.549-.163 4.864 1.744 9.808 1.541 14.672-.335 7.783-3.717 10.936-10.576 9.411-14.248-3.163-25.465-9.134-29.996-23.856-2.066-6.687-2.282-13.527-1.167-20.479 1.436-8.939 1.431-18.14 3.617-26.877 2.426-9.659 2.342-19.012-1.513-27.947-1.618-3.748-6.266-6.471-9.864-9.286-1-.78-3.19-.201-4.84-.24.309 1.581.148 3.435.987 4.722 7.193 10.919 4.796 22.21 1.089 33.136-5.069 14.94-9.629 29.566-6.729 45.737 1.774 9.94-1.489 29.844 2.387 36.864 6.308 4.181 41.27 2.305 41.27 2.305l42.411.378s35.781-.215 43.252-1.254c4.733-3.783-.997-21.118.348-28.648a206.87 206.87 0 0 0 2.724-21.992c0-.081.01-.152.02-.233.161-2.229.263-4.469.324-6.719.021-.769.042-1.539.052-2.309zm-18.404 5.99c-.056-6.719.468-13.488-.317-20.135-1.084-9.201-3.129-18.259-12.125-24.293-4.958-3.341-9.576-7.118-14.354-10.692-7.857-5.893-13.752-12.972-15.996-22.395-.309-1.297-1.679-2.38-2.568-3.565-1.211 1.126-2.691 2.099-3.582 3.417-2.332 3.467-3.765 7.663-6.717 10.513-6.534 6.327-13.838 11.956-20.722 17.96-7.824 6.825-14.009 14.5-15.746 24.847-1.697 10.134-3.053 20.137-2.61 30.534.719 17.014 12.412 29.339 30.141 31.385 2.77.323 4.891-.743 5.142-3.55.282-3.121 1.044-6.506.116-9.363-3.234-10.02-1.228-19.294 2.148-28.892 2.545-7.257 3.79-15.051 4.554-22.702.533-5.31-1.143-10.802-1.01-16.183.061-2.25 1.703-5.22 3.654-6.478 2.771-1.785 5.29.402 7.079 2.691 4.876 6.239 5.762 13.504 5.417 20.77-.274 6.009-2.118 11.929-2.601 17.948-.433 5.401-.917 11.077.34 16.274 1.985 8.166 4.96 16.069 3.805 24.642-.111.872 1.598 2.826 2.438 2.826 9.33-.057 17.902-2.261 24.087-9.287 6.665-7.574 9.541-16.463 9.427-26.272z"/><path d="M132.232 50.842c4.164 9.594 6.888 19.27 6.732 29.626-.01.77-.031 1.54-.051 2.31-.071 2.29-.183 4.53-.324 6.719-.01.081-.02.152-.02.233-.706 9.07-2.521 17.908-7.167 26.433-5.837 10.715-24.916 24.032-39.156 23.545-14.11-.498-28.291.96-42.412.523-22.41-.695-40.179-18.722-43.657-38.156-2.9-16.171 1.659-30.797 6.729-45.737 3.707-10.926 6.104-22.217-1.089-33.136-.839-1.286-.678-3.141-.987-4.722 1.65.039 3.84-.54 4.84.24 3.598 2.815 8.247 5.538 9.864 9.286 3.855 8.935 3.939 18.289 1.513 27.947-2.186 8.737-2.181 17.938-3.617 26.877-1.114 6.952-.899 13.792 1.167 20.479 4.531 14.721 15.748 20.693 29.996 23.856 6.859 1.526 10.241-1.628 10.576-9.411.203-4.864-1.704-9.808-1.541-14.672.224-6.546.558-13.346 2.552-19.549 4.238-13.126 7.377-26.078 3.225-39.807-.399-1.307 1.082-3.102 1.993-5.463 5.467 5.144 8.074 10.655 7.87 16.432-.346 9.455-2.352 18.84-2.948 28.295-.313 4.895.324 10.012 1.551 14.814 1.706 6.626 4.812 12.755 3.058 20.073-1.364 5.655 4.405 8.682 12.606 7.359 14.382-2.309 26.079-13.595 28.508-27.683 2.349-13.591 2.197-27.068-.395-40.534-.837-4.327-2.775-8.571-4.772-12.613-3.725-7.557-2.97-16.475 4.974-21.942 2.781-1.907 4.084-5.688 6.366-9.074 4.197 4.547 2.994 9.503 1.641 14.297-2.265 8.019-.79 15.831 2.375 23.155zm-.827 43.737c2.428-12.8-.214-24.989-2.937-37.28-1.695-7.65-4.161-15.157-5.686-22.827-.508-2.604.813-5.513 1.486-9.405-1.181 1.399-1.661 1.815-1.952 2.332-4.065 7.278-1.309 14.34 1.117 21.341 6.229 18.034 8.868 36.181 3.326 54.8-3.678 12.355-11.024 21.551-24.447 25.441-5.551 1.605-11.422 2.247-18.503 3.589 1.77.617 2.599 1.174 3.399 1.143 2.8-.123 5.6-.348 8.381-.694 10.601-1.324 19.374-5.515 25.819-13.778 5.786-7.412 8.291-15.682 9.997-24.662zm-72.637 40.449c.92-.051 1.801-.771 2.691-1.187-.99-.526-1.949-1.377-2.999-1.498-2.86-.333-5.79-.108-8.63-.532-11.039-1.635-19.496-7-26.001-15.549-8.293-10.878-9.896-23.311-9.078-35.837.575-8.665 3.731-17.158 5.536-25.773 2.367-11.209 5.704-22.551-3.25-32.831l-1.43.305c.219.932.279 1.935.698 2.776.759 1.52 2.058 2.866 2.567 4.437 2.405 7.518.911 14.865-.784 22.304-2.156 9.507-4.152 19.074-5.478 28.712-1.557 11.32.566 22.101 6.17 32.555 8.071 15.065 24.487 23.09 39.988 22.118z" fill="#7d54a2"/><path d="M138.913 82.779c-.061 2.25-.163 4.489-.324 6.719.141-2.189.252-4.429.324-6.719zm-.345 6.952a206.643 206.643 0 0 1-2.724 21.992c-1.345 7.53 4.385 24.865-.348 28.648-7.471 1.038-43.252 1.254-43.252 1.254l-42.411-.378s-34.962 1.877-41.27-2.305c-3.876-7.02-.613-26.925-2.387-36.864 3.478 19.434 21.247 37.461 43.657 38.156 14.12.437 28.301-1.021 42.412-.523 14.24.488 33.319-12.83 39.156-23.545 4.646-8.527 6.462-17.365 7.167-26.435z" fill="#7d54a2"/><path d="M128.468 57.3c2.722 12.29 5.365 24.479 2.937 37.28-1.706 8.979-4.211 17.25-9.996 24.661-6.445 8.263-15.218 12.454-25.819 13.778-2.78.346-5.581.571-8.381.694-.8.031-1.63-.526-3.399-1.143 7.081-1.342 12.952-1.984 18.503-3.589 13.423-3.89 20.769-13.085 24.447-25.441 5.542-18.619 2.903-36.766-3.326-54.8-2.426-7.001-5.181-14.062-1.117-21.341.29-.517.771-.933 1.952-2.332-.672 3.892-1.994 6.801-1.486 9.405 1.525 7.671 3.99 15.178 5.685 22.828z"/><path d="M120.242 66.324c.786 6.647.262 13.417.317 20.135.114 9.809-2.762 18.698-9.427 26.272-6.185 7.026-14.756 9.231-24.087 9.287-.84.001-2.549-1.954-2.438-2.826 1.155-8.574-1.82-16.476-3.805-24.642-1.257-5.198-.773-10.873-.34-16.274.484-6.02 2.328-11.939 2.601-17.948.345-7.266-.541-14.531-5.417-20.77-1.789-2.289-4.307-4.476-7.079-2.691-1.951 1.258-3.593 4.228-3.654 6.478-.133 5.381 1.543 10.872 1.01 16.183-.765 7.651-2.01 15.445-4.554 22.702-3.376 9.599-5.382 18.872-2.148 28.892.928 2.857.166 6.242-.116 9.363-.252 2.807-2.372 3.873-5.142 3.55-17.729-2.046-29.422-14.371-30.141-31.385-.444-10.397.913-20.399 2.609-30.534 1.737-10.347 7.921-18.023 15.746-24.847 6.884-6.003 14.188-11.632 20.722-17.96 2.952-2.849 4.385-7.046 6.717-10.513.891-1.318 2.371-2.292 3.582-3.417.889 1.185 2.259 2.268 2.568 3.565 2.244 9.423 8.14 16.502 15.996 22.395 4.778 3.574 9.396 7.351 14.354 10.692 8.998 6.034 11.042 15.092 12.126 24.293z" fill="#662d91"/><path d="M61.459 133.841c-.89.416-1.771 1.136-2.691 1.187-15.501.972-31.917-7.053-39.988-22.117-5.604-10.454-7.727-21.235-6.17-32.555 1.326-9.638 3.322-19.205 5.478-28.712 1.695-7.439 3.189-14.787.784-22.304-.509-1.57-1.808-2.917-2.567-4.437-.419-.841-.479-1.844-.698-2.776l1.43-.305c8.954 10.28 5.617 21.621 3.25 32.831-1.805 8.615-4.961 17.109-5.536 25.773-.818 12.526.784 24.958 9.078 35.837 6.505 8.549 14.962 13.914 26.001 15.549 2.84.424 5.77.199 8.63.532 1.049.12 2.009.97 2.999 1.497z"/></svg>