<svg xmlns="http://www.w3.org/2000/svg" width="144" height="144"><path d="M105.602 59.838c6.425-10.459 7.454-20.129 1.717-30.241-4.155-7.324-11.056-11.333-19.191-13.826-2.051-.629-4.593-.869-5.98-2.153-1.924-1.78-3.918-4.361-4.059-6.631-.094-1.516 2.78-4.19 4.679-4.425 5.137-.636 10.496-.68 15.705-.152 6.084.617 12.333 1.422 18.104 3.324 13.074 4.308 20.086 13.822 22.44 25.977 1.613 8.33 2.555 16.837 2.745 25.247.349 15.416.244 46.22.244 46.22V144H2.028V92.734s-.665-18.665.053-27.859c1.045-13.372.109-27.089 4.782-39.955 4.16-11.454 11.292-20.072 25.401-21.41a680.472 680.472 0 0125.571-1.946c2.058-.117 4.455.28 6.262 1.208 1.855.953 4.561 3.026 4.422 4.287-.229 2.074-2.074 4.332-3.945 5.68-1.646 1.186-4.221 1.444-6.457 1.746C40.4 16.882 31 31.202 34.288 47.705c.978 4.911 3.829 8.112 6.626 11.069 1.765-4.598 2.911-9.47 5.394-13.619 3.962-6.618 10.229-10.459 18.987-10.311 2.088.035 4.146-.883 6.239-1.279.745-.141 1.616-.222 2.325-.004 6.642 2.04 13.512 3.624 19.818 6.388 6.515 2.855 9.322 8.698 10.659 15.038.281 1.332.685 2.644 1.266 4.851zm30.545 19.067c.086-13.305 1.169-26.658-.137-39.894-.721-7.299-4.528-14.873-8.621-21.465-4.723-7.606-13.819-9.427-22.478-10.587-5.293-.709-10.675-.957-15.998-.958-2.587 0-6.995.519-7.339 1.714-.97 3.368 3.084 3.797 5.531 4.463 7.31 1.991 14.037 4.278 19.566 9.983 5.19 5.354 8.303 11.282 8.868 17.897 1.345 15.747-10.109 29.707-26.772 33.008-1.926.382-3.993.335-5.999.311-13.293-.159-26.22.658-38.824-7.166-10.457-6.492-13.773-14.694-14.612-24.815-1.114-13.441 9.774-27.563 25.942-30.193 1.791-.291 3.826-.041 5.366-.734 1.193-.537 1.788-2.155 2.649-3.292-1.329-.72-2.694-2.071-3.982-2.054-6.37.081-12.735.408-19.075.86C23.444 7.179 14.423 14.38 10.05 28.101c-2.655 8.331-3.066 17.522-3.272 26.395-.344 14.882.048 29.817.618 44.731.21 5.506.888 11.301 2.945 16.466 4.409 11.066 14.14 17.627 25.575 21.534 4.718 1.612 10.163 1.22 15.281 1.695 5.723.531 11.459 1.358 17.174 1.432 7.893.102 15.822-.028 23.641-.714 7.275-.638 14.694-1.415 21.578-3.401 13.924-4.017 20.619-14.285 22.14-27.088 1.181-9.94.353-20.156.417-30.246zM55.992 66.682c1.495-13.782 5.594-18.525 15.682-18.425 10.627.104 15.229 5.123 18.233 20.5 2.832-1.326 5.805-2.181 7.958-3.908 1.521-1.22 2.665-3.58 2.711-5.502.217-9.017-5.082-17.277-17.509-19.642-2.881-.548-5.878-.476-8.746-1.066-12.564-2.587-26.214 3.384-28.223 16.305-1.223 7.867.975 10.794 9.894 11.738zm29.53-3.265c-.065-.238-.254-1.671-.845-2.958-1.992-4.338-7.645-8.659-14.812-7.681-6.638.905-9.972 4.364-10.694 10.648-.346 3.011.592 4.488 4.291 4.628 4.874.184 9.765.882 14.616 1.61 4.581.688 7.386-1.076 7.444-6.247z"/><path d="M138 78.903c-.065 10.092.431 20.308-.75 30.248 0 13.227 1.552 28.473-1.124 30.348s-27.232-.496-34.507.141c-7.82.685-25.355.816-33.248.714-5.714-.074-22.521-.2-28.245-.731-5.622.253-28.751.878-31.501-1.247s-2.353-32.307-2.564-37.814c-.57-14.914.372-31.184.716-46.066.205-8.873.616-18.064 3.272-26.395C14.423 14.38 23.444 7.179 40.232 5.982c6.34-.452 12.705-.779 19.075-.86 1.288-.016 2.653 1.334 3.982 2.054-.861 1.137-1.456 2.755-2.649 3.292-1.539.693-3.575.443-5.366.734-16.167 2.631-27.056 16.752-25.942 30.193.839 10.121 4.155 18.324 14.612 24.815 12.603 7.824 25.531 7.008 38.824 7.166 2.006.024 4.073.071 5.999-.311 16.663-3.3 28.116-17.26 26.772-33.008-.565-6.614-3.678-12.542-8.868-17.897-5.529-5.704-12.256-7.992-19.566-9.983-2.447-.666-6.501-1.095-5.531-4.463C81.918 6.519 86.326 6 88.913 6c5.323 0 10.705.248 15.998.958 8.659 1.16 17.754 2.981 22.478 10.587 4.094 6.592 7.901 14.166 8.621 21.465 1.306 13.236 2.075 26.59 1.99 39.893z" fill="#39b54a"/><path d="M55.992 66.682c-8.919-.943-11.117-3.871-9.894-11.738 2.008-12.92 15.659-18.891 28.223-16.305 2.868.591 5.865.518 8.746 1.066 12.426 2.364 17.725 10.624 17.509 19.642-.046 1.922-1.19 4.282-2.711 5.502-2.153 1.727-5.126 2.582-7.958 3.908-3.004-15.377-7.606-20.396-18.233-20.5-10.088-.1-14.187 4.643-15.682 18.425z" fill="#006838"/><path d="M85.522 63.417c-.059 5.171-2.863 6.935-7.443 6.247-4.85-.729-9.741-1.426-14.616-1.61-3.699-.14-4.637-1.617-4.291-4.628.721-6.284 4.056-9.742 10.694-10.648 7.166-.977 12.82 3.343 14.812 7.681.59 1.287.779 2.72.844 2.958z" fill="#8dc63f"/></svg>