<svg xmlns="http://www.w3.org/2000/svg" width="144" height="144"><path d="M44.193 142.603c-11.657-.335-22.26-2.501-30.661-10.993-6.469-6.539-8.788-14.905-9.571-23.717-.842-9.474-1.697-18.973-1.875-28.474-.189-10.134.191-20.293.74-30.419.345-6.364.676-12.903 2.381-18.984C9.313 15.369 19.254 5.664 34.999 3.731c9.333-1.146 18.77-1.926 28.163-1.959 7.37-.026 14.859.805 20.732 6.496.852.826 3.526.748 4.782.056 13.295-7.328 30.731-5.113 42.03 4.748 7.066 6.166 9.723 13.85 10.238 22.606.57 9.666.999 19.352 1.074 29.032.069 8.992-.304 17.992-.688 26.98-.236 5.506-1.806 11.119-1.106 16.467 1.303 9.954-3.683 17.042-9.49 23.7-5.436 6.232-12.823 9.77-21.166 9.975-17.686.433-35.384.342-53.076.583-4.102.055-8.199-.12-12.299.188zm66.658-123.778c-2.362 2.717-4.914 4.817-6.304 7.51-1.185 2.297-.906 5.305-1.497 7.949-1.918 8.568-4.454 17.014-14.183 19.73-5.884 1.642-12.147 3.062-18.175 2.842-13.485-.492-22.971-10.62-21.315-22.431 1.419-10.119 6.749-14.835 16.667-14.246 3.258.194 6.875 1.37 7.405 4.868.582 3.843-3.081 4.545-6.091 5.245-.874.203-1.766.506-2.532.961-2.93 1.739-3.763 4.655-1.572 6.883 2.25 2.288 5.429 4.339 8.528 5.015 12.004 2.62 20.348-11.783 17.063-21.848-3.247-9.951-9.572-15.25-20.827-15.676-11.05-.419-22.213.661-33.252 1.8C22.463 8.696 10.34 19.753 8.84 31.185 7.374 42.362 6.934 53.669 5.918 64.908c-.331 3.659 1.695 4.41 4.668 4.435 2.178.018 4.363.01 6.532.183 10.339.825 16.604 8.806 16.891 17.178.468 13.659 10.117 21.002 22.149 20.733 11.046-.247 22.103.025 33.151-.14 10.105-.151 17.347-6.762 18.845-16.214.84-5.297 2.226-10.551 3.852-15.672 1.731-5.451 6.038-8.087 11.622-8.626 4.504-.435 9.024-.699 14.167-1.087-.294-4.939-.87-9.763-.806-14.578.113-8.49.475-16.801-2.92-25.043-3.251-7.891-8.216-13.537-16.091-16.573-9.89-3.813-19.558-2.55-29.326 1.94.39 1.353.431 3.044 1.266 4.132 4.159 5.415 3.607 11.249 2.022 17.277-3.426 13.029-21.423 19.286-30.261 9.545-2.65-2.92-4-6.18-2.702-9.319.967-2.341 4.054-3.918 6.395-5.555 1.439-1.007 3.251-1.486 5.648-2.53-6.327-2.642-13.1-1.188-15.721 2.641-4.441 6.489-2.456 17.409 4.177 21.834 8.884 5.928 18.275 4.894 27.842 1.772 5.94-1.938 8.96-6.498 10.86-11.807 1.808-5.053 2.736-10.412 4.332-15.549 1.191-3.836 3.592-6.301 8.341-5.06zM91.267 139.516c7.655-.869 15.057-.882 21.993-2.678 12.588-3.258 20.862-11.105 22.05-24.782.509-5.855.782-11.739 1.523-17.564 1.037-8.149 1.971-16.255.187-24.645-3.027-.079-5.78-.162-8.534-.22-7.545-.159-13.409 4.672-14.657 12.065-.36 2.135-.805 4.261-1.059 6.408-1.337 11.301-6.98 19.185-18.195 22.502-2.219.656-4.646.615-7.222.925l3.914 27.989zm-31.306-23.205c.642-5.129.623-4.904-4.356-5.327-14.564-1.236-23.521-5.716-25.471-22.339-.814-6.941-3.084-14.172-12.316-14.959-2.487-.212-4.967-.501-7.456-.682-3.32-.242-4.887 1.432-4.728 4.65.135 2.714.428 5.42.69 8.126 1.091 11.274.435 22.731 4.551 33.669 3.019 8.024 8.181 14.272 16.21 16.402 8.298 2.201 17.134 2.524 25.772 3.194 1.327.103 4.708 1.68 4.993-2.415.474-6.789 1.384-13.548 2.111-20.319zm1.352 22.109c7.577.198 15.381.488 23.183.451.676-.003 2.025-2.245 1.902-3.314-.843-7.302-1.876-14.589-3.175-21.823-.204-1.137-2.029-2.765-3.166-2.816-3.925-.175-7.903.051-11.804.559-1.228.16-3.09 1.544-3.277 2.609-1.395 7.93-2.442 15.92-3.663 24.334z"/><path d="M110.851 18.825c-4.749-1.24-7.15 1.224-8.343 5.062-1.597 5.138-2.524 10.496-4.332 15.549-1.899 5.309-4.919 9.869-10.86 11.807-9.566 3.121-18.957 4.155-27.842-1.772-6.632-4.425-8.618-15.345-4.177-21.834 2.621-3.829 9.395-5.283 15.721-2.641-2.398 1.044-4.209 1.523-5.648 2.53-2.341 1.637-5.427 3.215-6.395 5.555-1.298 3.139.053 6.399 2.702 9.319 8.839 9.741 26.835 3.484 30.261-9.545 1.585-6.029 2.137-11.862-2.022-17.277-.835-1.088-.876-2.779-1.266-4.132 9.768-4.49 19.437-5.753 29.326-1.94 7.875 3.036 12.841 8.682 16.091 16.573 3.395 8.242 3.033 16.553 2.92 25.043-.064 4.816.511 9.639.806 14.578-5.143.387-9.663.651-14.167 1.087-5.585.539-9.892 3.175-11.622 8.626-1.626 5.121-3.013 10.375-3.852 15.672-1.498 9.452-8.74 16.063-18.845 16.214-11.049.166-22.105-.107-33.151.14-12.031.269-21.681-7.074-22.149-20.733-.287-8.372-6.551-16.353-16.891-17.178-2.168-.173-4.354-.165-6.532-.183-2.973-.025-4.998-.776-4.668-4.435C6.934 53.669 7.374 42.362 8.84 31.185c1.5-11.433 13.623-22.489 25.926-23.759 11.039-1.139 22.202-2.219 33.252-1.8 11.256.427 17.58 5.725 20.827 15.676 3.284 10.065-5.059 24.468-17.063 21.848-3.099-.676-6.277-2.728-8.528-5.015-2.191-2.228-1.358-5.144 1.572-6.883.766-.454 1.658-.757 2.532-.961 3.01-.701 6.673-1.402 6.091-5.245-.53-3.498-4.147-4.675-7.405-4.868-9.918-.59-15.248 4.127-16.667 14.246-1.656 11.811 7.83 21.939 21.315 22.431 6.028.22 12.291-1.2 18.175-2.842 9.729-2.716 12.265-11.161 14.183-19.73.592-2.644.312-5.652 1.497-7.949 1.39-2.693 3.942-4.792 6.304-7.509z" fill="#f15a29"/><path d="M91.267 139.516l-3.914-27.989c2.576-.31 5.003-.269 7.222-.925 11.216-3.316 16.858-11.201 18.195-22.502.254-2.148.699-4.273 1.059-6.408 1.248-7.393 7.112-12.224 14.657-12.065 2.754.058 5.507.141 8.534.22 1.784 8.39.85 16.496-.187 24.645-.741 5.825-1.014 11.709-1.523 17.564-1.188 13.677-9.462 21.524-22.05 24.782-6.937 1.796-14.338 1.809-21.993 2.678zm-31.306-23.205c-.726 6.771-1.637 13.53-2.11 20.318-.286 4.095-3.667 2.518-4.993 2.415-8.638-.67-17.474-.993-25.772-3.194-8.029-2.129-13.191-8.378-16.21-16.402-4.116-10.937-3.46-22.394-4.551-33.669-.262-2.706-.555-5.413-.69-8.126-.16-3.218 1.408-4.892 4.728-4.65 2.489.181 4.969.47 7.456.682 9.232.787 11.502 8.018 12.316 14.959 1.95 16.623 10.907 21.103 25.471 22.339 4.978.424 4.997.199 4.355 5.328z" fill="#f7941e"/><path d="M61.313 138.42c1.22-8.414 2.268-16.404 3.663-24.334.187-1.065 2.049-2.449 3.277-2.609 3.901-.508 7.879-.734 11.804-.559 1.137.051 2.962 1.679 3.166 2.816 1.298 7.234 2.332 14.522 3.175 21.823.123 1.069-1.226 3.311-1.902 3.314-7.802.037-15.605-.254-23.183-.451z" fill="#be1e2d"/></svg>