<svg xmlns="http://www.w3.org/2000/svg" width="144" height="144"><path d="M18.407 108.951c-2.729-1.527-5.192-3.084-7.81-4.322-2.965-1.403-5.613-2.794-5.555-6.688.056-3.776 2.079-6.05 5.243-7.674.748-.384 1.415-.924 2.099-1.379-.256-.431-.345-.814-.542-.88-8.31-2.756-10.669-10.009-6.945-19.692 3.533-9.187 8.566-17.399 14.549-25.184 4.412-5.74 8.295-11.876 12.528-17.755 5.475-7.604 13.018-12.79 21.536-16.303 10.986-4.531 22.676-5.911 34.542-6.647 8.464-.526 16.691-.702 25.128.865 8.634 1.604 14.938 5.678 19.293 13.006 5.262 8.854 7.412 18.594 7.677 28.71.37 14.154 1.12 28.36.293 42.463-.537 9.161-2.904 18.396-5.755 27.183-2.011 6.197-7.214 11.039-13.266 13.797-7.258 3.307-14.863 6.024-22.545 8.218-7.276 2.079-14.783 3.774-22.302 4.51-9.532.934-19.218 1.373-28.762.798-6.82-.411-13.493-2.84-18.197-8.568-3.66-4.457-7.723-7.134-14.176-5.112-1.856.582-6.422-1.802-6.876-3.555-.801-3.087-.239-7.202 1.347-10.004 1.34-2.371 4.936-3.493 8.496-5.787zm118.116-34.926c-3.193 2.71-5.801 5.318-8.789 7.391-13.396 9.295-31.439.53-35.714-14.068-3.155-10.771-1.78-21.017 2.355-30.876 6.044-14.41 17.623-24.511 34.522-18.105-3.068-6.164-7.788-9.729-12.884-10.775l-5.78 3.931-1.383-5.436c-1.643-.196-4.358-.981-6.984-.753-12.134 1.049-24.427 1.479-36.313 3.853-12.844 2.566-24.016 9.105-31.907 19.961-6.553 9.015-13.38 17.905-19.061 27.447-3.552 5.965-6.34 12.863-7.404 19.659-1.158 7.396 1.276 8.925 8.693 6.281 2.889-1.03 6.238-1.044 9.38-1.061 3.541-.019 6.24-2.293 6.402-5.991.168-3.841-1.542-5.896-5.571-5.854-1.134.012-2.27-.168-3.405-.26l-.392-1.161c1.411-.718 2.78-1.942 4.24-2.06 4.457-.359 7.519 3.779 7.964 10.294.276 4.046-2.653 7.403-6.824 7.687-1.824.124-3.665.061-5.497.02-3.667-.082-5.723 2.149-6.254 5.24-.269 1.564.882 3.654 1.953 5.098 2.559 3.452 5.452 6.661 8.21 9.969l-.732.954c-1.309-.875-2.861-1.536-3.874-2.67-1.98-2.216-3.487-4.856-5.53-7.004-1.102-1.158-2.884-2.188-4.406-2.258-.889-.04-2.623 1.921-2.633 2.994-.013 1.542.769 3.838 1.962 4.514 5.385 3.048 11.039 5.633 16.588 8.399 1.128.562 2.224 1.186 3.335 1.781l-.388 1.104c-3.313 0-6.629-.086-9.939.021-4.311.14-9.299 3.646-9.743 7.235-.174 1.411 1.092 2.996 1.703 4.502 1.234-.915 2.912-1.579 3.616-2.794 1.992-3.438 4.009-6.488 8.522-6.06l-6.211 7.203c4.341 2.462 8.46 3.638 10.773 6.331 6.612 7.702 15.111 10.033 24.604 9.809 6.784-.16 13.539-1.279 20.325-1.684 10.691-.638 21.153-2.384 31.067-6.425 6.17-2.515 12.835-4.704 17.953-8.7 10.776-8.412 11.482-21.269 12.999-33.204l-5.466-.708-.105-1.848 5.547-1.826.476-10.097zm-30.647-18.13l-1.238.469c1.535 3.922 2.088 8.78 4.808 11.573 5.823 5.98 14.779 3.935 20.647-3.684 7.337-9.528 6.151-20.214 3.653-30.936-.233-.999-1.273-1.974-2.181-2.632-6.045-4.383-15.127-2.8-19.217 3.537-4.237 6.567-6.924 13.687-6.472 21.673zm29.933 7.002c-3.379 3.103-6.088 6.031-9.239 8.378-4.491 3.345-9.913 4.699-15.036 2.33-5.628-2.602-9.109-7.286-9.338-13.929-.255-7.388.155-14.642 3.748-21.285 4.022-7.437 10.696-14.374 19.611-13.131 2.263.316 4.495.854 8.174 1.568-1.778-2.078-2.476-3.492-3.617-4.134-10.84-6.101-21.403-3.404-28.273 6.928-4.456 6.702-6.373 14.007-7.281 22.056-.712 6.32-.327 12.152 1.7 17.896 3.189 9.039 16.345 14.424 26.119 11.046 7.349-2.54 13.681-10.527 13.432-17.723z"/><path d="M136.523 74.025l-.475 10.096-5.547 1.826.105 1.848 5.466.708c-1.517 11.935-2.223 24.792-12.999 33.204-5.118 3.996-11.784 6.185-17.953 8.7-9.914 4.041-20.376 5.788-31.067 6.425-6.785.405-13.541 1.523-20.325 1.684-9.493.224-17.992-2.107-24.604-9.809-2.312-2.694-6.432-3.869-10.773-6.331l6.211-7.203c-4.513-.427-6.529 2.623-8.522 6.06-.705 1.216-2.383 1.879-3.616 2.794-.611-1.506-1.877-3.091-1.703-4.502.443-3.589 5.432-7.095 9.743-7.235 3.31-.107 6.626-.021 9.939-.021l.388-1.104c-1.111-.595-2.207-1.219-3.335-1.781-5.549-2.766-11.203-5.351-16.588-8.399-1.194-.676-1.975-2.972-1.962-4.514.009-1.072 1.744-3.034 2.633-2.994 1.522.069 3.304 1.099 4.406 2.258 2.043 2.147 3.55 4.787 5.53 7.004 1.013 1.134 2.565 1.795 3.874 2.67l.732-.954c-2.758-3.307-5.65-6.517-8.21-9.969-1.071-1.444-2.222-3.534-1.953-5.098.531-3.091 2.588-5.322 6.254-5.24 1.832.041 3.672.104 5.497-.02 4.171-.284 7.1-3.64 6.824-7.687-.444-6.515-3.506-10.654-7.964-10.294-1.46.118-2.829 1.342-4.24 2.06l.392 1.161c1.135.092 2.271.272 3.405.26 4.029-.042 5.739 2.013 5.571 5.854-.162 3.698-2.861 5.973-6.402 5.991-3.142.016-6.491.031-9.38 1.061-7.417 2.644-9.851 1.115-8.693-6.281 1.064-6.796 3.853-13.694 7.404-19.659 5.682-9.542 12.508-18.432 19.061-27.447C41.539 18.291 52.71 11.751 65.554 9.186c11.885-2.374 24.179-2.804 36.314-3.853 2.626-.227 5.341.558 6.984.753l1.383 5.436 5.78-3.931c5.096 1.046 9.815 4.611 12.884 10.775C112 11.96 100.421 22.06 94.377 36.471c-4.135 9.859-5.509 20.105-2.355 30.876 4.275 14.598 22.319 23.364 35.714 14.068 2.986-2.072 5.594-4.68 8.787-7.39zm-69.15 28.577c.861-6.24-7.04-11.782-13.65-12.02-7.085-.255-12.392 5.029-12.772 12.324-.254 4.876 7.273 10.338 14.144 10.264 5.951-.064 12.215-5.456 12.278-10.568zm-.079-56.803c-2.675-2.429-5.267-1.214-7.698.239-6.128 3.664-12.293 6.742-19.873 4.734-1.003-.266-2.512 1.338-3.889 2.136 2.666 1.374 4.688 1.841 5.807 3.096 4.222 4.735 11.13 5.312 15.656.771 3.396-3.407 6.494-7.105 9.997-10.976zM57.43 126.07l5.313-6.365c-1.751-1.256-3.359-3.21-5.289-3.598-2.637-.53-4.832 1.456-4.482 4.126.215 1.638 2.23 3.046 4.458 5.837zm13.349-28.273c2.187-2.727 4.426-4.274 4.593-6.017.253-2.626-2.223-4.512-4.786-3.77-1.64.475-3.507 2.641-3.821 4.315-.224 1.193 1.967 2.829 4.014 5.472zm-3.487 12.152c2.786 1.946 4.491 4.05 5.875 3.861 1.574-.216 3.923-2.434 3.987-3.867.069-1.547-2.28-4.605-3.28-4.49-1.865.213-3.516 2.247-6.582 4.496zm24.245-86.9c-2.097-1.469-3.46-3.164-4.562-3.011-1.428.198-2.648 1.867-3.958 2.903 1.105 1.046 2.199 2.914 3.319 2.93 1.422.02 2.865-1.463 5.201-2.822zm-2.266 63.745c-2.19-1.769-3.475-3.489-4.273-3.29-1.155.287-2.493 1.863-2.724 3.08-.157.83 1.371 2.721 2.275 2.808 1.097.104 2.331-1.192 4.722-2.598zm30.508 11.725c-1.445-1.538-2.653-3.409-3.149-3.24-1.485.507-2.691 1.812-4.006 2.806 1.197 1.086 2.251 2.509 3.661 3.091.56.231 1.907-1.4 3.494-2.657zm-10.703 1.985c-2.154-1.711-3.452-3.502-4.487-3.364-1.178.157-2.477 1.898-3.004 3.23-.229.579 1.459 2.724 2.061 2.641 1.536-.214 2.952-1.28 5.43-2.507zM95.923 16.643l2.032.962 3.423-4.789a7913.27 7913.27 0 0 0-4.318-1.805l-1.137 5.632zM83.712 75.342c-1.574-1.213-2.841-2.886-3.727-2.707-1.274.257-2.773 1.702-3.181 2.956-.215.66 1.819 2.924 2.601 2.814 1.337-.188 2.488-1.672 4.307-3.063zm-2.137-28.597c-1.934-1.615-3.443-3.303-3.796-3.092-1.225.73-2.479 2.003-2.84 3.308-.175.631 1.622 2.537 2.512 2.528 1.119-.011 2.224-1.393 4.124-2.744zm-.957-8.664c1.332-1.844 2.913-3.099 2.729-4.003-.253-1.24-1.843-2.214-2.86-3.302-.986.971-2.79 1.97-2.757 2.906.043 1.249 1.514 2.448 2.888 4.399zm12.317 52.465c-1.117 1.949-2.263 3.189-2.44 4.551-.1.771 1.393 1.743 2.168 2.625 1.037-1.246 2.374-2.373 2.954-3.801.215-.528-1.352-1.765-2.682-3.375zM73.977 63.917l2.112 1.898 4.08-3.944L77 59.152a12570.49 12570.49 0 0 0-3.023 4.765zm56.076 30.884c-2.029-1.44-3.084-2.713-4.254-2.826-.722-.07-2.147 1.565-2.258 2.545-.076.675 1.486 2.038 2.451 2.177.942.134 2.055-.895 4.061-1.896z" fill="#754b9e"/><path d="M105.876 55.895c-.452-7.986 2.235-15.106 6.472-21.672 4.09-6.338 13.172-7.92 19.217-3.537.908.658 1.948 1.633 2.181 2.632 2.498 10.722 3.685 21.408-3.653 30.936-5.867 7.619-14.824 9.663-20.647 3.684-2.72-2.793-3.273-7.651-4.808-11.573l1.238-.47z" fill="#754b9e"/><path d="M135.809 62.897c.248 7.196-6.083 15.183-13.432 17.723-9.775 3.378-22.93-2.007-26.119-11.046-2.027-5.744-2.412-11.576-1.7-17.896.907-8.049 2.824-15.354 7.281-22.056 6.87-10.333 17.433-13.029 28.273-6.928 1.141.642 1.839 2.056 3.617 4.134-3.679-.714-5.91-1.253-8.174-1.568-8.915-1.243-15.589 5.694-19.611 13.131-3.593 6.644-4.003 13.897-3.748 21.285.229 6.643 3.71 11.327 9.338 13.929 5.123 2.368 10.545 1.015 15.036-2.33 3.152-2.346 5.861-5.275 9.239-8.378z" fill="#5151a3"/><path d="M67.373 102.602c-.062 5.111-6.327 10.503-12.278 10.568-6.871.075-14.398-5.388-14.144-10.264.38-7.295 5.687-12.579 12.772-12.324 6.609.239 14.511 5.78 13.65 12.02zm-12.888 6.98c6.32.004 9.225-2.4 9.255-7.658.027-4.771-4.002-7.777-10.443-7.793-5.451-.013-7.932 2.428-7.924 7.796.008 5.39 2.699 7.65 9.112 7.655zm12.809-63.783c-3.503 3.87-6.601 7.569-9.996 10.976-4.526 4.541-11.433 3.963-15.656-.771-1.119-1.255-3.141-1.721-5.807-3.096 1.377-.797 2.886-2.401 3.889-2.136 7.58 2.009 13.745-1.07 19.873-4.734 2.43-1.453 5.022-2.668 7.697-.239zm-20.785 9.983c5.207 2.397 8.881.884 10.331-4.012l-10.331 4.012zM57.43 126.07c-2.228-2.79-4.243-4.198-4.458-5.837-.35-2.67 1.845-4.656 4.482-4.126 1.93.388 3.538 2.342 5.289 3.598l-5.313 6.365zm13.349-28.273c-2.046-2.643-4.238-4.279-4.014-5.472.314-1.674 2.18-3.84 3.821-4.315 2.563-.742 5.039 1.144 4.786 3.77-.168 1.743-2.406 3.291-4.593 6.017zm-3.487 12.152c3.066-2.249 4.717-4.283 6.581-4.496 1.001-.114 3.349 2.943 3.28 4.49-.064 1.433-2.412 3.651-3.987 3.867-1.383.189-3.088-1.915-5.874-3.861zm24.245-86.9c-2.335 1.359-3.779 2.843-5.201 2.822-1.12-.016-2.214-1.884-3.319-2.93 1.31-1.036 2.53-2.705 3.958-2.903 1.102-.153 2.465 1.542 4.562 3.011zm-2.266 63.745c-2.391 1.406-3.625 2.703-4.721 2.598-.905-.086-2.433-1.978-2.275-2.808.231-1.217 1.569-2.793 2.724-3.08.797-.199 2.082 1.521 4.272 3.29zm30.508 11.725c-1.588 1.258-2.934 2.888-3.494 2.657-1.409-.582-2.464-2.005-3.661-3.091 1.315-.994 2.521-2.299 4.006-2.806.496-.17 1.704 1.702 3.149 3.24zm-10.703 1.985c-2.478 1.227-3.894 2.294-5.431 2.506-.602.083-2.29-2.062-2.061-2.641.528-1.331 1.826-3.073 3.004-3.23 1.036-.137 2.334 1.653 4.488 3.365zM95.923 16.643l1.137-5.633 4.318 1.805-3.423 4.789c-.677-.319-1.354-.64-2.032-.961zM83.712 75.342c-1.819 1.391-2.97 2.875-4.307 3.063-.781.11-2.815-2.154-2.601-2.814.408-1.254 1.907-2.699 3.181-2.956.886-.179 2.153 1.494 3.727 2.707zm-2.137-28.597c-1.9 1.351-3.005 2.733-4.124 2.744-.89.009-2.687-1.897-2.512-2.528.361-1.305 1.615-2.578 2.84-3.308.353-.211 1.862 1.477 3.796 3.092zm-.957-8.664c-1.373-1.951-2.845-3.15-2.889-4.399-.033-.936 1.771-1.935 2.757-2.906 1.017 1.088 2.608 2.061 2.86 3.302.184.904-1.396 2.16-2.728 4.003zm12.317 52.465c1.33 1.611 2.897 2.847 2.683 3.375-.58 1.428-1.917 2.555-2.954 3.801-.775-.882-2.268-1.854-2.168-2.625.175-1.363 1.321-2.602 2.439-4.551zM73.977 63.917L77 59.151l3.169 2.719-4.08 3.944-2.112-1.897zm56.076 30.884c-2.007 1.002-3.119 2.031-4.061 1.895-.965-.139-2.527-1.501-2.451-2.177.11-.98 1.535-2.616 2.258-2.545 1.171.114 2.225 1.386 4.254 2.827z"/><path d="M54.485 109.582c-6.413-.004-9.103-2.264-9.112-7.655-.008-5.368 2.473-7.809 7.924-7.796 6.441.015 10.469 3.022 10.443 7.793-.03 5.258-2.936 7.662-9.255 7.658z" fill="#5151a3"/><path d="M46.509 55.782c3.588-1.394 6.96-2.703 10.327-4.017-1.446 4.901-5.12 6.414-10.327 4.017z" fill="#fff"/></svg>