<svg xmlns="http://www.w3.org/2000/svg" width="144" height="144"><path d="M18.12 125.331c-3.528.787-6.936 1.904-10.396 2.147-1.43.1-3.431-1.348-4.279-2.73-.455-.741.72-3.065 1.619-4.277 2.652-3.578 5.534-6.958 8.54-10.681-8.881-6.414-7.416-13.516-2.145-20.385-2.177-1.801-3.913-3.275-5.686-4.696-2.328-1.865-2.224-4.07-1.267-6.775a312.17 312.17 0 0 0 5.346-16.559c2.129-7.287 6.624-12.067 12.88-15.295 1.016-.524 2.063-1.918 2.298-3.095.718-3.591 1.047-7.273 1.703-12.253-5.128 4.657-9.202 2.344-13.416.134-2.943-1.544-3.743-3.843-3.621-7.171.115-3.155 2.277-3.484 4.122-4.757 2.188-1.51 4.454-3.512 5.683-5.901C23.327 5.6 28.871 1.405 36.708 2.503c3.455.484 6.603 3.245 9.994 4.689 1.401.597 3.33 1.103 4.583.534 8.047-3.659 16.165-5.34 24.942-3.54 4.736.971 9.686.679 14.531 1.081 4.813.399 9.024 2.61 13.166 5.143.942.576 3.12.554 3.646-.143 2.13-2.824 4.812-2.738 7.656-2.526 5.943.442 11.975.558 16.84 5.099 1.03.961 2.299 1.899 2.835 3.156 3.611 8.484 6.189 17.243 5.121 26.785-.058.516-.092 1.251-.398 1.486-3.929 3.003-2.25 6.466-1.091 10.213 2.965 9.586 3.159 19.417 1.63 29.353-.546 3.548-.449 7.226-1.142 10.731-1.434 7.256-2.518 14.724-5.001 21.574-3.112 8.585-9.074 15.153-16.164 20.371-6.542 4.814-14.003 5.836-21.636 5.751-9.932-.111-19.862-.669-29.793-.673-9.557-.004-19.114.663-28.669.601-3.66-.024-7.582-.562-10.911-2.076-6.004-2.729-10.161-7.362-8.727-14.781zm6.947-52.404c1.207-.852 1.796-1.626 2.39-1.63 3.903-.03 5.651 3.373 7.037 6.311.821 1.741.54 4.901-.431 6.661-2.933 5.312-7.628 4.845-12.201 2.922-3.692-1.552-6.281-.055-7.486 3.362-1.24 3.517-1.826 7.394-2.143 11.168-.254 3.032 1.924 4.213 4.784 3.842 2.486-.323 5.405-.75 7.523.301 10.701 5.308 22.154 5.291 33.489 6.285 1.842.162 3.809.24 5.446 1.021 1.164.555 2.466 2.148 2.61 3.422.136 1.199-1.164 2.587-1.832 3.893l-1.187.13c.7-4.475-1.575-4.536-4.284-4.684-9.304-.51-18.601-1.206-27.89-1.979-3.959-.33-7.471 1.785-7.487 4.826-.013 2.463.192 4.991-.245 7.374-.902 4.92.722 8.709 5.136 9.607 5.214 1.061 10.522 1.714 15.817 2.121 3.09.238 6.237-.562 9.354-.526 7.583.088 15.186.884 22.74.486 9.869-.52 19.679 1.266 29.711-1.88 6.192-1.942 11.383-4.486 15.708-9.066 9.586-10.15 11.529-23.814 13.236-37.221 1.395-10.955 2.128-22.115-.729-33.038-.685-2.618-1.396-5.475-4.769-5.697-5.729-.377-7.416.541-8.769 4.485-3.673 10.7-3.437 21.979-4.394 33.089-.722 8.383-1.252 16.808-2.455 25.115-1.318 9.101-4.989 16.809-13.57 20.456-1.173.499-2.534.485-3.808.708l-.626-1.392c5.599-2.941 9.755-7.253 11.762-12.752-2.457-.869-5.565-.932-6.863-2.618-4.208-5.466-4.349-18.706 1.044-23.033l-5.146-12.874c.923 18.193-2.484 31.652-7.423 36.601-.348-1.182-1.136-2.418-.836-3.059 4.049-8.629 4.233-17.995 4.36-27.282.11-8.038.436-15.935 4.125-24.168-4.605 1.896-6.33 5.451-7.58 9.082-3.143 9.13-8.327 15.37-17.53 17.782-10.349 2.712-20.005 2.846-28.85-4.64-.482-.408-2.727.387-3.025 1.142-2.838 7.171-.301 14.135 7.162 15.417 4.9.842 9.955.975 14.931.873 5.6-.115 10.172 1.378 13.477 6.622 1.724 2.736 2.455 7.814.969 10.437-1.773 3.131-6.474 5.217-10.53 4.149 1.598-1.111 2.723-2.004 3.939-2.717 3.116-1.827 3.777-4.847 3.404-8.256-.32-2.92-1.895-4.843-4.636-5.428-1.812-.387-3.637-.78-5.473-.937-5.084-.434-10.245-.315-15.247-1.231-4.655-.852-8.974-2.724-11.377-8.019-2.423-5.339-1.132-9.935 1.58-14.301 1.093-1.76.85-2.9.28-4.645-1.22-3.734-2.311-7.555-3.031-11.432-1.083-5.833 1.649-10.936 3.172-16.264.752-2.632.787-5.051-2.54-5.726-2.037-.413-4.042-1.006-5.662-1.417-1.419 1.336-2.448 2.818-3.819 3.51-7.197 3.634-11.574 9.597-13.606 17.832-.964 3.908-1.91 7.974-3.733 11.436-1.524 2.895.215 4.473 1.224 6.011.613.935 3.149 1.353 4.274.77 3.59-1.859 6.977-1.037 10.407.049 2.79.883 4.805.454 6.088-2.721 1.302-3.221-.261-5.104-2.341-6.783-.861-.696-1.967-1.041-3.625-1.882zm80.516-53.851c-.376-.679-.918-1.972-1.714-3.045-4.396-5.916-10.643-7.746-17.163-8.094-7.918-.421-15.879-.367-23.802-.014-6.319.282-11.571 3.437-15.387 8.981-.461.67-.518 2.073-.206 2.887 1.723 4.488 4.711 7.172 9.257 8.433 9.263 2.57 18.611 3.326 28.06 2.394 5.02-.495 10.076-1.311 14.935-2.712 3.374-.974 5.524-3.953 6.02-8.83zM87.166 55.979l.016-1.615-26.592-3.772c-.401 10.684-1.228 21.404-15.643 20.73 2.948 5.626 6.193 9.878 11.969 10.456 3.365.337 6.832.538 10.157.044 4.624-.687 8.725-3.198 10.25-8.156 1.771-5.758 2.686-11.824 3.958-17.687h5.885zm28.598-22.465c-2.352 1.893-3.892 3.537-5.732 4.547-9.857 5.41-20.607 5.474-31.265 5.433-5.682-.022-11.401-.762-17.032-1.689-8.854-1.458-18.056-2.13-24.632-10.23-.878-1.081-3.195-2.346-3.708-1.922-1.289 1.065-2.313 2.945-2.713 4.693-.389 1.699-.056 3.689.334 5.454.175.794 1.281 1.902 1.93 1.875.749-.031 1.828-1.019 2.091-1.842.313-.979-.089-2.224-.181-3.349 2.466-.573 3.458.291 3.689 3.036.292 3.468 1.594 6.489 5.506 6.657 2.006.087 4.018-.004 6.027.007 4.81.026 9.837-.898 14.388.29 10.944 2.858 21.962 3.584 33.03 2.569 5.7-.522 11.399-1.812 16.279-6.079 3.259-2.847 2.462-5.575 1.989-9.45zm-72.41-19.766c-2.103 1.333-4.151 1.999-5.279 3.481-2.232 2.933-.925 11.225 2.075 13.392 2.654 1.918 5.513 3.878 8.545 4.733 5.946 1.675 12.032 3.101 18.138 3.694 7.269.706 14.644.878 21.928.426 5.228-.324 10.348-2.627 15.577-2.976 4.489-.3 6.574-3.275 8.038-6.667 1.351-3.129 1.607-6.893-1.407-10.4-1.173 1.857-2.04 3.412-3.074 4.824-1.41 1.926-2.672 4.174-4.483 5.527-5.559 4.152-12.085 5.427-18.644 5.568-9.447.203-18.773-1.015-27.98-3.668-10.003-2.881-13.014-6.292-13.434-17.934zm84.227.931c1.494 4.264 3.166 8.469 4.375 12.825.378 1.36-.498 3.126-.8 4.706-.967-1.141-2.293-2.114-2.832-3.455-1.562-3.884-2.341-8.209-4.287-11.821-2.845-5.281-9.361-8.033-14.432-2.254 4.363 1.656 6.056 3.096 7.299 7.697 1.187 4.391 2.606 8.993 2.452 13.443-.156 4.493.8 9.416 4.142 10.185 5.629 1.294 11.362-.731 12.001-5.784 1.217-9.62-1.247-18.446-7.918-25.542zm-8.737 33.993c-.738-.094-1.712-.547-2.085-.215-4.616 4.11-10.374 3.873-15.765 5.181-5.384 1.306-11.489 1.874-14.746 7.549-2.347 4.089-4.235 8.704-5.322 13.358-1.314 5.628-5.055 8.394-9.261 10.018-6.341 2.448-12.888 2.998-19.61.216C45.171 81.93 39.046 70.76 41.094 63.34c1.099-3.981 2.212-7.958 3.318-11.937-1.307-.028-2.233.458-2.48 1.206-.986 2.986-1.943 6.011-2.575 9.101-1.293 6.32-.738 12.619 2.795 17.854 1.985 2.941 5.144 5.151 8.111 7.091 6.441 4.213 13.617 2.579 20.356 1.524 6.293-.985 10.603-5.705 13.463-12.031 1.956-4.328 4.265-8.588 7.042-12.338 3.832-5.173 9.379-5.701 15.233-5.629 7.301.089 10.63-2.768 12.487-9.509zm-4.898 25.295c-.346-7.384-2.597-10.829-7.285-7.972-2.108 1.284-3.881 4.233-4.633 6.823-.942 3.245-.804 6.895-.879 10.377-.034 1.556.088 3.607.958 4.58 1.327 1.484 3.316 2.897 5.119 3.053 1.238.107 3.435-1.715 3.822-3.118 1.405-5.1 2.227-10.385 2.898-13.743zM37.43 13.696l-.962-.827c-4.211.946-5.331 2.098-8.031 5.663-2.093 2.763-4.643 5.219-7.308 7.349-2.095 1.674-2.984 1.089-3.716-.554 2.883-3.367 5.352-6.508 8.074-9.369 4.005-4.209 7.822-9.262 14.531-5.54.669.371 1.759-.141 3.043-.288-6.372-5.515-14.569-3.823-18.996 3.09-2.129 3.324-4.911 6.16-7.392 9.223-.858 1.059-2.537 2.362-2.354 3.151.296 1.274 1.654 2.741 2.864 3.194 3.378 1.267 7.038 1.344 9.653-1.611 3.764-4.255 7.085-8.965 10.594-13.481zm68.785 82.753c-.595.31-1.609.577-2.292 1.24-3.195 3.1-3.757 13.735.111 17.289 2.039 1.874 4.115 1.321 4.898-1.03 1.259-3.784 2.321-7.81 2.506-11.786.127-2.739-1.646-5.276-5.223-5.713zm-80.701 14.454c-4.533-2.521-7.853-.665-10.47 3.403-1.69 2.626-4.103 4.7-6.082 7.126-.488.599-.544 1.61-.798 2.431l1.009 1.006c2.315-1.5 5.425-2.432 6.771-4.625 2.465-4.011 5.135-7.396 9.57-9.341zm28.015-61.168c-7.686 1.732-5.686 8.705-7.873 14.304 1.899-.249 3.585.086 4.387-.671 3.623-3.42 3.615-8.129 3.486-13.633z"/><path d="M25.067 72.927c1.658.841 2.764 1.186 3.626 1.882 2.08 1.678 3.643 3.562 2.341 6.783-1.283 3.175-3.298 3.604-6.088 2.721-3.43-1.086-6.818-1.908-10.407-.049-1.124.582-3.66.165-4.274-.77-1.009-1.538-2.748-3.116-1.224-6.011 1.823-3.462 2.769-7.528 3.733-11.436 2.032-8.235 6.408-14.198 13.606-17.832 1.371-.692 2.4-2.174 3.819-3.51 1.62.411 3.625 1.004 5.662 1.417 3.327.675 3.292 3.095 2.54 5.726-1.523 5.328-4.255 10.431-3.172 16.264.72 3.877 1.811 7.698 3.031 11.432.57 1.745.814 2.884-.28 4.645-2.712 4.366-4.003 8.962-1.58 14.301 2.403 5.295 6.722 7.167 11.377 8.019 5.002.916 10.163.797 15.247 1.231 1.836.157 3.661.55 5.473.937 2.741.585 4.317 2.508 4.636 5.428.373 3.408-.288 6.429-3.404 8.256-1.216.713-2.341 1.606-3.939 2.717 4.056 1.068 8.757-1.018 10.53-4.149 1.485-2.623.755-7.701-.969-10.437-3.304-5.243-7.877-6.737-13.477-6.622-4.976.102-10.031-.031-14.931-.873-7.462-1.282-10-8.246-7.162-15.417.298-.754 2.544-1.549 3.025-1.142 8.845 7.486 18.501 7.352 28.85 4.64 9.203-2.412 14.387-8.652 17.53-17.782 1.25-3.63 2.975-7.186 7.58-9.082-3.689 8.233-4.015 16.13-4.125 24.168-.127 9.287-.311 18.653-4.36 27.282-.301.641.488 1.877.836 3.059 4.939-4.95 8.346-18.408 7.423-36.601l5.146 12.874c-5.393 4.327-5.252 17.567-1.044 23.033 1.298 1.686 4.406 1.749 6.863 2.618-2.008 5.5-6.164 9.811-11.762 12.752l.626 1.392c1.274-.223 2.635-.209 3.808-.708 8.581-3.647 12.253-11.355 13.57-20.456 1.203-8.307 1.734-16.732 2.455-25.115.956-11.11.721-22.389 4.394-33.089 1.354-3.944 3.041-4.862 8.769-4.485 3.373.222 4.084 3.079 4.769 5.697 2.857 10.923 2.124 22.083.729 33.038-1.707 13.407-3.65 27.071-13.236 37.221-4.325 4.579-9.516 7.124-15.708 9.066-10.033 3.146-19.842 1.36-29.711 1.88-7.554.398-15.157-.398-22.74-.486-3.117-.036-6.264.764-9.354.526-5.295-.407-10.604-1.06-15.817-2.121-4.414-.898-6.039-4.687-5.136-9.607.437-2.383.232-4.911.245-7.374.016-3.041 3.528-5.156 7.487-4.826 9.289.773 18.586 1.469 27.89 1.979 2.709.148 4.984.21 4.284 4.684l1.187-.13c.668-1.305 1.968-2.694 1.832-3.893-.144-1.274-1.446-2.866-2.61-3.422-1.637-.781-3.604-.859-5.446-1.021-11.335-.994-22.788-.977-33.489-6.285-2.118-1.051-5.038-.624-7.523-.301-2.86.372-5.038-.81-4.784-3.842.316-3.774.903-7.652 2.143-11.168 1.205-3.417 3.794-4.914 7.486-3.362 4.573 1.923 9.268 2.39 12.201-2.922.971-1.759 1.253-4.92.431-6.661-1.386-2.938-3.134-6.341-7.037-6.311-.595.004-1.184.778-2.391 1.63zm87.195 54.363c4.505-2.007 5.417-6.468 6.452-10.259 2.097-7.684 3.418-15.624 4.846-23.504.429-2.366.322-4.9.086-7.314-.061-.622-1.545-1.081-2.823-1.902-1.384 15.268-2.807 29.572-8.561 42.979zm-6.679-108.214c-.496 4.876-2.645 7.856-6.02 8.829-4.859 1.402-9.915 2.217-14.935 2.712-9.449.932-18.798.177-28.06-2.394-4.545-1.261-7.534-3.945-9.257-8.433-.313-.814-.256-2.217.206-2.887 3.816-5.544 9.068-8.699 15.387-8.981 7.923-.353 15.884-.407 23.801.015 6.52.347 12.767 2.178 17.163 8.094.797 1.073 1.339 2.366 1.715 3.045z" fill="#f15a29"/><path d="M87.166 55.979H81.28c-1.272 5.864-2.187 11.929-3.958 17.687-1.525 4.959-5.625 7.469-10.25 8.156-3.325.494-6.792.292-10.157-.044-5.777-.578-9.021-4.83-11.969-10.456 14.416.674 15.242-10.046 15.643-20.73l26.592 3.772-.015 1.615z" fill="#fff"/><path d="M115.764 33.514c.473 3.875 1.27 6.603-1.989 9.452-4.881 4.267-10.58 5.556-16.279 6.079-11.068 1.015-22.085.288-33.03-2.569-4.551-1.188-9.578-.264-14.388-.29-2.009-.011-4.021.079-6.027-.007-3.912-.169-5.214-3.19-5.506-6.657-.231-2.746-1.223-3.61-3.689-3.036.092 1.125.494 2.37.181 3.349-.263.823-1.342 1.81-2.091 1.842-.648.027-1.754-1.081-1.93-1.875-.39-1.766-.723-3.755-.334-5.454.4-1.748 1.425-3.627 2.713-4.693.513-.424 2.83.841 3.708 1.922 6.576 8.1 15.777 8.772 24.632 10.23 5.63.927 11.35 1.667 17.032 1.689 10.659.042 21.408-.023 31.265-5.433 1.839-1.012 3.38-2.656 5.732-4.549z" fill="#f7941e"/><path d="M43.354 13.748c.42 11.642 3.431 15.052 13.433 17.934 9.207 2.653 18.533 3.871 27.98 3.668 6.559-.141 13.085-1.416 18.644-5.568 1.811-1.353 3.072-3.601 4.483-5.527 1.034-1.412 1.902-2.967 3.074-4.824 3.014 3.506 2.758 7.271 1.407 10.4-1.464 3.392-3.548 6.367-8.038 6.667-5.229.349-10.349 2.652-15.577 2.976-7.284.452-14.659.28-21.928-.426-6.106-.593-12.192-2.019-18.138-3.694-3.032-.854-5.891-2.815-8.545-4.733-2.999-2.167-4.306-10.459-2.075-13.392 1.129-1.482 3.177-2.148 5.28-3.481z" fill="#f7941e"/><path d="M127.581 14.679c6.672 7.096 9.135 15.922 7.919 25.541-.639 5.052-6.372 7.078-12.001 5.784-3.343-.769-4.299-5.692-4.142-10.185.155-4.45-1.265-9.052-2.452-13.443-1.244-4.601-2.936-6.041-7.299-7.697 5.071-5.778 11.587-3.027 14.432 2.254 1.946 3.613 2.725 7.937 4.287 11.821.539 1.341 1.865 2.314 2.832 3.455.302-1.58 1.177-3.345.8-4.706-1.21-4.355-2.883-8.561-4.376-12.824zm-8.737 33.993c-1.857 6.741-5.186 9.599-12.486 9.508-5.854-.072-11.401.456-15.233 5.629-2.778 3.75-5.086 8.01-7.042 12.338-2.86 6.326-7.17 11.045-13.463 12.031-6.739 1.055-13.915 2.689-20.356-1.524-2.967-1.94-6.126-4.149-8.111-7.091-3.533-5.236-4.087-11.534-2.795-17.854.632-3.09 1.589-6.114 2.575-9.101.247-.748 1.173-1.234 2.48-1.206-1.106 3.979-2.219 7.955-3.318 11.937-2.048 7.42 4.076 18.59 10.961 21.439 6.723 2.782 13.27 2.232 19.61-.216 4.205-1.623 7.947-4.389 9.261-10.018 1.087-4.654 2.975-9.269 5.322-13.358 3.257-5.675 9.362-6.243 14.746-7.549 5.391-1.308 11.149-1.07 15.765-5.181.372-.332 1.347.122 2.084.216z" fill="#f7941e"/><path d="M113.946 73.967c-.671 3.358-1.493 8.643-2.898 13.742-.386 1.403-2.584 3.224-3.822 3.118-1.803-.156-3.792-1.569-5.119-3.053-.87-.973-.992-3.024-.958-4.58.075-3.482-.063-7.131.879-10.377.752-2.59 2.526-5.538 4.633-6.823 4.688-2.856 6.939.589 7.285 7.973z" fill="#be1e2d"/><path d="M37.43 13.696c-3.51 4.516-6.83 9.226-10.594 13.48-2.615 2.955-6.275 2.878-9.653 1.611-1.21-.454-2.568-1.921-2.864-3.194-.183-.789 1.496-2.092 2.354-3.151 2.48-3.063 5.263-5.899 7.392-9.223 4.427-6.913 12.624-8.604 18.996-3.09-1.284.147-2.374.659-3.043.288-6.709-3.722-10.526 1.33-14.531 5.54-2.722 2.861-5.191 6.002-8.074 9.369.732 1.643 1.621 2.228 3.716.554 2.665-2.129 5.216-4.586 7.308-7.349 2.7-3.565 3.82-4.716 8.031-5.663l.962.828z" fill="#f7941e"/><path d="M106.215 96.449c3.578.438 5.35 2.974 5.223 5.713-.185 3.976-1.247 8.002-2.506 11.786-.783 2.352-2.858 2.905-4.898 1.03-3.868-3.554-3.306-14.189-.111-17.289.683-.664 1.697-.93 2.292-1.24zm-80.701 14.454c-4.435 1.945-7.105 5.33-9.568 9.342-1.346 2.193-4.456 3.124-6.771 4.625l-1.009-1.006c.254-.822.309-1.832.798-2.431 1.978-2.427 4.392-4.5 6.082-7.126 2.615-4.069 5.934-5.925 10.468-3.404zm28.015-61.168c.129 5.504.137 10.213-3.486 13.633-.802.757-2.488.422-4.387.671 2.187-5.599.187-12.572 7.873-14.304z" fill="#be1e2d"/><path d="M112.262 127.29c5.754-13.407 7.177-27.711 8.561-42.978 1.278.822 2.762 1.281 2.823 1.902.236 2.414.343 4.948-.086 7.314-1.428 7.879-2.749 15.82-4.846 23.504-1.034 3.791-1.946 8.251-6.452 10.258z"/></svg>